<svg width="32" height="32" viewBox="0 0 32 32" fill="none" xmlns="http://www.w3.org/2000/svg">
<path d="M9.6 8.429V6.4002C9.6 5.5515 9.93714 4.73757 10.5373 4.13745C11.1374 3.53734 11.9513 3.2002 12.8 3.2002H19.2C20.0487 3.2002 20.8626 3.53734 21.4627 4.13745C22.0629 4.73757 22.4 5.5515 22.4 6.4002V8.429C22.8864 8.70985 23.2904 9.1138 23.5713 9.60024C23.8521 10.0867 24 10.6385 24 11.2002V12.8002C24.4243 12.8002 24.8313 12.9688 25.1314 13.2688C25.4314 13.5689 25.6 13.9758 25.6 14.4002V16.0002C25.6 16.4245 25.4314 16.8315 25.1314 17.1316C24.8313 17.4316 24.4243 17.6002 24 17.6002V20.8002C24 21.3619 23.8521 21.9137 23.5713 22.4002C23.2904 22.8866 22.8864 23.2905 22.4 23.5714V25.6002C22.4 26.4489 22.0629 27.2628 21.4627 27.8629C20.8626 28.4631 20.0487 28.8002 19.2 28.8002H12.8C11.9513 28.8002 11.1374 28.4631 10.5373 27.8629C9.93714 27.2628 9.6 26.4489 9.6 25.6002V23.5714C9.11355 23.2905 8.7096 22.8866 8.42874 22.4002C8.14788 21.9137 8.00001 21.3619 8 20.8002V11.2002C8.00001 10.6385 8.14788 10.0867 8.42874 9.60024C8.7096 9.1138 9.11355 8.70985 9.6 8.429ZM12.8 4.8002C12.3757 4.8002 11.9687 4.96877 11.6686 5.26882C11.3686 5.56888 11.2 5.97585 11.2 6.4002V8.0002H20.8V6.4002C20.8 5.97585 20.6314 5.56888 20.3314 5.26882C20.0313 4.96877 19.6243 4.8002 19.2 4.8002H12.8ZM22.4 20.8002V11.2002C22.4 10.7758 22.2314 10.3689 21.9314 10.0688C21.6313 9.76877 21.2243 9.6002 20.8 9.6002H11.2C10.7757 9.6002 10.3687 9.76877 10.0686 10.0688C9.76857 10.3689 9.6 10.7758 9.6 11.2002V20.8002C9.6 21.2243 9.76835 21.631 10.0681 21.931C10.3678 22.231 10.7743 22.3998 11.1984 22.4002H20.8C21.2243 22.4002 21.6313 22.2316 21.9314 21.9316C22.2314 21.6315 22.4 21.2245 22.4 20.8002ZM11.2 25.6002C11.2 26.0245 11.3686 26.4315 11.6686 26.7316C11.9687 27.0316 12.3757 27.2002 12.8 27.2002H19.2C19.6243 27.2002 20.0313 27.0316 20.3314 26.7316C20.6314 26.4315 20.8 26.0245 20.8 25.6002V24.0002H11.2V25.6002Z" fill="#545454"/>
</svg>
