<svg width="32" height="32" viewBox="0 0 32 32" fill="none" xmlns="http://www.w3.org/2000/svg">
<path d="M13.3334 6.66699H18.6667M15.4997 16.8336H16.4997M15.4997 17.8336H16.4997M9.60004 29.3337H22.4C23.8935 29.3337 24.6403 29.3337 25.2107 29.043C25.7124 28.7873 26.1204 28.3794 26.3761 27.8776C26.6667 27.3072 26.6667 26.5605 26.6667 25.067V6.93366C26.6667 5.44019 26.6667 4.69345 26.3761 4.12302C26.1204 3.62125 25.7124 3.2133 25.2107 2.95764C24.6403 2.66699 23.8935 2.66699 22.4 2.66699H9.60004C8.10657 2.66699 7.35983 2.66699 6.7894 2.95764C6.28763 3.2133 5.87969 3.62125 5.62402 4.12302C5.33337 4.69345 5.33337 5.44019 5.33337 6.93366V25.067C5.33337 26.5605 5.33337 27.3072 5.62402 27.8776C5.87969 28.3794 6.28763 28.7873 6.7894 29.043C7.35983 29.3337 8.10657 29.3337 9.60004 29.3337ZM22.6667 17.3337C22.6667 21.0156 19.6819 24.0003 16 24.0003C12.3181 24.0003 9.33337 21.0156 9.33337 17.3337C9.33337 13.6518 12.3181 10.667 16 10.667C19.6819 10.667 22.6667 13.6518 22.6667 17.3337ZM17.3334 17.3337C17.3334 18.07 16.7364 18.667 16 18.667C15.2637 18.667 14.6667 18.07 14.6667 17.3337C14.6667 16.5973 15.2637 16.0003 16 16.0003C16.7364 16.0003 17.3334 16.5973 17.3334 17.3337Z" stroke="#545454" stroke-width="1.5" stroke-linecap="round"/>
</svg>
