<svg width="32" height="32" viewBox="0 0 32 32" fill="none" xmlns="http://www.w3.org/2000/svg">
<path d="M12.6667 5.69336C14.5067 6.04003 17.2 6.85336 18.6667 7.33336C22.3333 8.60003 23.5867 10.1734 23.5867 13.72C23.5867 17.1867 21.4533 18.4934 18.7333 17.1867V10.7334C18.7333 10 18.6 9.29336 17.88 9.09336C17.3333 8.92003 17.0133 9.42669 17.0133 10.1734V26.3067L12.6667 24.92V5.69336ZM17.8267 23.4934L24.8267 21C25.6267 20.72 25.7467 20.32 25.1067 20.1067C24.4533 19.8934 23.2933 19.96 22.4933 20.24L17.8267 21.88V19.2667L18.1067 19.1734C18.1067 19.1734 19.4533 18.6667 21.3333 18.4934C23.24 18.28 25.56 18.52 27.3733 19.2C29.4267 19.8534 29.6667 20.8134 29.1467 21.4667C28.6133 22.1334 27.3333 22.6 27.3333 22.6L17.8267 26V23.4934ZM4.66667 23.2267C2.57333 22.6667 2.21333 21.4 3.17333 20.6667C4.06667 20 5.57333 19.5334 5.57333 19.5334L11.8133 17.3334V19.84L7.33333 21.4534C6.53333 21.7334 6.41333 22.1334 7.05333 22.3467C7.69333 22.56 8.86667 22.5067 9.65333 22.2134L11.8133 21.44V23.6934L11.3867 23.7734C9.22667 24.12 6.93333 24 4.66667 23.2267Z" fill="#545454"/>
</svg>
