<svg width="32" height="32" viewBox="0 0 32 32" fill="none" xmlns="http://www.w3.org/2000/svg">
<path d="M1.33334 25.027V23.6937H6.15334V22.667C5.54 22.667 5.028 22.4617 4.61734 22.051C4.20578 21.6394 4 21.127 4 20.5137V8.82033C4 8.20699 4.20578 7.69499 4.61734 7.28433C5.028 6.87277 5.54 6.66699 6.15334 6.66699H25.8467C26.46 6.66699 26.972 6.87277 27.3827 7.28433C27.7942 7.69499 28 8.20699 28 8.82033V20.5137C28 21.127 27.7947 21.6394 27.384 22.051C26.9724 22.4617 26.46 22.667 25.8467 22.667V23.6937H30.6667V25.027H1.33334ZM6.15334 21.3337H25.8467C26.0858 21.3337 26.2822 21.2568 26.436 21.103C26.5898 20.9492 26.6667 20.7528 26.6667 20.5137V8.82033C26.6667 8.58121 26.5898 8.38477 26.436 8.23099C26.2822 8.07721 26.0858 8.00033 25.8467 8.00033H6.15334C5.91422 8.00033 5.71778 8.07721 5.564 8.23099C5.41022 8.38477 5.33334 8.58121 5.33334 8.82033V20.5137C5.33334 20.7528 5.41022 20.9492 5.564 21.103C5.71778 21.2568 5.91422 21.3337 6.15334 21.3337Z" fill="#545454"/>
</svg>
