<svg width="32" height="32" viewBox="0 0 32 32" fill="none" xmlns="http://www.w3.org/2000/svg">
<g clip-path="url(#clip0_4789_6569)">
<mask id="mask0_4789_6569" style="mask-type:luminance" maskUnits="userSpaceOnUse" x="7" y="1" width="18" height="30">
<path d="M24 10.667C24 6.24871 20.4183 2.66699 16 2.66699C11.5817 2.66699 8 6.24871 8 10.667V16.0003C8 20.4186 11.5817 24.0003 16 24.0003C20.4183 24.0003 24 20.4186 24 16.0003V10.667Z" stroke="white" stroke-width="1.5" stroke-linecap="round" stroke-linejoin="round"/>
<path d="M16 24V29.3333M10.6667 29.3333H21.3334" stroke="white" stroke-width="1.5" stroke-linecap="round" stroke-linejoin="round"/>
<path d="M16 15.334C18.2091 15.334 20 13.5431 20 11.334C20 9.12485 18.2091 7.33398 16 7.33398C13.7909 7.33398 12 9.12485 12 11.334C12 13.5431 13.7909 15.334 16 15.334Z" fill="white" stroke="white" stroke-linecap="round" stroke-linejoin="round"/>
<path d="M16 20.6667C16.7364 20.6667 17.3334 20.0697 17.3334 19.3333C17.3334 18.597 16.7364 18 16 18C15.2636 18 14.6667 18.597 14.6667 19.3333C14.6667 20.0697 15.2636 20.6667 16 20.6667Z" fill="white"/>
</mask>
<g mask="url(#mask0_4789_6569)">
<path d="M0 0.5H32V32.5H0V0.5Z" fill="#545454"/>
</g>
</g>
<defs>
<clipPath id="clip0_4789_6569">
<rect width="32" height="32" fill="white"/>
</clipPath>
</defs>
</svg>
