<svg width="40" height="40" viewBox="0 0 40 40" fill="none" xmlns="http://www.w3.org/2000/svg">
<g clip-path="url(#clip0_4789_6582)">
<path d="M13.4265 5.71387C11.1809 5.71387 9.19942 6.73053 7.99945 8.28386V15.2051C9.19942 16.7572 11.1809 17.7739 13.4265 17.7739C14.5131 17.7739 15.5358 17.5315 16.4415 17.1106V31.0399H20.0595V11.7439C20.0595 8.41411 17.0903 5.71387 13.4265 5.71387Z" stroke="#545454" stroke-width="1.5" stroke-miterlimit="10" stroke-linecap="round" stroke-linejoin="round"/>
<path d="M14.6314 15.3623C15.63 15.3623 16.4404 16.1727 16.4404 17.1713" stroke="#545454" stroke-width="1.5" stroke-miterlimit="10" stroke-linecap="round" stroke-linejoin="round"/>
<path d="M18.8524 33.452H17.6464C16.9807 33.452 16.4404 32.9118 16.4404 32.246V31.04H20.0584V32.246C20.0584 32.9118 19.5181 33.452 18.8524 33.452Z" stroke="#545454" stroke-width="1.5" stroke-miterlimit="10" stroke-linecap="round" stroke-linejoin="round"/>
<path d="M15.2322 8.50195C16.1717 8.91561 16.9206 9.64163 17.3222 10.5365" stroke="#545454" stroke-width="1.5" stroke-miterlimit="10" stroke-linecap="round" stroke-linejoin="round"/>
<path d="M30.9121 11.7441H23.6761V21.3922H30.9121V11.7441Z" stroke="#545454" stroke-width="1.5" stroke-miterlimit="10" stroke-linecap="round" stroke-linejoin="round"/>
<path d="M29.705 5.71387H24.881V11.7439H29.705V5.71387Z" stroke="#545454" stroke-width="1.5" stroke-miterlimit="10" stroke-linecap="round" stroke-linejoin="round"/>
<path d="M27.2944 25.0098V33.4518" stroke="#545454" stroke-width="1.5" stroke-miterlimit="10" stroke-linecap="round" stroke-linejoin="round"/>
<path d="M28.5015 21.3916H26.0895V25.0096H28.5015V21.3916Z" stroke="#545454" stroke-width="1.5" stroke-miterlimit="10" stroke-linecap="round" stroke-linejoin="round"/>
<path d="M27.2944 8.12598V9.33198" stroke="#545454" stroke-width="1.5" stroke-miterlimit="10" stroke-linecap="round" stroke-linejoin="round"/>
<path d="M11.315 10.5381C10.8157 10.5381 10.4105 10.9433 10.4105 11.4426C10.4105 11.9419 10.8157 12.3471 11.315 12.3471C11.8142 12.3471 12.2195 11.9419 12.2195 11.4426C12.2195 10.9433 11.8142 10.5381 11.315 10.5381Z" fill="#545454"/>
</g>
<defs>
<clipPath id="clip0_4789_6582">
<rect width="40" height="40" fill="white"/>
</clipPath>
</defs>
</svg>
