<svg width="32" height="32" viewBox="0 0 32 32" fill="none" xmlns="http://www.w3.org/2000/svg">
<path d="M5.33331 13.3337C5.33331 8.30566 5.33331 5.79099 6.89598 4.22966C8.45731 2.66699 10.972 2.66699 16 2.66699C21.028 2.66699 23.5426 2.66699 25.104 4.22966C26.6666 5.79099 26.6666 8.30566 26.6666 13.3337V17.3337C26.6666 22.3617 26.6666 24.8763 25.104 26.4377C23.5426 28.0003 21.028 28.0003 16 28.0003C10.972 28.0003 8.45731 28.0003 6.89598 26.4377C5.33331 24.8763 5.33331 22.3617 5.33331 17.3337V13.3337Z" stroke="#545454" stroke-width="1.5"/>
<path d="M22.6666 28V29.3333H21.3333V28M10.6666 28V29.3333H9.33331V28" stroke="#545454" stroke-width="1.5" stroke-linejoin="round"/>
<path d="M26.6666 15.334H5.33331" stroke="#545454" stroke-width="1.5"/>
<path d="M22.6666 9.33398V12.0007M22.6666 18.6673V21.334" stroke="#545454" stroke-width="1.5" stroke-linecap="round"/>
</svg>
