<svg width="24" height="24" viewBox="0 0 24 24" fill="none" xmlns="http://www.w3.org/2000/svg">
<path d="M2.47619 6.7037H22M22 6.7037C22 5.3641 22 4.34028 22 3.85185C22 3.07464 21.8496 2.4862 21.6384 2.05072C21.1932 1.13269 20.0538 1 19.0336 1H4.96643C3.94615 1 2.76961 1.08456 2.32572 2.00322C2.08023 2.51127 2 3.08463 2 3.44444V20.5556C2 22.5111 3.26984 23 3.90476 23H19.1429C21.4286 23 22 21.9136 22 21.3704C22 17.6007 22 10.7276 22 6.7037ZM4.85714 4.25926H9.61905M14.381 4.25926H19.1429" stroke="#545454" stroke-width="1.5" stroke-linejoin="round"/>
</svg>
