<svg width="32" height="32" viewBox="0 0 32 32" fill="none" xmlns="http://www.w3.org/2000/svg">
<rect width="32" height="32" fill="#1E1E1E"/>
<g id="Section 2">
<path d="M-4386 -5433C-4386 -5434.1 -4385.1 -5435 -4384 -5435H81773C81774.1 -5435 81775 -5434.1 81775 -5433V1868C81775 1869.1 81774.1 1870 81773 1870H-4384C-4385.11 1870 -4386 1869.1 -4386 1868V-5433Z" fill="#404040"/>
<path d="M-4384 -5434H81773V-5436H-4384V-5434ZM81774 -5433V1868H81776V-5433H81774ZM81773 1869H-4384V1871H81773V1869ZM-4385 1868V-5433H-4387V1868H-4385ZM-4384 1869C-4384.55 1869 -4385 1868.55 -4385 1868H-4387C-4387 1869.66 -4385.66 1871 -4384 1871V1869ZM81774 1868C81774 1868.55 81773.6 1869 81773 1869V1871C81774.7 1871 81776 1869.66 81776 1868H81774ZM81773 -5434C81773.6 -5434 81774 -5433.55 81774 -5433H81776C81776 -5434.66 81774.7 -5436 81773 -5436V-5434ZM-4384 -5436C-4385.66 -5436 -4387 -5434.66 -4387 -5433H-4385C-4385 -5433.55 -4384.55 -5434 -4384 -5434V-5436Z" fill="white" fill-opacity="0.1"/>
<g id="Frame 8022">
<g id="Frame 280">
<rect x="-9.5" y="-10" width="169" height="52" rx="15.5" fill="white"/>
<rect x="-9.5" y="-10" width="169" height="52" rx="15.5" stroke="#ECECEC"/>
<g id="icon-park-outline:hand-painted-plate">
<g id="Group">
<path id="Vector" d="M12 6.66699H28C28.3536 6.66699 28.6927 6.80747 28.9428 7.05752C29.1928 7.30757 29.3333 7.6467 29.3333 8.00033V25.3337C29.3333 25.6873 29.1928 26.0264 28.9428 26.2765C28.6927 26.5265 28.3536 26.667 28 26.667H12M12 6.66699H3.99996C3.64634 6.66699 3.3072 6.80747 3.05715 7.05752C2.8071 7.30757 2.66663 7.6467 2.66663 8.00033V25.3337C2.66663 25.6873 2.8071 26.0264 3.05715 26.2765C3.3072 26.5265 3.64634 26.667 3.99996 26.667H12M12 6.66699V26.667" stroke="#545454" stroke-width="1.5"/>
<path id="Vector_2" d="M7.33325 11.3337V14.0003M24.6666 10.667L16.6666 22.0003" stroke="#545454" stroke-width="1.5" stroke-linecap="round" stroke-linejoin="round"/>
<path id="Vector_3" d="M8.66667 18.0003C8.66667 17.2639 8.06971 16.667 7.33333 16.667C6.59695 16.667 6 17.2639 6 18.0003C6 18.7367 6.59695 19.3337 7.33333 19.3337C8.06971 19.3337 8.66667 18.7367 8.66667 18.0003Z" fill="#545454"/>
<path id="Vector_4" d="M8.66667 22.0003C8.66667 21.2639 8.06971 20.667 7.33333 20.667C6.59695 20.667 6 21.2639 6 22.0003C6 22.7367 6.59695 23.3337 7.33333 23.3337C8.06971 23.3337 8.66667 22.7367 8.66667 22.0003Z" fill="#545454"/>
</g>
</g>
</g>
</g>
</g>
</svg>
