<svg width="16" height="15" viewBox="0 0 16 15" fill="none" xmlns="http://www.w3.org/2000/svg">
<path d="M6.64453 0.832031C6.94531 0.996094 7.08203 1.40625 6.91797 1.73438L4.67578 6H11.0469L8.80469 1.73438C8.64062 1.40625 8.77734 0.996094 9.07812 0.832031C9.40625 0.667969 9.81641 0.804688 9.98047 1.10547L12.5234 6H14.875C15.3398 6 15.75 6.41016 15.75 6.875C15.75 7.36719 15.3398 7.75 14.875 7.75L13.4531 13.4375C13.2344 14.2031 12.5508 14.75 11.7578 14.75H3.96484C3.17188 14.75 2.48828 14.2031 2.26953 13.4375L0.875 7.75C0.382812 7.75 0 7.36719 0 6.875C0 6.41016 0.382812 6 0.875 6H3.19922L5.74219 1.10547C5.90625 0.804688 6.31641 0.667969 6.64453 0.832031ZM3.9375 8.84375C4.29297 8.84375 4.59375 8.57031 4.59375 8.1875C4.59375 7.83203 4.29297 7.53125 3.9375 7.53125C3.55469 7.53125 3.28125 7.83203 3.28125 8.1875C3.28125 8.57031 3.55469 8.84375 3.9375 8.84375ZM11.8125 7.53125C11.4297 7.53125 11.1562 7.83203 11.1562 8.1875C11.1562 8.57031 11.4297 8.84375 11.8125 8.84375C12.168 8.84375 12.4688 8.57031 12.4688 8.1875C12.4688 7.83203 12.168 7.53125 11.8125 7.53125Z" fill="#282B3D"/>
</svg>
