<svg width="14" height="11" viewBox="0 0 14 11" fill="none" xmlns="http://www.w3.org/2000/svg">
<path d="M13.125 7C13.5898 7 14 7.41016 14 7.875C14 8.36719 13.5898 8.75 13.125 8.75H5.08594C4.73047 9.78906 3.74609 10.5 2.625 10.5C1.14844 10.5 0 9.32422 0 7.875C0 6.42578 1.14844 5.25 2.625 5.25C3.74609 5.25 4.73047 5.98828 5.08594 7H13.125ZM1.75 7.875C1.75 8.36719 2.13281 8.75 2.625 8.75C3.08984 8.75 3.5 8.36719 3.5 7.875C3.5 7.41016 3.08984 7 2.625 7C2.13281 7 1.75 7.41016 1.75 7.875ZM8.88672 1.75C9.24219 0.738281 10.2266 0 11.375 0C12.8242 0 14 1.17578 14 2.625C14 4.07422 12.8242 5.25 11.375 5.25C10.2266 5.25 9.24219 4.53906 8.88672 3.5H0.875C0.382812 3.5 0 3.11719 0 2.625C0 2.16016 0.382812 1.75 0.875 1.75H8.88672ZM11.375 3.5C11.8398 3.5 12.25 3.11719 12.25 2.625C12.25 2.16016 11.8398 1.75 11.375 1.75C10.8828 1.75 10.5 2.16016 10.5 2.625C10.5 3.11719 10.8828 3.5 11.375 3.5Z" fill="#282B3D"/>
</svg>
