<svg width="17" height="14" viewBox="0 0 17 14" fill="none" xmlns="http://www.w3.org/2000/svg">
<path d="M14.5645 1.2207C15.4824 2.00195 15.9707 2.99805 16.0293 4.20898C16.0879 5.41992 15.6973 6.44531 14.8574 7.28516L9.20312 13.1445C9.00781 13.3398 8.7832 13.4375 8.5293 13.4375C8.27539 13.4375 8.05078 13.3398 7.85547 13.1445L2.20117 7.28516C1.36133 6.44531 0.970703 5.41992 1.0293 4.20898C1.08789 2.99805 1.57617 2.00195 2.49414 1.2207C3.29492 0.537109 4.21289 0.244141 5.24805 0.341797C6.30273 0.419922 7.20117 0.839844 7.94336 1.60156L8.5293 2.1875L9.11523 1.60156C9.85742 0.839844 10.7461 0.419922 11.7812 0.341797C12.8359 0.244141 13.7637 0.537109 14.5645 1.2207Z" fill="black"/>
</svg>
