<svg width="14" height="15" viewBox="0 0 14 15" fill="none" xmlns="http://www.w3.org/2000/svg">
<path d="M7.71094 10.1562L6.78125 11.0586C6.67188 11.1953 6.50781 11.25 6.34375 11.25H5.25V12.3438C5.25 12.7266 4.94922 13 4.59375 13H3.5V14.0938C3.5 14.4766 3.19922 14.75 2.84375 14.75H0.65625C0.273438 14.75 0 14.4766 0 14.0938V11.9062C0 11.7422 0.0546875 11.5781 0.191406 11.4414L4.59375 7.03906C4.42969 6.57422 4.375 6.08203 4.375 5.5625C4.375 2.91016 6.50781 0.75 9.1875 0.75C11.8398 0.75 14 2.91016 14 5.5625C14 8.24219 11.8398 10.375 9.1875 10.375C8.66797 10.375 8.17578 10.3203 7.71094 10.1562ZM10.2812 5.5625C10.8828 5.5625 11.375 5.09766 11.375 4.46875C11.375 3.86719 10.8828 3.375 10.2812 3.375C9.65234 3.375 9.1875 3.86719 9.1875 4.46875C9.1875 5.09766 9.65234 5.5625 10.2812 5.5625Z" fill="#F1F1F1"/>
</svg>
