<svg width="18" height="20" viewBox="0 0 18 20" fill="none" xmlns="http://www.w3.org/2000/svg">
<path fill-rule="evenodd" clip-rule="evenodd" d="M4.245 0H13.755C14.914 0 15.493 1.04308e-07 15.961 0.163C16.4023 0.319388 16.8015 0.575414 17.1277 0.911182C17.454 1.24695 17.6984 1.65342 17.842 2.099C18 2.581 18 3.177 18 4.37V18.374C18 19.232 17.015 19.688 16.392 19.118C16.2172 18.9565 15.988 18.8668 15.75 18.8668C15.512 18.8668 15.2828 18.9565 15.108 19.118L14.625 19.56C14.3188 19.8432 13.9171 20.0004 13.5 20.0004C13.0829 20.0004 12.6812 19.8432 12.375 19.56C12.0688 19.2768 11.6671 19.1196 11.25 19.1196C10.8329 19.1196 10.4312 19.2768 10.125 19.56C9.81879 19.8432 9.41707 20.0004 9 20.0004C8.58293 20.0004 8.18121 19.8432 7.875 19.56C7.56879 19.2768 7.16707 19.1196 6.75 19.1196C6.33293 19.1196 5.93121 19.2768 5.625 19.56C5.31879 19.8432 4.91707 20.0004 4.5 20.0004C4.08293 20.0004 3.68121 19.8432 3.375 19.56L2.892 19.118C2.71721 18.9565 2.48798 18.8668 2.25 18.8668C2.01202 18.8668 1.78279 18.9565 1.608 19.118C0.985 19.688 0 19.232 0 18.374V4.37C0 3.177 -1.49012e-08 2.58 0.158 2.1C0.458 1.187 1.153 0.471 2.039 0.163C2.507 1.04308e-07 3.086 0 4.245 0ZM4 4.75C3.80109 4.75 3.61032 4.82902 3.46967 4.96967C3.32902 5.11032 3.25 5.30109 3.25 5.5C3.25 5.69891 3.32902 5.88968 3.46967 6.03033C3.61032 6.17098 3.80109 6.25 4 6.25H4.5C4.69891 6.25 4.88968 6.17098 5.03033 6.03033C5.17098 5.88968 5.25 5.69891 5.25 5.5C5.25 5.30109 5.17098 5.11032 5.03033 4.96967C4.88968 4.82902 4.69891 4.75 4.5 4.75H4ZM7.5 4.75C7.30109 4.75 7.11032 4.82902 6.96967 4.96967C6.82902 5.11032 6.75 5.30109 6.75 5.5C6.75 5.69891 6.82902 5.88968 6.96967 6.03033C7.11032 6.17098 7.30109 6.25 7.5 6.25H14C14.1989 6.25 14.3897 6.17098 14.5303 6.03033C14.671 5.88968 14.75 5.69891 14.75 5.5C14.75 5.30109 14.671 5.11032 14.5303 4.96967C14.3897 4.82902 14.1989 4.75 14 4.75H7.5ZM4 8.25C3.80109 8.25 3.61032 8.32902 3.46967 8.46967C3.32902 8.61032 3.25 8.80109 3.25 9C3.25 9.19891 3.32902 9.38968 3.46967 9.53033C3.61032 9.67098 3.80109 9.75 4 9.75H4.5C4.69891 9.75 4.88968 9.67098 5.03033 9.53033C5.17098 9.38968 5.25 9.19891 5.25 9C5.25 8.80109 5.17098 8.61032 5.03033 8.46967C4.88968 8.32902 4.69891 8.25 4.5 8.25H4ZM7.5 8.25C7.30109 8.25 7.11032 8.32902 6.96967 8.46967C6.82902 8.61032 6.75 8.80109 6.75 9C6.75 9.19891 6.82902 9.38968 6.96967 9.53033C7.11032 9.67098 7.30109 9.75 7.5 9.75H14C14.1989 9.75 14.3897 9.67098 14.5303 9.53033C14.671 9.38968 14.75 9.19891 14.75 9C14.75 8.80109 14.671 8.61032 14.5303 8.46967C14.3897 8.32902 14.1989 8.25 14 8.25H7.5ZM4 11.75C3.80109 11.75 3.61032 11.829 3.46967 11.9697C3.32902 12.1103 3.25 12.3011 3.25 12.5C3.25 12.6989 3.32902 12.8897 3.46967 13.0303C3.61032 13.171 3.80109 13.25 4 13.25H4.5C4.69891 13.25 4.88968 13.171 5.03033 13.0303C5.17098 12.8897 5.25 12.6989 5.25 12.5C5.25 12.3011 5.17098 12.1103 5.03033 11.9697C4.88968 11.829 4.69891 11.75 4.5 11.75H4ZM7.5 11.75C7.30109 11.75 7.11032 11.829 6.96967 11.9697C6.82902 12.1103 6.75 12.3011 6.75 12.5C6.75 12.6989 6.82902 12.8897 6.96967 13.0303C7.11032 13.171 7.30109 13.25 7.5 13.25H14C14.1989 13.25 14.3897 13.171 14.5303 13.0303C14.671 12.8897 14.75 12.6989 14.75 12.5C14.75 12.3011 14.671 12.1103 14.5303 11.9697C14.3897 11.829 14.1989 11.75 14 11.75H7.5Z" fill="white"/>
</svg>
