<svg width="32" height="37" viewBox="0 0 32 37" fill="none" xmlns="http://www.w3.org/2000/svg">
<path d="M16 18.5C20.9219 18.5 25 14.4922 25 9.5C25 4.57812 20.9219 0.5 16 0.5C11.0078 0.5 7 4.57812 7 9.5C7 14.4922 11.0078 18.5 16 18.5ZM16 1.625C20.2891 1.625 23.875 5.21094 23.875 9.5C23.875 13.8594 20.2891 17.375 16 17.375C11.6406 17.375 8.125 13.8594 8.125 9.5C8.125 5.21094 11.6406 1.625 16 1.625ZM19.5156 21.875H12.4141C5.66406 21.875 0.25 27.3594 0.25 34.1094C0.25 35.4453 1.30469 36.5 2.64062 36.5H29.2891C30.625 36.5 31.75 35.4453 31.75 34.1094C31.75 27.3594 26.2656 21.875 19.5156 21.875ZM29.2891 35.375H2.64062C1.9375 35.375 1.375 34.8125 1.375 34.1094C1.375 27.9922 6.29688 23 12.4141 23H19.5156C25.6328 23 30.625 27.9922 30.625 34.1094C30.625 34.8125 29.9922 35.375 29.2891 35.375Z" fill="#EE5922"/>
</svg>
