<svg width="165" height="54" viewBox="0 0 165 54" fill="none" xmlns="http://www.w3.org/2000/svg">
<rect x="0.44" y="0.44" width="163.691" height="53.12" rx="6.56" fill="#0C0D10"/>
<rect x="0.44" y="0.44" width="163.691" height="53.12" rx="6.56" stroke="#A6A6A6" stroke-width="0.88"/>
<path d="M111.807 25.9215V29.0143H109.838V31.0426H111.807V37.9344C111.807 40.2876 112.888 41.2289 115.609 41.2289C116.087 41.2289 116.543 41.1729 116.941 41.1057V39.0998C116.6 39.1334 116.383 39.1558 116.008 39.1558C114.79 39.1558 114.255 38.5955 114.255 37.318V31.0426H116.941V29.0143H114.255V25.9215H111.807Z" fill="white"/>
<path d="M123.872 41.397C127.492 41.397 129.712 39.0101 129.712 35.0544C129.712 31.1211 127.481 28.723 123.872 28.723C120.252 28.723 118.021 31.1211 118.021 35.0544C118.021 39.0101 120.241 41.397 123.872 41.397ZM123.872 39.2567C121.743 39.2567 120.548 37.7215 120.548 35.0544C120.548 32.4098 121.743 30.8633 123.872 30.8633C125.99 30.8633 127.196 32.4098 127.196 35.0544C127.196 37.7102 125.99 39.2567 123.872 39.2567Z" fill="white"/>
<path d="M131.611 41.1617H134.059V33.9562C134.059 32.2417 135.368 31.0875 137.224 31.0875C137.656 31.0875 138.385 31.1659 138.59 31.2331V28.8575C138.328 28.7902 137.861 28.7566 137.497 28.7566C135.88 28.7566 134.503 29.6307 134.15 30.8297H133.968V28.9583H131.611V41.1617Z" fill="white"/>
<path d="M144.667 30.7737C146.477 30.7737 147.661 32.0176 147.718 33.9338H141.457C141.593 32.0288 142.857 30.7737 144.667 30.7737ZM147.706 37.8671C147.251 38.8196 146.238 39.3463 144.758 39.3463C142.8 39.3463 141.536 37.9904 141.457 35.85V35.7156H150.211V34.8751C150.211 31.0426 148.128 28.723 144.678 28.723C141.183 28.723 138.964 31.1995 138.964 35.0992C138.964 38.9989 141.138 41.397 144.69 41.397C147.524 41.397 149.505 40.0523 150.063 37.8671H147.706Z" fill="white"/>
<path d="M95.7564 36.6552C95.9452 39.6518 98.482 41.5682 102.258 41.5682C106.293 41.5682 108.818 39.5589 108.818 36.3532C108.818 33.8328 107.378 32.439 103.886 31.6376L102.01 31.1846C99.7917 30.6736 98.8949 29.9883 98.8949 28.792C98.8949 27.2821 100.287 26.2948 102.376 26.2948C104.358 26.2948 105.727 27.2589 105.974 28.8036H108.547C108.393 25.9812 105.868 23.9951 102.411 23.9951C98.6944 23.9951 96.2165 25.9812 96.2165 28.9662C96.2165 31.4286 97.6206 32.892 100.7 33.6005L102.895 34.1232C105.148 34.6458 106.14 35.4124 106.14 36.69C106.14 38.1767 104.582 39.2569 102.458 39.2569C100.181 39.2569 98.6 38.2464 98.3758 36.6552H95.7564Z" fill="white"/>
<path d="M70.4023 28.7566C68.7175 28.7566 67.2604 29.5859 66.509 30.9754H66.3269V28.9583H63.9704V45.2183H66.4179V39.3127H66.6115C67.2604 40.6014 68.6606 41.3634 70.4251 41.3634C73.5557 41.3634 75.5479 38.9317 75.5479 35.0544C75.5479 31.1771 73.5557 28.7566 70.4023 28.7566ZM69.7079 39.2007C67.6588 39.2007 66.3724 37.6094 66.3724 35.0656C66.3724 32.5106 67.6588 30.9194 69.7193 30.9194C71.7912 30.9194 73.032 32.477 73.032 35.0544C73.032 37.643 71.7912 39.2007 69.7079 39.2007Z" fill="white"/>
<path d="M84.1122 28.7566C82.4274 28.7566 80.9702 29.5859 80.2189 30.9754H80.0368V28.9583H77.6803V45.2183H80.1278V39.3127H80.3214C80.9702 40.6014 82.3705 41.3634 84.135 41.3634C87.2656 41.3634 89.2577 38.9317 89.2577 35.0544C89.2577 31.1771 87.2656 28.7566 84.1122 28.7566ZM83.4178 39.2007C81.3687 39.2007 80.0823 37.6094 80.0823 35.0656C80.0823 32.5106 81.3687 30.9194 83.4292 30.9194C85.5011 30.9194 86.7419 32.477 86.7419 35.0544C86.7419 37.643 85.5011 39.2007 83.4178 39.2007Z" fill="white"/>
<path d="M59.5791 41.1617H62.3873L56.2399 24.4016H53.3964L47.249 41.1617H49.9628L51.5321 36.7133H58.0216L59.5791 41.1617ZM54.6825 27.4447H54.883L57.3491 34.5297H52.2046L54.6825 27.4447Z" fill="white"/>
<path d="M48.8926 11.7601V19.8453H51.8581C54.3056 19.8453 55.7229 18.3605 55.7229 15.7775C55.7229 13.2337 54.2943 11.7601 51.8581 11.7601H48.8926ZM50.1676 12.9031H51.7158C53.4177 12.9031 54.4252 13.9677 54.4252 15.7943C54.4252 17.6489 53.4348 18.7023 51.7158 18.7023H50.1676V12.9031Z" fill="white"/>
<path d="M60.0636 19.963C61.8737 19.963 62.9836 18.7695 62.9836 16.7916C62.9836 14.825 61.868 13.6259 60.0636 13.6259C58.2536 13.6259 57.138 14.825 57.138 16.7916C57.138 18.7695 58.2479 19.963 60.0636 19.963ZM60.0636 18.8928C58.9992 18.8928 58.4016 18.1252 58.4016 16.7916C58.4016 15.4693 58.9992 14.6961 60.0636 14.6961C61.1223 14.6961 61.7257 15.4693 61.7257 16.7916C61.7257 18.1196 61.1223 18.8928 60.0636 18.8928Z" fill="white"/>
<path d="M72.4357 13.7436H71.2119L70.1077 18.3997H70.0109L68.7359 13.7436H67.5634L66.2884 18.3997H66.1973L65.0874 13.7436H63.8465L65.5541 19.8453H66.812L68.087 15.3517H68.1838L69.4645 19.8453H70.7338L72.4357 13.7436Z" fill="white"/>
<path d="M73.845 19.8453H75.0688V16.2762C75.0688 15.3236 75.6437 14.7297 76.5487 14.7297C77.4537 14.7297 77.8863 15.2172 77.8863 16.1977V19.8453H79.1101V15.8952C79.1101 14.444 78.3473 13.6259 76.9642 13.6259C76.0307 13.6259 75.416 14.0349 75.1143 14.7129H75.0232V13.7436H73.845V19.8453Z" fill="white"/>
<path d="M81.0374 19.8453H82.2611V11.3623H81.0374V19.8453Z" fill="white"/>
<path d="M86.8637 19.963C88.6737 19.963 89.7836 18.7695 89.7836 16.7916C89.7836 14.825 88.668 13.6259 86.8637 13.6259C85.0536 13.6259 83.938 14.825 83.938 16.7916C83.938 18.7695 85.0479 19.963 86.8637 19.963ZM86.8637 18.8928C85.7993 18.8928 85.2016 18.1252 85.2016 16.7916C85.2016 15.4693 85.7993 14.6961 86.8637 14.6961C87.9224 14.6961 88.5257 15.4693 88.5257 16.7916C88.5257 18.1196 87.9224 18.8928 86.8637 18.8928Z" fill="white"/>
<path d="M93.4299 18.932C92.764 18.932 92.2801 18.6126 92.2801 18.0635C92.2801 17.5256 92.6672 17.2399 93.521 17.1838L95.035 17.0886V17.5985C95.035 18.3549 94.352 18.932 93.4299 18.932ZM93.1169 19.9461C93.9308 19.9461 94.6081 19.5988 94.9781 18.988H95.0749V19.8453H96.2531V15.6766C96.2531 14.3879 95.3766 13.6259 93.8227 13.6259C92.4167 13.6259 91.415 14.2983 91.2897 15.3461H92.4737C92.6103 14.9146 93.0827 14.6681 93.7657 14.6681C94.6025 14.6681 95.035 15.0323 95.035 15.6766V16.2033L93.3559 16.2986C91.8817 16.3882 91.0507 17.0214 91.0507 18.1196C91.0507 19.2346 91.9215 19.9461 93.1169 19.9461Z" fill="white"/>
<path d="M100.406 19.9461C101.26 19.9461 101.983 19.5483 102.353 18.8816H102.449V19.8453H103.622V11.3623H102.398V14.7129H102.307C101.971 14.0406 101.254 13.6427 100.406 13.6427C98.8407 13.6427 97.8332 14.8642 97.8332 16.7916C97.8332 18.7247 98.8293 19.9461 100.406 19.9461ZM100.753 14.7241C101.778 14.7241 102.421 15.5254 102.421 16.7972C102.421 18.0747 101.783 18.8648 100.753 18.8648C99.7173 18.8648 99.0968 18.0859 99.0968 16.7916C99.0968 15.5085 99.7229 14.7241 100.753 14.7241Z" fill="white"/>
<path d="M111.558 19.963C113.368 19.963 114.478 18.7695 114.478 16.7916C114.478 14.825 113.362 13.6259 111.558 13.6259C109.748 13.6259 108.632 14.825 108.632 16.7916C108.632 18.7695 109.742 19.963 111.558 19.963ZM111.558 18.8928C110.493 18.8928 109.896 18.1252 109.896 16.7916C109.896 15.4693 110.493 14.6961 111.558 14.6961C112.616 14.6961 113.22 15.4693 113.22 16.7916C113.22 18.1196 112.616 18.8928 111.558 18.8928Z" fill="white"/>
<path d="M116.098 19.8453H117.321V16.2762C117.321 15.3236 117.896 14.7297 118.801 14.7297C119.706 14.7297 120.139 15.2172 120.139 16.1977V19.8453H121.363V15.8952C121.363 14.444 120.6 13.6259 119.217 13.6259C118.283 13.6259 117.669 14.0349 117.367 14.7129H117.276V13.7436H116.098V19.8453Z" fill="white"/>
<path d="M126.999 12.2252V13.7716H126.014V14.7858H126.999V18.2316C126.999 19.4083 127.54 19.8789 128.9 19.8789C129.139 19.8789 129.367 19.8509 129.566 19.8173V18.8143C129.395 18.8311 129.287 18.8423 129.099 18.8423C128.49 18.8423 128.223 18.5622 128.223 17.9234V14.7858H129.566V13.7716H128.223V12.2252H126.999Z" fill="white"/>
<path d="M131.209 19.8453H132.432V16.2818C132.432 15.3573 132.99 14.7353 133.992 14.7353C134.857 14.7353 135.318 15.2284 135.318 16.2033V19.8453H136.542V15.9064C136.542 14.4552 135.728 13.6315 134.407 13.6315C133.474 13.6315 132.819 14.0406 132.518 14.7241H132.421V11.3623H131.209V19.8453Z" fill="white"/>
<path d="M140.957 14.6513C141.862 14.6513 142.454 15.2732 142.482 16.2313H139.352C139.42 15.2788 140.052 14.6513 140.957 14.6513ZM142.476 18.198C142.249 18.6743 141.742 18.9376 141.002 18.9376C140.023 18.9376 139.391 18.2596 139.352 17.1895V17.1222H143.729V16.702C143.729 14.7858 142.687 13.6259 140.962 13.6259C139.215 13.6259 138.105 14.8642 138.105 16.814C138.105 18.7639 139.192 19.963 140.968 19.963C142.385 19.963 143.376 19.2906 143.655 18.198H142.476Z" fill="white"/>
<path d="M33.9692 27.4059C33.9989 25.1366 35.237 22.9893 37.2011 21.8007C35.962 20.0587 33.8867 18.9543 31.7275 18.8878C29.4245 18.6498 27.1919 20.2443 26.0184 20.2443C24.8221 20.2443 23.0153 18.9114 21.0696 18.9508C18.5335 19.0315 16.1692 20.4509 14.9353 22.6335C12.2829 27.1538 14.2614 33.7972 16.8021 37.4512C18.0733 39.2404 19.5589 41.239 21.5028 41.1681C23.4051 41.0905 24.1155 39.9741 26.4117 39.9741C28.6866 39.9741 29.3531 41.1681 31.3365 41.1231C33.3777 41.0904 34.6638 39.3259 35.8904 37.5197C36.8037 36.2448 37.5065 34.8358 37.9728 33.3448C35.574 32.3461 33.972 29.9698 33.9692 27.4059Z" fill="white"/>
<path d="M30.223 16.4848C31.3359 15.1696 31.8842 13.4792 31.7514 11.7725C30.0511 11.9483 28.4805 12.7482 27.3525 14.0129C26.2495 15.2486 25.6754 16.9093 25.784 18.5508C27.4849 18.5681 29.1571 17.7898 30.223 16.4848Z" fill="white"/>
</svg>
