<svg width="23" height="23" viewBox="0 0 23 23" fill="none" xmlns="http://www.w3.org/2000/svg">
<path d="M21.2266 3.00146C21.7708 3.54574 22.043 4.20459 22.043 4.97803C22.043 5.72282 21.7708 6.36735 21.2266 6.91162L18.0469 10.0913L16.543 11.5952L6.10156 22.0366L1.20312 22.5952C1.14583 22.5952 1.10286 22.5952 1.07422 22.5952C0.759115 22.5952 0.501302 22.4806 0.300781 22.2515C0.10026 22.0223 0.0143229 21.7502 0.0429688 21.4351L0.601562 16.5366L11.043 6.09521L12.5469 4.59131L15.7266 1.41162C16.2708 0.86735 16.9154 0.595215 17.6602 0.595215C18.4336 0.595215 19.0924 0.86735 19.6367 1.41162L21.2266 3.00146ZM5.15625 20.0601L15.082 10.1343L16.4141 8.80225L13.8359 6.22412L12.5039 7.55615L2.57812 17.4819L2.23438 20.4038L5.15625 20.0601ZM19.7656 5.45068C20.1094 5.13558 20.1094 4.80615 19.7656 4.4624L18.1758 2.87256C18.0326 2.72933 17.8607 2.65771 17.6602 2.65771C17.4883 2.65771 17.3307 2.72933 17.1875 2.87256L15.2969 4.76318L17.875 7.34131L19.7656 5.45068Z" fill="#EE5922"/>
</svg>
