<svg width="17" height="17" viewBox="0 0 17 17" fill="none" xmlns="http://www.w3.org/2000/svg">
<path d="M0.5 1.09521C0.5 0.688965 0.8125 0.345215 1.25 0.345215H4.75C5.15625 0.345215 5.5 0.688965 5.5 1.09521C5.5 1.53271 5.15625 1.84521 4.75 1.84521H2V4.59521C2 5.03271 1.65625 5.34521 1.25 5.34521C0.8125 5.34521 0.5 5.03271 0.5 4.59521V1.09521ZM7 3.34521H9.96875C10.2812 3.34521 10.5625 3.56396 10.6562 3.84521L10.875 4.34521H12C12.8125 4.34521 13.5 5.03271 13.5 5.84521V10.8452C13.5 11.689 12.8125 12.3452 12 12.3452H5C4.15625 12.3452 3.5 11.689 3.5 10.8452V5.84521C3.5 5.03271 4.15625 4.34521 5 4.34521H6.125L6.3125 3.84521C6.40625 3.56396 6.6875 3.34521 7 3.34521ZM8.5 10.3452C9.59375 10.3452 10.5 9.47021 10.5 8.34521C10.5 7.25146 9.59375 6.34521 8.5 6.34521C7.375 6.34521 6.5 7.25146 6.5 8.34521C6.5 9.47021 7.375 10.3452 8.5 10.3452ZM15.75 0.345215C16.1562 0.345215 16.5 0.688965 16.5 1.09521V4.59521C16.5 5.03271 16.1562 5.34521 15.75 5.34521C15.3125 5.34521 15 5.03271 15 4.59521V1.84521H12.25C11.8125 1.84521 11.5 1.53271 11.5 1.09521C11.5 0.688965 11.8125 0.345215 12.25 0.345215H15.75ZM0.5 12.0952C0.5 11.689 0.8125 11.3452 1.25 11.3452C1.65625 11.3452 2 11.689 2 12.0952V14.8452H4.75C5.15625 14.8452 5.5 15.189 5.5 15.5952C5.5 16.0327 5.15625 16.3452 4.75 16.3452H1.25C0.8125 16.3452 0.5 16.0327 0.5 15.5952V12.0952ZM12.25 16.3452C11.8125 16.3452 11.5 16.0327 11.5 15.5952C11.5 15.189 11.8125 14.8452 12.25 14.8452H15V12.0952C15 11.689 15.3125 11.3452 15.75 11.3452C16.1562 11.3452 16.5 11.689 16.5 12.0952V15.5952C16.5 16.0327 16.1562 16.3452 15.75 16.3452H12.25Z" fill="#EE5922"/>
</svg>
