<svg width="22" height="23" viewBox="0 0 22 23" fill="none" xmlns="http://www.w3.org/2000/svg">
<path d="M12.1172 15.3765L10.6562 16.7944C10.4844 17.0093 10.2266 17.0952 9.96875 17.0952H8.25V18.814C8.25 19.4155 7.77734 19.8452 7.21875 19.8452H5.5V21.564C5.5 22.1655 5.02734 22.5952 4.46875 22.5952H1.03125C0.429688 22.5952 0 22.1655 0 21.564V18.1265C0 17.8687 0.0859375 17.6108 0.300781 17.396L7.21875 10.478C6.96094 9.74756 6.875 8.97412 6.875 8.15771C6.875 3.98975 10.2266 0.595215 14.4375 0.595215C18.6055 0.595215 22 3.98975 22 8.15771C22 12.3687 18.6055 15.7202 14.4375 15.7202C13.6211 15.7202 12.8477 15.6343 12.1172 15.3765ZM16.1562 8.15771C17.1016 8.15771 17.875 7.42725 17.875 6.43896C17.875 5.49365 17.1016 4.72021 16.1562 4.72021C15.168 4.72021 14.4375 5.49365 14.4375 6.43896C14.4375 7.42725 15.168 8.15771 16.1562 8.15771Z" fill="#EE5922"/>
</svg>
