<svg width="24" height="25" viewBox="0 0 24 25" fill="none" xmlns="http://www.w3.org/2000/svg">
<path fill-rule="evenodd" clip-rule="evenodd" d="M7.245 2.84521H16.755C17.914 2.84521 18.493 2.84521 18.961 3.00821C19.4023 3.1646 19.8015 3.42063 20.1277 3.7564C20.454 4.09217 20.6984 4.49863 20.842 4.94421C21 5.42621 21 6.02221 21 7.21521V21.2192C21 22.0772 20.015 22.5332 19.392 21.9632C19.2172 21.8017 18.988 21.712 18.75 21.712C18.512 21.712 18.2828 21.8017 18.108 21.9632L17.625 22.4052C17.3188 22.6884 16.9171 22.8457 16.5 22.8457C16.0829 22.8457 15.6812 22.6884 15.375 22.4052C15.0688 22.1221 14.6671 21.9648 14.25 21.9648C13.8329 21.9648 13.4312 22.1221 13.125 22.4052C12.8188 22.6884 12.4171 22.8457 12 22.8457C11.5829 22.8457 11.1812 22.6884 10.875 22.4052C10.5688 22.1221 10.1671 21.9648 9.75 21.9648C9.33293 21.9648 8.93121 22.1221 8.625 22.4052C8.31879 22.6884 7.91707 22.8457 7.5 22.8457C7.08293 22.8457 6.68121 22.6884 6.375 22.4052L5.892 21.9632C5.71721 21.8017 5.48798 21.712 5.25 21.712C5.01202 21.712 4.78279 21.8017 4.608 21.9632C3.985 22.5332 3 22.0772 3 21.2192V7.21521C3 6.02221 3 5.42521 3.158 4.94521C3.458 4.03221 4.153 3.31621 5.039 3.00821C5.507 2.84521 6.086 2.84521 7.245 2.84521ZM7 7.59521C6.80109 7.59521 6.61032 7.67423 6.46967 7.81488C6.32902 7.95554 6.25 8.1463 6.25 8.34521C6.25 8.54413 6.32902 8.73489 6.46967 8.87554C6.61032 9.0162 6.80109 9.09521 7 9.09521H7.5C7.69891 9.09521 7.88968 9.0162 8.03033 8.87554C8.17098 8.73489 8.25 8.54413 8.25 8.34521C8.25 8.1463 8.17098 7.95554 8.03033 7.81488C7.88968 7.67423 7.69891 7.59521 7.5 7.59521H7ZM10.5 7.59521C10.3011 7.59521 10.1103 7.67423 9.96967 7.81488C9.82902 7.95554 9.75 8.1463 9.75 8.34521C9.75 8.54413 9.82902 8.73489 9.96967 8.87554C10.1103 9.0162 10.3011 9.09521 10.5 9.09521H17C17.1989 9.09521 17.3897 9.0162 17.5303 8.87554C17.671 8.73489 17.75 8.54413 17.75 8.34521C17.75 8.1463 17.671 7.95554 17.5303 7.81488C17.3897 7.67423 17.1989 7.59521 17 7.59521H10.5ZM7 11.0952C6.80109 11.0952 6.61032 11.1742 6.46967 11.3149C6.32902 11.4555 6.25 11.6463 6.25 11.8452C6.25 12.0441 6.32902 12.2349 6.46967 12.3755C6.61032 12.5162 6.80109 12.5952 7 12.5952H7.5C7.69891 12.5952 7.88968 12.5162 8.03033 12.3755C8.17098 12.2349 8.25 12.0441 8.25 11.8452C8.25 11.6463 8.17098 11.4555 8.03033 11.3149C7.88968 11.1742 7.69891 11.0952 7.5 11.0952H7ZM10.5 11.0952C10.3011 11.0952 10.1103 11.1742 9.96967 11.3149C9.82902 11.4555 9.75 11.6463 9.75 11.8452C9.75 12.0441 9.82902 12.2349 9.96967 12.3755C10.1103 12.5162 10.3011 12.5952 10.5 12.5952H17C17.1989 12.5952 17.3897 12.5162 17.5303 12.3755C17.671 12.2349 17.75 12.0441 17.75 11.8452C17.75 11.6463 17.671 11.4555 17.5303 11.3149C17.3897 11.1742 17.1989 11.0952 17 11.0952H10.5ZM7 14.5952C6.80109 14.5952 6.61032 14.6742 6.46967 14.8149C6.32902 14.9555 6.25 15.1463 6.25 15.3452C6.25 15.5441 6.32902 15.7349 6.46967 15.8755C6.61032 16.0162 6.80109 16.0952 7 16.0952H7.5C7.69891 16.0952 7.88968 16.0162 8.03033 15.8755C8.17098 15.7349 8.25 15.5441 8.25 15.3452C8.25 15.1463 8.17098 14.9555 8.03033 14.8149C7.88968 14.6742 7.69891 14.5952 7.5 14.5952H7ZM10.5 14.5952C10.3011 14.5952 10.1103 14.6742 9.96967 14.8149C9.82902 14.9555 9.75 15.1463 9.75 15.3452C9.75 15.5441 9.82902 15.7349 9.96967 15.8755C10.1103 16.0162 10.3011 16.0952 10.5 16.0952H17C17.1989 16.0952 17.3897 16.0162 17.5303 15.8755C17.671 15.7349 17.75 15.5441 17.75 15.3452C17.75 15.1463 17.671 14.9555 17.5303 14.8149C17.3897 14.6742 17.1989 14.5952 17 14.5952H10.5Z" fill="#EE5922"/>
</svg>
