<svg width="24" height="23" viewBox="0 0 24 23" fill="none" xmlns="http://www.w3.org/2000/svg">
<path d="M15.9961 7.0835L22.1406 7.98584C22.6562 8.07178 23.0859 8.41553 23.2578 8.93115C23.4297 9.40381 23.3008 9.9624 22.9141 10.3062L18.4453 14.7319L19.5195 21.0054C19.6055 21.521 19.3906 22.0366 18.9609 22.3374C18.5312 22.6812 17.9727 22.6812 17.5 22.4663L12 19.5015L6.45703 22.4663C6.02734 22.6812 5.42578 22.6812 5.03906 22.3374C4.60938 22.0366 4.39453 21.521 4.48047 21.0054L5.51172 14.7319L1.04297 10.3062C0.65625 9.9624 0.527344 9.40381 0.699219 8.93115C0.871094 8.41553 1.30078 8.07178 1.81641 7.98584L8.00391 7.0835L10.7539 1.36865C10.9688 0.895996 11.4414 0.595215 12 0.595215C12.5156 0.595215 12.9883 0.895996 13.2031 1.36865L15.9961 7.0835Z" fill="#EE5922"/>
</svg>
