<svg width="22" height="22" viewBox="0 0 22 22" fill="none" xmlns="http://www.w3.org/2000/svg">
<path d="M12.375 11.5952C12.375 12.3687 11.7305 12.9702 11 12.9702C10.2266 12.9702 9.625 12.3687 9.625 11.5952V1.97021C9.625 1.23975 10.2266 0.595215 11 0.595215C11.7305 0.595215 12.375 1.23975 12.375 1.97021V11.5952ZM3.4375 11.5952C3.4375 15.8062 6.78906 19.1577 11 19.1577C15.168 19.1577 18.5625 15.8062 18.5625 11.5952C18.5625 9.2749 17.4883 7.16943 15.8125 5.79443C15.2109 5.32178 15.168 4.4624 15.6406 3.86084C16.1133 3.25928 16.9727 3.21631 17.5742 3.68896C19.8516 5.57959 21.3125 8.41553 21.3125 11.5952C21.3125 17.3101 16.6719 21.9077 11 21.9077C5.28516 21.9077 0.6875 17.3101 0.6875 11.5952C0.6875 8.41553 2.10547 5.57959 4.38281 3.68896C4.98438 3.21631 5.84375 3.25928 6.31641 3.86084C6.78906 4.4624 6.74609 5.32178 6.14453 5.79443C4.46875 7.16943 3.4375 9.2749 3.4375 11.5952Z" fill="#EE5922"/>
</svg>
