<svg width="164" height="54" viewBox="0 0 164 54" fill="none" xmlns="http://www.w3.org/2000/svg">
<rect width="164" height="54" rx="7" fill="white"/>
<path d="M111.419 25.9215V29.0143H109.456V31.0426H111.419V37.9344C111.419 40.2876 112.496 41.2289 115.208 41.2289C115.684 41.2289 116.138 41.1729 116.535 41.1057V39.0998C116.195 39.1334 115.979 39.1558 115.605 39.1558C114.391 39.1558 113.858 38.5955 113.858 37.318V31.0426H116.535V29.0143H113.858V25.9215H111.419Z" fill="#1E1E1E"/>
<path d="M123.442 41.397C127.049 41.397 129.262 39.0101 129.262 35.0544C129.262 31.1211 127.038 28.723 123.442 28.723C119.834 28.723 117.611 31.1211 117.611 35.0544C117.611 39.0101 119.823 41.397 123.442 41.397ZM123.442 39.2567C121.321 39.2567 120.129 37.7215 120.129 35.0544C120.129 32.4098 121.321 30.8633 123.442 30.8633C125.552 30.8633 126.755 32.4098 126.755 35.0544C126.755 37.7102 125.552 39.2567 123.442 39.2567Z" fill="#1E1E1E"/>
<path d="M131.154 41.1617H133.593V33.9562C133.593 32.2417 134.898 31.0875 136.747 31.0875C137.178 31.0875 137.904 31.1659 138.108 31.2331V28.8575C137.848 28.7902 137.382 28.7566 137.019 28.7566C135.408 28.7566 134.036 29.6307 133.684 30.8297H133.503V28.9583H131.154V41.1617Z" fill="#1E1E1E"/>
<path d="M144.165 30.7737C145.968 30.7737 147.148 32.0176 147.205 33.9338H140.965C141.102 32.0288 142.361 30.7737 144.165 30.7737ZM147.194 37.8671C146.74 38.8196 145.73 39.3463 144.255 39.3463C142.304 39.3463 141.045 37.9904 140.965 35.85V35.7156H149.689V34.8751C149.689 31.0426 147.613 28.723 144.176 28.723C140.693 28.723 138.481 31.1995 138.481 35.0992C138.481 38.9989 140.648 41.397 144.187 41.397C147.012 41.397 148.986 40.0523 149.542 37.8671H147.194Z" fill="#1E1E1E"/>
<path d="M95.4238 36.6552C95.6119 39.6518 98.1399 41.5682 101.903 41.5682C105.924 41.5682 108.44 39.5589 108.44 36.3532C108.44 33.8328 107.006 32.439 103.525 31.6376L101.656 31.1846C99.4451 30.6736 98.5515 29.9883 98.5515 28.792C98.5515 27.2821 99.9389 26.2948 102.02 26.2948C103.995 26.2948 105.359 27.2589 105.606 28.8036H108.17C108.017 25.9812 105.501 23.9951 102.055 23.9951C98.3516 23.9951 95.8824 25.9812 95.8824 28.9662C95.8824 31.4286 97.2816 32.892 100.35 33.6005L102.537 34.1232C104.783 34.6458 105.771 35.4124 105.771 36.69C105.771 38.1767 104.219 39.2569 102.102 39.2569C99.8331 39.2569 98.2575 38.2464 98.0341 36.6552H95.4238Z" fill="#1E1E1E"/>
<path d="M70.1578 28.7566C68.4788 28.7566 67.0267 29.5859 66.278 30.9754H66.0965V28.9583H63.7482V45.2183H66.1872V39.3127H66.3801C67.0267 40.6014 68.4221 41.3634 70.1805 41.3634C73.3002 41.3634 75.2855 38.9317 75.2855 35.0544C75.2855 31.1771 73.3002 28.7566 70.1578 28.7566ZM69.4658 39.2007C67.4238 39.2007 66.1419 37.6094 66.1419 35.0656C66.1419 32.5106 67.4238 30.9194 69.4771 30.9194C71.5418 30.9194 72.7783 32.477 72.7783 35.0544C72.7783 37.643 71.5418 39.2007 69.4658 39.2007Z" fill="#1E1E1E"/>
<path d="M83.8201 28.7566C82.1411 28.7566 80.689 29.5859 79.9403 30.9754H79.7588V28.9583H77.4105V45.2183H79.8495V39.3127H80.0424C80.689 40.6014 82.0844 41.3634 83.8428 41.3634C86.9625 41.3634 88.9477 38.9317 88.9477 35.0544C88.9477 31.1771 86.9625 28.7566 83.8201 28.7566ZM83.1281 39.2007C81.0861 39.2007 79.8042 37.6094 79.8042 35.0656C79.8042 32.5106 81.0861 30.9194 83.1394 30.9194C85.2041 30.9194 86.4406 32.477 86.4406 35.0544C86.4406 37.643 85.2041 39.2007 83.1281 39.2007Z" fill="#1E1E1E"/>
<path d="M59.3721 41.1617H62.1706L56.0446 24.4016H53.2109L47.0849 41.1617H49.7892L51.3531 36.7133H57.8201L59.3721 41.1617ZM54.4925 27.4447H54.6924L57.1498 34.5297H52.0233L54.4925 27.4447Z" fill="#1E1E1E"/>
<path d="M48.7232 11.7601V19.8453H51.6784C54.1175 19.8453 55.5298 18.3605 55.5298 15.7775C55.5298 13.2337 54.1061 11.7601 51.6784 11.7601H48.7232ZM49.9938 12.9031H51.5366C53.2326 12.9031 54.2366 13.9677 54.2366 15.7943C54.2366 17.6489 53.2496 18.7023 51.5366 18.7023H49.9938V12.9031Z" fill="#1E1E1E"/>
<path d="M59.8555 19.963C61.6592 19.963 62.7653 18.7695 62.7653 16.7916C62.7653 14.825 61.6536 13.6259 59.8555 13.6259C58.0517 13.6259 56.94 14.825 56.94 16.7916C56.94 18.7695 58.046 19.963 59.8555 19.963ZM59.8555 18.8928C58.7948 18.8928 58.1992 18.1252 58.1992 16.7916C58.1992 15.4693 58.7948 14.6961 59.8555 14.6961C60.9105 14.6961 61.5117 15.4693 61.5117 16.7916C61.5117 18.1196 60.9105 18.8928 59.8555 18.8928Z" fill="#1E1E1E"/>
<path d="M72.1846 13.7436H70.965L69.8646 18.3997H69.7682L68.4976 13.7436H67.3292L66.0586 18.3997H65.9678L64.8617 13.7436H63.6252L65.3269 19.8453H66.5804L67.851 15.3517H67.9474L69.2237 19.8453H70.4886L72.1846 13.7436Z" fill="#1E1E1E"/>
<path d="M73.589 19.8453H74.8085V16.2762C74.8085 15.3236 75.3814 14.7297 76.2833 14.7297C77.1852 14.7297 77.6163 15.2172 77.6163 16.1977V19.8453H78.8358V15.8952C78.8358 14.444 78.0757 13.6259 76.6974 13.6259C75.7671 13.6259 75.1545 14.0349 74.8539 14.7129H74.7631V13.7436H73.589V19.8453Z" fill="#1E1E1E"/>
<path d="M80.7564 19.8453H81.9759V11.3623H80.7564V19.8453Z" fill="#1E1E1E"/>
<path d="M86.5625 19.963C88.3662 19.963 89.4723 18.7695 89.4723 16.7916C89.4723 14.825 88.3605 13.6259 86.5625 13.6259C84.7587 13.6259 83.6469 14.825 83.6469 16.7916C83.6469 18.7695 84.753 19.963 86.5625 19.963ZM86.5625 18.8928C85.5018 18.8928 84.9062 18.1252 84.9062 16.7916C84.9062 15.4693 85.5018 14.6961 86.5625 14.6961C87.6175 14.6961 88.2187 15.4693 88.2187 16.7916C88.2187 18.1196 87.6175 18.8928 86.5625 18.8928Z" fill="#1E1E1E"/>
<path d="M93.1059 18.932C92.4422 18.932 91.9601 18.6126 91.9601 18.0635C91.9601 17.5256 92.3458 17.2399 93.1967 17.1838L94.7055 17.0886V17.5985C94.7055 18.3549 94.0248 18.932 93.1059 18.932ZM92.7939 19.9461C93.6051 19.9461 94.28 19.5988 94.6487 18.988H94.7452V19.8453H95.9193V15.6766C95.9193 14.3879 95.0458 13.6259 93.4973 13.6259C92.0962 13.6259 91.0979 14.2983 90.9732 15.3461H92.153C92.2891 14.9146 92.7599 14.6681 93.4406 14.6681C94.2744 14.6681 94.7055 15.0323 94.7055 15.6766V16.2033L93.0322 16.2986C91.5631 16.3882 90.7349 17.0214 90.7349 18.1196C90.7349 19.2346 91.6028 19.9461 92.7939 19.9461Z" fill="#1E1E1E"/>
<path d="M100.058 19.9461C100.909 19.9461 101.629 19.5483 101.998 18.8816H102.094V19.8453H103.263V11.3623H102.043V14.7129H101.952C101.618 14.0406 100.903 13.6427 100.058 13.6427C98.4979 13.6427 97.4939 14.8642 97.4939 16.7916C97.4939 18.7247 98.4865 19.9461 100.058 19.9461ZM100.404 14.7241C101.425 14.7241 102.066 15.5254 102.066 16.7972C102.066 18.0747 101.43 18.8648 100.404 18.8648C99.3714 18.8648 98.7531 18.0859 98.7531 16.7916C98.7531 15.5085 99.3771 14.7241 100.404 14.7241Z" fill="#1E1E1E"/>
<path d="M111.171 19.963C112.974 19.963 114.081 18.7695 114.081 16.7916C114.081 14.825 112.969 13.6259 111.171 13.6259C109.367 13.6259 108.255 14.825 108.255 16.7916C108.255 18.7695 109.361 19.963 111.171 19.963ZM111.171 18.8928C110.11 18.8928 109.514 18.1252 109.514 16.7916C109.514 15.4693 110.11 14.6961 111.171 14.6961C112.226 14.6961 112.827 15.4693 112.827 16.7916C112.827 18.1196 112.226 18.8928 111.171 18.8928Z" fill="#1E1E1E"/>
<path d="M115.695 19.8453H116.914V16.2762C116.914 15.3236 117.487 14.7297 118.389 14.7297C119.291 14.7297 119.722 15.2172 119.722 16.1977V19.8453H120.942V15.8952C120.942 14.444 120.182 13.6259 118.803 13.6259C117.873 13.6259 117.26 14.0349 116.96 14.7129H116.869V13.7436H115.695V19.8453Z" fill="#1E1E1E"/>
<path d="M126.558 12.2252V13.7716H125.577V14.7858H126.558V18.2316C126.558 19.4083 127.097 19.8789 128.453 19.8789C128.691 19.8789 128.918 19.8509 129.116 19.8173V18.8143C128.946 18.8311 128.838 18.8423 128.651 18.8423C128.044 18.8423 127.778 18.5622 127.778 17.9234V14.7858H129.116V13.7716H127.778V12.2252H126.558Z" fill="#1E1E1E"/>
<path d="M130.753 19.8453H131.973V16.2818C131.973 15.3573 132.529 14.7353 133.527 14.7353C134.389 14.7353 134.849 15.2284 134.849 16.2033V19.8453H136.068V15.9064C136.068 14.4552 135.257 13.6315 133.941 13.6315C133.011 13.6315 132.359 14.0406 132.058 14.7241H131.962V11.3623H130.753V19.8453Z" fill="#1E1E1E"/>
<path d="M140.468 14.6513C141.37 14.6513 141.959 15.2732 141.988 16.2313H138.868C138.936 15.2788 139.566 14.6513 140.468 14.6513ZM141.982 18.198C141.755 18.6743 141.25 18.9376 140.513 18.9376C139.537 18.9376 138.908 18.2596 138.868 17.1895V17.1222H143.23V16.702C143.23 14.7858 142.192 13.6259 140.473 13.6259C138.732 13.6259 137.626 14.8642 137.626 16.814C137.626 18.7639 138.709 19.963 140.479 19.963C141.891 19.963 142.878 19.2906 143.156 18.198H141.982Z" fill="#1E1E1E"/>
<path d="M33.851 27.4059C33.8806 25.1366 35.1143 22.9893 37.0716 21.8007C35.8368 20.0587 33.7687 18.9543 31.617 18.8878C29.322 18.6498 27.0972 20.2443 25.9277 20.2443C24.7356 20.2443 22.935 18.9114 20.9961 18.9508C18.4688 19.0315 16.1127 20.4509 14.8831 22.6335C12.24 27.1538 14.2115 33.7972 16.7434 37.4512C18.0102 39.2404 19.4906 41.239 21.4278 41.1681C23.3235 41.0905 24.0315 39.9741 26.3197 39.9741C28.5866 39.9741 29.2509 41.1681 31.2274 41.1231C33.2615 41.0904 34.5431 39.3259 35.7654 37.5197C36.6756 36.2448 37.3759 34.8358 37.8406 33.3448C35.4501 32.3461 33.8537 29.9698 33.851 27.4059Z" fill="#1E1E1E"/>
<path d="M30.1177 16.4848C31.2268 15.1696 31.7732 13.4792 31.6409 11.7725C29.9464 11.9483 28.3812 12.7482 27.2572 14.0129C26.158 15.2486 25.586 16.9093 25.6941 18.5508C27.3891 18.5681 29.0555 17.7898 30.1177 16.4848Z" fill="#1E1E1E"/>
</svg>
