<svg width="280" height="266" viewBox="0 0 280 266" fill="none" xmlns="http://www.w3.org/2000/svg">
<path d="M41.8775 37.1463H134.524C134.959 28.2703 130.571 19.3607 122.666 15.2074C114.795 11.0875 104.546 11.9584 97.4785 17.3845C91.1481 11.9249 84.6166 6.3648 76.6449 3.91969C68.6732 1.47459 58.8593 2.98185 53.9356 9.71426C50.5526 14.37 50.0837 20.734 51.7249 26.2271C44.5236 26.1601 37.2887 26.3276 30.0874 26.7295C25.9676 26.964 20.374 28.1363 20.173 32.2561C19.8715 38.4526 41.8775 37.1463 41.8775 37.1463Z" fill="white"/>
<path d="M239.561 35.1022C237.853 34.1979 235.911 34.0304 234.001 34.4658C232.862 34.7338 231.757 35.1357 230.652 35.4707C228.542 36.107 228.341 36.6765 227.47 34.8343C226.532 32.8246 227.671 30.7479 225.829 28.6712C224.489 27.164 222.546 26.2931 220.536 26.2931C219.8 26.2931 219.096 26.3936 218.426 26.6281C217.02 23.3456 215.412 20.1971 212.766 17.6515C207.474 12.5603 199.401 10.4502 192.501 13.2972C189.42 14.57 186.707 16.6802 184.53 19.2258C183.391 20.5321 182.386 22.0058 181.549 23.5131C180.778 24.8864 180.443 26.6951 179.506 27.9344C177.462 27.164 175.587 26.1592 173.477 25.5563C169.323 24.4174 164.801 24.183 161.151 26.896C158.17 29.1067 156.26 33.126 157.232 36.8439C157.768 38.9541 158.772 40.4948 160.916 40.5283C163.931 40.5618 166.979 40.5283 169.993 40.5283C180.812 40.5283 191.631 40.5283 202.449 40.5283C213.201 40.5283 223.953 40.5283 234.705 40.5283C238.088 40.5283 244.854 40.5283 244.854 40.5283C244.854 40.5283 242.676 36.7435 239.561 35.1022Z" fill="white"/>
<path d="M279.052 64.0096C280.023 58.818 278.181 53.1239 274.329 49.4395C269.539 44.8507 262.238 42.908 256.008 45.4871C253.194 46.6594 250.749 48.5686 248.773 50.8462C247.734 52.0521 246.83 53.3583 246.06 54.7316C245.356 55.9709 245.055 57.6122 244.217 58.751C242.375 58.0476 240.667 57.1432 238.758 56.6073C235.006 55.569 230.887 55.368 227.604 57.8131C224.858 59.8563 223.149 63.5742 224.087 66.9572C224.422 68.163 225.326 70.1391 226.666 70.2396C227.068 70.2731 227.47 70.2396 227.872 70.2396C231.523 70.2396 235.174 70.2396 238.791 70.2396C244.117 70.2396 249.443 70.2396 254.768 70.2396C259.625 70.2396 264.482 70.2396 269.338 70.2396C270.645 70.2396 271.951 70.2396 273.291 70.2396C273.961 70.2396 274.664 70.2396 275.334 70.2396C276.138 70.2396 276.238 70.1056 276.707 69.4358C277.913 67.828 278.683 65.9523 279.052 64.0096Z" fill="white"/>
<path d="M0.946592 71.578C-0.0247522 66.3863 1.85095 60.6922 5.66933 57.0078C10.4591 52.4191 17.7609 50.4764 23.9909 53.0555C26.8044 54.2278 29.2495 56.137 31.2257 58.4146C32.2641 59.6204 33.1684 60.9267 33.9388 62.3C34.6422 63.5393 34.9436 65.1805 35.781 66.3193C37.6232 65.6159 39.3314 64.7116 41.2406 64.1757C44.992 63.1373 49.1118 62.9364 52.3943 65.3815C55.1409 67.4247 56.8491 71.1426 55.9112 74.5255C55.5763 75.7313 54.6719 77.7075 53.3322 77.808C52.9302 77.8415 52.5283 77.808 52.1264 77.808C48.4754 77.808 44.8245 77.808 41.2071 77.808C35.8815 77.808 30.5558 77.808 25.2302 77.808C20.3735 77.808 15.5167 77.808 10.66 77.808C9.35374 77.808 8.04745 77.808 6.70766 77.808C6.03777 77.808 5.33438 77.808 4.66449 77.808C3.86062 77.808 3.76014 77.674 3.29121 77.0041C2.08541 75.3629 1.31503 73.5207 0.946592 71.578Z" fill="white"/>
<path d="M55.4418 251.746C53.7001 253.019 52.1593 254.56 52.2933 257.005C52.5612 262.23 61.5043 263.469 65.1552 263.972C71.6532 264.843 78.1511 264.709 84.6491 264.977C108.33 265.881 132.01 266.015 155.691 265.479C167.85 265.211 180.008 264.776 192.133 264.139C202.818 263.603 214.675 264.273 224.791 260.153C230.853 257.675 236.681 254.593 242.375 251.311C247.098 248.564 253.194 245.952 255.974 240.86C260.864 231.884 243.715 230.109 238.992 229.137C220.436 225.252 201.311 224.582 182.453 224.013C163.261 223.443 144.002 223.778 124.876 225.821C100.894 228.367 75.2706 236.473 55.7097 251.579C55.6428 251.612 55.5423 251.679 55.4418 251.746Z" fill="#E5E5E5"/>
<path d="M242.209 148.516H104.881V242.669H242.209V148.516Z" fill="#E5E5E5"/>
<path d="M242.242 148.516H104.914L123.102 127.515C123.939 126.544 125.178 125.975 126.451 125.975H259.224C260.195 125.975 260.731 127.147 260.095 127.884L242.242 148.516Z" fill="white"/>
<path d="M242.308 147.912C237.786 147.912 233.231 147.912 228.709 147.912C217.757 147.912 206.804 147.912 195.851 147.912C182.654 147.912 169.457 147.912 156.26 147.912C144.805 147.912 133.35 147.912 121.861 147.912C118.11 147.912 114.325 147.912 110.574 147.912C109.402 147.912 108.229 147.912 107.057 147.912C106.554 147.912 105.684 147.744 105.215 147.912C105.148 147.945 105.047 147.912 104.98 147.912C105.181 148.18 105.382 148.481 105.583 148.749C110.038 143.591 114.526 138.433 118.981 133.275C120.555 131.433 122.062 129.49 123.771 127.748C125.01 126.475 126.316 126.576 127.857 126.576C139.212 126.576 150.566 126.576 161.888 126.576C179.807 126.576 197.693 126.576 215.613 126.576C228.743 126.576 241.873 126.576 255.003 126.576C256.175 126.576 257.515 126.408 258.653 126.576C260.328 126.81 258.787 128.351 258.151 129.088C253.026 134.983 247.935 140.912 242.811 146.807C242.375 147.309 241.973 147.778 241.538 148.28C240.868 149.051 242.409 149.352 242.911 148.783C247.5 143.457 252.122 138.165 256.711 132.839C257.783 131.6 258.821 130.394 259.893 129.155C260.429 128.552 261.233 127.849 261.199 126.978C261.099 125.303 259.39 125.404 258.185 125.404C246.729 125.404 235.241 125.404 223.786 125.404C205.364 125.404 186.942 125.404 168.486 125.404C155.524 125.404 142.561 125.404 129.599 125.404C128.627 125.404 127.623 125.37 126.651 125.404C124.173 125.504 122.766 126.877 121.292 128.619C116.067 134.648 110.842 140.711 105.617 146.74C105.148 147.276 104.712 147.778 104.243 148.314C103.808 148.816 104.377 149.151 104.846 149.151C109.368 149.151 113.923 149.151 118.445 149.151C129.398 149.151 140.351 149.151 151.303 149.151C164.5 149.151 177.697 149.151 190.894 149.151C202.349 149.151 213.804 149.151 225.293 149.151C229.044 149.151 232.829 149.151 236.581 149.151C238.356 149.151 240.198 149.285 241.94 149.151C242.007 149.151 242.107 149.151 242.174 149.151C243.078 149.118 243.413 147.912 242.308 147.912Z" fill="#6A79A8"/>
<path d="M105.081 148.516L71.3516 161.646V255.799L105.081 243.138V148.516Z" fill="#F7F7F7"/>
<path d="M104.814 148.281C94.9664 152.099 85.119 155.951 75.2715 159.769C73.8648 160.305 72.458 160.875 71.0512 161.411C69.9794 161.813 70.9842 162.081 71.6206 161.846C81.4681 158.028 91.3155 154.176 101.163 150.358C102.57 149.822 103.976 149.252 105.383 148.716C106.455 148.314 105.45 148.046 104.814 148.281Z" fill="#6A79A8"/>
<path d="M105.919 242.903C105.919 232.721 105.919 222.505 105.919 212.323C105.919 196.212 105.919 180.067 105.919 163.957C105.919 160.239 105.919 156.487 105.919 152.769C105.919 152.334 104.311 152.602 104.311 153.205C104.311 163.387 104.311 173.603 104.311 183.785C104.311 199.896 104.311 216.041 104.311 232.152C104.311 235.869 104.311 239.621 104.311 243.339C104.278 243.774 105.919 243.506 105.919 242.903Z" fill="#6A79A8"/>
<path d="M105.081 148.516L71.352 161.646L55.1741 145.904C53.6333 144.396 54.1692 141.784 56.2124 141.013L83.8789 130.63C84.9508 130.228 86.1231 130.463 86.9604 131.266L105.081 148.516Z" fill="#F2F2F2"/>
<path d="M104.21 148.85L71.3522 161.645L57.6194 148.012C56.0786 146.505 56.6145 143.893 58.6577 143.122C61.8397 141.95 65.0217 140.744 68.2372 139.572C72.9264 137.83 78.5535 134.28 83.7117 135.385C87.3961 136.189 103.842 148.481 104.21 148.85Z" fill="white"/>
<path d="M104.747 148.08C94.8995 151.899 85.0521 155.751 75.2047 159.569C73.7979 160.105 72.3911 160.674 70.9844 161.21C71.3528 161.244 71.7213 161.277 72.0562 161.277C67.9364 157.258 63.783 153.238 59.6632 149.219C58.6918 148.281 57.754 147.343 56.7827 146.406C56.1463 145.769 55.4094 145.2 55.1414 144.262C54.4045 141.515 58.022 140.812 59.8642 140.142C66.4291 137.697 72.9606 135.218 79.5255 132.773C81.0328 132.204 83.8798 130.462 85.521 131.232C86.1909 131.534 86.6933 132.17 87.2293 132.639C88.1671 133.544 89.105 134.448 90.0763 135.319C94.8325 139.807 99.5553 144.329 104.312 148.817C104.78 149.286 106.321 148.616 105.785 148.147C101.33 143.927 96.8757 139.673 92.3874 135.453C90.8132 133.946 89.2724 132.338 87.5977 130.931C85.521 129.189 83.3774 130.261 81.2337 131.065C74.3338 133.644 67.4339 136.257 60.5006 138.836C58.7923 139.472 56.7827 139.941 55.2084 140.879C53.3327 141.984 52.7968 144.396 54.2036 146.071C54.639 146.607 55.1749 147.042 55.6773 147.511C60.6345 152.334 65.5582 157.157 70.5154 161.947C70.8169 162.248 71.2523 162.148 71.5873 162.014C81.4347 158.196 91.2821 154.344 101.13 150.525C102.536 149.989 103.943 149.42 105.35 148.884C106.489 148.516 105.551 147.779 104.747 148.08Z" fill="#6A79A8"/>
<path d="M208.478 161.645H70.7148V255.798H208.478V161.645Z" fill="#F2F2F2"/>
<path d="M208.48 163.588C204.059 170.186 198.968 179.029 195.819 184.689C193.91 188.106 190.293 190.25 186.374 190.25L70.7168 190.518V255.799H208.48V163.588Z" fill="white"/>
<path d="M242.241 148.516L208.479 161.646V255.799L242.241 243.138V148.516Z" fill="#E5E5E5"/>
<path d="M242.241 179.699L231.02 184.188C227.169 185.729 222.747 184.489 220.269 181.173L208.479 165.531V255.766L242.208 243.105V179.699H242.241Z" fill="#F2F2F2"/>
<path d="M207.676 165.865C207.676 175.646 207.676 185.393 207.676 195.173C207.676 210.715 207.676 226.29 207.676 241.831C207.676 245.382 207.676 248.932 207.676 252.482C207.676 252.817 209.284 252.583 209.284 252.047C209.284 242.267 209.284 232.52 209.284 222.739C209.284 207.198 209.284 191.623 209.284 176.081C209.284 172.531 209.284 168.98 209.284 165.43C209.317 165.095 207.676 165.363 207.676 165.865Z" fill="#6A79A8"/>
<path d="M70.3812 162.047C77.4486 162.047 84.516 162.047 91.5833 162.047C107.192 162.047 122.8 162.047 138.409 162.047C154.118 162.047 169.827 162.047 185.536 162.047C190.861 162.047 196.153 162.047 201.479 162.047C203.656 162.047 205.934 162.248 208.111 162.047C209.317 161.913 210.59 161.21 211.695 160.774C214.977 159.501 218.226 158.229 221.509 156.956C228.107 154.377 234.672 151.831 241.271 149.252C241.706 149.085 242.108 148.917 242.544 148.75C243.615 148.348 242.611 147.946 241.941 148.214C236.883 150.19 231.825 152.133 226.768 154.109C220.739 156.453 214.542 158.53 208.647 161.176C207.843 161.545 208.714 161.21 208.747 161.21C208.613 161.143 208.178 161.21 208.011 161.21C206.838 161.21 205.632 161.21 204.46 161.21C199.737 161.21 195.048 161.21 190.325 161.21C175.152 161.21 159.979 161.21 144.84 161.21C128.896 161.21 112.919 161.21 96.976 161.21C88.5018 161.21 79.9607 160.975 71.4866 161.21C71.3526 161.21 71.2186 161.21 71.1181 161.21C70.5152 161.243 69.3094 162.047 70.3812 162.047Z" fill="#6A79A8"/>
<path d="M241.404 177.822C241.404 185.191 241.404 192.593 241.404 199.962C241.404 211.652 241.404 223.375 241.404 235.064C241.404 237.777 241.404 240.457 241.404 243.17C241.572 243.003 241.706 242.802 241.873 242.634C236.782 244.543 231.657 246.453 226.566 248.362C220.571 250.606 214.408 252.616 208.513 255.128C207.809 255.429 208.68 255.195 208.479 255.161C208.245 255.128 207.943 255.161 207.709 255.161C206.503 255.161 205.297 255.161 204.058 255.161C199.301 255.161 194.545 255.161 189.823 255.161C174.616 255.161 159.409 255.161 144.236 255.161C128.36 255.161 112.45 255.161 96.5735 255.161C90.8794 255.161 85.2189 255.161 79.5248 255.161C77.7161 255.161 75.9408 255.161 74.1321 255.161C73.2278 255.161 72.1225 254.994 71.2181 255.161C71.0841 255.195 70.9502 255.161 70.8497 255.161C71.0841 255.329 71.3521 255.53 71.5866 255.697C71.5866 247.96 71.5866 240.223 71.5866 232.485C71.5866 220.126 71.5866 207.8 71.5866 195.44C71.5866 192.593 71.5866 189.746 71.5866 186.899C71.5866 186.062 69.9453 186.296 69.9453 187.033C69.9453 194.77 69.9453 202.508 69.9453 210.245C69.9453 222.604 69.9453 234.93 69.9453 247.29C69.9453 250.137 69.9453 252.984 69.9453 255.831C69.9453 256.266 70.3473 256.367 70.6822 256.367C77.7496 256.367 84.8169 256.367 91.8843 256.367C107.392 256.367 122.867 256.367 138.375 256.367C154.117 256.367 169.826 256.367 185.569 256.367C190.928 256.367 196.253 256.367 201.613 256.367C203.79 256.367 206.201 256.668 208.379 256.367C209.484 256.199 210.656 255.563 211.728 255.195C214.943 253.989 218.192 252.783 221.408 251.577C228.04 249.099 234.672 246.586 241.337 244.108C241.773 243.94 242.208 243.773 242.61 243.639C242.811 243.572 243.079 243.338 243.079 243.103C243.079 235.734 243.079 228.332 243.079 220.963C243.079 209.273 243.079 197.55 243.079 185.861C243.079 183.148 243.079 180.468 243.079 177.755C243.045 176.851 241.404 177.085 241.404 177.822Z" fill="#6A79A8"/>
<path d="M208.48 161.645H70.7166L52.5626 182.646C52.0266 183.249 52.4621 184.186 53.2659 184.186H188.551C188.819 184.186 189.087 184.052 189.254 183.851L208.48 161.645Z" fill="#F2F2F2"/>
<path d="M208.479 161.645H72.0553C69.9451 165.697 67.9354 169.817 65.7248 173.803C64.3515 176.248 64.1171 180.268 68.0694 180.268H185.066C187.277 180.268 189.42 179.43 191.062 177.889L208.479 161.645Z" fill="white"/>
<path d="M208.78 161.109C202.215 161.109 195.616 161.109 189.051 161.109C174.28 161.109 159.509 161.109 144.738 161.109C129.23 161.109 113.722 161.109 98.2474 161.109C89.4718 161.109 80.6962 161.109 71.8872 161.109C71.2173 161.109 70.5809 161.042 70.0115 161.478C69.509 161.88 69.0736 162.549 68.6717 163.018C67.7338 164.124 66.796 165.196 65.8246 166.301C61.3364 171.493 56.8146 176.718 52.3263 181.909C51.355 183.015 51.1205 184.555 53.0632 184.723C53.8001 184.79 54.5705 184.723 55.3408 184.723C59.2932 184.723 63.2121 184.723 67.1644 184.723C81.1317 184.723 95.0989 184.723 109.066 184.723C124.876 184.723 140.685 184.723 156.495 184.723C166.375 184.723 176.256 184.723 186.171 184.723C186.841 184.723 187.511 184.756 188.147 184.723C189.721 184.622 190.458 183.383 191.429 182.278C196.152 176.818 200.875 171.359 205.598 165.899C206.77 164.559 207.942 163.186 209.115 161.846C209.751 161.109 208.21 160.975 207.775 161.478C203.287 166.669 198.798 171.827 194.343 177.019C192.468 179.196 190.626 181.44 188.683 183.551C188.415 183.819 189.085 183.584 188.549 183.685C188.18 183.752 187.745 183.685 187.377 183.685C175.854 183.685 164.366 183.685 152.844 183.685C134.623 183.685 116.368 183.685 98.1469 183.685C84.7156 183.685 71.2843 183.685 57.8529 183.685C56.6471 183.685 55.2738 183.852 54.1015 183.685C53.9675 183.651 53.6661 183.752 53.5321 183.685C52.4938 183.082 54.068 181.809 54.4365 181.407C59.6281 175.411 64.8198 169.416 69.978 163.42C70.4469 162.884 70.8823 162.382 71.3513 161.846C71.0163 161.947 70.7148 162.081 70.3799 162.181C74.9352 162.181 79.5239 162.181 84.0792 162.181C95.0654 162.181 106.018 162.181 117.004 162.181C130.235 162.181 143.432 162.181 156.662 162.181C168.151 162.181 179.639 162.181 191.128 162.181C196.688 162.181 202.349 162.482 207.909 162.181C207.976 162.181 208.076 162.181 208.143 162.181C208.88 162.148 209.885 161.109 208.78 161.109Z" fill="#6A79A8"/>
<path d="M242.241 148.516L208.512 161.646L227.336 179.833C227.738 180.235 228.341 180.369 228.876 180.168L259.591 168.646C260.596 168.277 260.864 166.971 260.127 166.201L242.241 148.516Z" fill="#F2F2F2"/>
<path d="M241.136 148.918L208.914 161.78L225.862 178.896C226.231 179.264 226.767 179.398 227.236 179.197C231.489 177.522 235.71 175.881 239.964 174.206C242.543 173.202 245.088 172.197 247.667 171.192C250.179 170.221 253.696 169.015 253.395 165.632C253.261 164.091 252.189 162.852 251.184 161.746C250.012 160.574 241.705 149.521 241.136 148.918Z" fill="white"/>
<path d="M241.874 148.012C232.026 151.831 222.179 155.683 212.332 159.501C210.925 160.037 209.518 160.606 208.111 161.142C207.676 161.31 207.508 161.812 207.843 162.147C212.466 166.635 217.121 171.124 221.744 175.612C223.351 177.153 224.892 178.995 226.667 180.368C228.309 181.607 230.854 180.1 232.529 179.464C239.864 176.717 247.233 173.937 254.568 171.191C256.31 170.521 258.253 170.018 259.894 169.181C263.109 167.573 259.961 165.061 258.554 163.654C253.329 158.496 248.137 153.338 242.912 148.146C242.376 147.61 240.836 148.28 241.438 148.883C245.759 153.17 250.08 157.458 254.401 161.712C255.54 162.85 256.679 163.989 257.851 165.128C258.286 165.563 258.99 166.032 259.325 166.568C260.497 168.477 256.277 169.248 255.138 169.683C248.07 172.329 241.003 174.975 233.936 177.621C232.696 178.09 231.424 178.559 230.184 179.028C229.782 179.196 228.978 179.665 228.51 179.665C227.974 179.631 227.337 178.794 226.969 178.459C225.997 177.521 224.993 176.55 224.021 175.612C219.031 170.789 214.073 165.999 209.083 161.176C208.982 161.511 208.915 161.846 208.815 162.18C218.662 158.362 228.51 154.51 238.357 150.692C239.764 150.156 241.171 149.586 242.577 149.051C243.616 148.615 242.711 147.677 241.874 148.012Z" fill="#6A79A8"/>
<path d="M197.928 186.399C197.928 191.725 197.928 197.051 197.928 202.41C197.928 203.281 199.569 203.08 199.569 202.309C199.569 196.984 199.569 191.658 199.569 186.299C199.569 185.394 197.928 185.629 197.928 186.399Z" fill="#6A79A8"/>
<path d="M197.928 205.825C197.928 206.662 197.928 207.499 197.928 208.337C197.928 209.007 199.535 208.672 199.535 208.136C199.535 207.298 199.535 206.461 199.535 205.624C199.569 204.92 197.928 205.255 197.928 205.825Z" fill="#6A79A8"/>
<path d="M197.928 211.25C197.928 213.427 197.928 215.638 197.928 217.815C197.928 218.652 199.569 218.384 199.569 217.681C199.569 215.504 199.569 213.293 199.569 211.116C199.569 210.279 197.928 210.547 197.928 211.25Z" fill="#6A79A8"/>
<path d="M215.848 235.602C220.705 234.028 225.595 232.454 230.452 230.879C231.423 230.578 231.155 229.473 230.151 229.808C225.294 231.382 220.404 232.956 215.547 234.53C214.576 234.832 214.844 235.937 215.848 235.602Z" fill="#D1D1D1"/>
<path d="M215.815 229.806C220.672 228.232 225.495 226.624 230.352 225.05C231.29 224.748 231.089 223.877 230.117 224.179C225.261 225.753 220.437 227.361 215.581 228.935C214.643 229.27 214.844 230.141 215.815 229.806Z" fill="#D1D1D1"/>
<path d="M215.815 224.179C220.638 222.571 225.462 220.963 230.285 219.389C231.223 219.088 231.055 218.317 230.084 218.652C225.261 220.26 220.438 221.868 215.614 223.442C214.676 223.743 214.844 224.514 215.815 224.179Z" fill="#D1D1D1"/>
<path d="M215.848 239.989C216.92 239.654 217.991 239.286 219.063 238.951C219.398 238.851 219.834 238.549 219.7 238.147C219.599 237.745 219.063 237.678 218.728 237.779C217.656 238.114 216.585 238.482 215.513 238.817C215.178 238.918 214.742 239.219 214.876 239.621C214.977 239.989 215.513 240.09 215.848 239.989Z" fill="#D1D1D1"/>
<path d="M221.441 237.947C222.513 237.612 223.618 237.244 224.69 236.909C224.891 236.842 225.494 236.641 225.393 236.339C225.326 236.038 224.69 236.138 224.489 236.205C223.417 236.54 222.312 236.909 221.24 237.244C221.039 237.311 220.436 237.512 220.537 237.813C220.637 238.114 221.273 238.014 221.441 237.947Z" fill="#D1D1D1"/>
<path d="M227.202 236.204C228.307 235.869 229.379 235.501 230.484 235.166C230.752 235.099 231.255 234.864 231.188 234.496C231.087 234.161 230.518 234.194 230.25 234.261C229.144 234.596 228.073 234.965 226.967 235.3C226.699 235.367 226.197 235.601 226.264 235.97C226.364 236.305 226.934 236.271 227.202 236.204Z" fill="#D1D1D1"/>
<path d="M121.661 231.986C125.982 226.962 133.083 224.081 139.547 223.813C144.471 223.612 149.428 224.751 153.749 227.096C155.423 228 157.668 229.507 158.773 230.613C159.309 231.149 160.85 230.479 160.247 229.876C156.83 226.426 151.873 224.249 147.217 223.244C139.346 221.502 131.106 223.244 124.508 227.866C123.001 228.905 121.493 230.11 120.321 231.517C119.651 232.254 121.158 232.589 121.661 231.986Z" fill="#6A79A8"/>
<path d="M127.222 211.486C127.523 212.86 126.786 214.266 125.547 214.601C124.308 214.936 123.068 214.132 122.733 212.759C122.432 211.386 123.169 209.979 124.408 209.644C125.647 209.309 126.887 210.113 127.222 211.486Z" fill="#6A79A8"/>
<path d="M156.831 215.572C158.107 215.572 159.142 214.418 159.142 212.993C159.142 211.569 158.107 210.414 156.831 210.414C155.554 210.414 154.52 211.569 154.52 212.993C154.52 214.418 155.554 215.572 156.831 215.572Z" fill="#6A79A8"/>
<path d="M171.567 152.501C164.165 153.406 156.193 154.377 149.126 151.296C143.264 148.75 138.374 143.357 138.776 136.625C139.178 129.625 144.269 124.165 150.432 121.452C157.231 118.437 165.069 118.102 172.304 119.61C175.754 120.313 179.907 121.351 182.788 123.495C185.199 125.304 186.137 128.486 183.826 130.73C182.118 132.371 179.572 133.108 177.362 133.744C175.017 134.381 172.673 134.984 170.294 135.386C158.136 137.496 144.37 135.486 134.824 127.146C130.101 122.993 126.818 116.897 126.785 110.499C126.751 103.968 130.436 98.0392 135.393 94.0198C145.274 85.9811 159.04 83.67 171.433 83.6365C177.563 83.603 183.692 84.1389 189.721 85.1103C192.937 85.6127 196.32 86.1151 199.301 87.5219C202.315 88.9622 205.363 91.9432 204.559 95.5941C203.789 99.044 199.837 100.149 196.889 100.987C193.071 102.092 189.118 102.628 185.166 102.795C177.73 103.13 170.16 102.561 162.758 101.657C155.791 100.786 148.791 99.513 142.058 97.4363C137.168 95.929 132.312 93.9529 128.225 90.8714C124.206 87.8568 121.158 83.804 119.785 78.9473C118.277 73.4876 118.679 67.4586 120.722 62.2C124.775 51.7831 134.991 45.3522 145.073 41.7348C158.772 36.7776 173.845 35.0693 188.348 35.9737C195.784 36.4426 203.153 37.6819 210.354 39.5911C214.038 40.5624 217.656 41.7013 221.206 43.1415C224.154 44.3138 227.135 45.6536 228.642 48.6681C231.523 54.4292 225.795 59.8553 221.24 62.4344C216.215 65.2815 210.354 66.9562 204.794 68.3965C197.392 70.3727 189.755 71.1095 182.118 71.5115C174.85 71.9134 167.548 72.1479 160.246 72.0474C146.212 71.8129 131.809 70.0377 119.115 63.7072C108.095 58.1806 97.2426 46.9599 99.9892 33.5286C101.295 27.1981 106.018 21.705 110.908 17.6856C115.966 13.5323 121.861 10.5848 127.991 8.37413C140.618 3.81886 154.217 2.24461 167.548 1.47424C182.453 0.603377 197.325 1.30676 212.029 3.85236C219.431 5.15864 226.766 6.86687 233.968 9.01052C234.437 9.1445 235.877 8.44112 235.274 8.27364C219.33 3.5509 202.784 0.804345 186.171 0.301926C171.299 -0.133504 156.026 0.871334 141.456 3.88585C128.225 6.63241 114.358 11.5226 105.08 21.8055C100.525 26.8632 97.4101 33.0262 98.147 39.9595C98.8504 46.6585 102.401 52.721 107.258 57.2428C118.11 67.3246 134.02 71.0425 148.355 72.2818C156.059 72.9517 163.796 72.9517 171.5 72.7173C179.706 72.4493 187.98 72.1814 196.119 70.9086C202.952 69.8367 209.651 67.961 216.115 65.5494C221.34 63.6067 226.867 60.8267 229.714 55.8025C231.188 53.2569 231.523 50.3764 230.015 47.7638C228.408 44.9502 225.627 43.6105 222.747 42.4381C215.445 39.4571 207.641 37.4809 199.837 36.2416C183.994 33.7295 167.648 34.6004 152.14 38.6867C140.819 41.7013 128.795 46.7589 121.962 56.8073C115.564 66.2193 115.196 79.9186 123.268 88.4597C127.086 92.4791 132.144 95.0917 137.302 96.9674C143.7 99.312 150.466 100.752 157.198 101.791C165.337 103.063 173.711 103.767 181.951 103.666C185.769 103.633 189.621 103.331 193.372 102.561C196.655 101.891 200.272 101.02 203.119 99.2115C205.363 97.8047 206.67 95.3596 206.033 92.6466C205.263 89.4981 202.349 87.4214 199.502 86.2826C196.387 85.0433 192.97 84.5744 189.654 84.0719C186.405 83.5695 183.123 83.2346 179.84 83.0001C166.744 82.0958 152.877 83.2681 141.02 89.3306C135.259 92.2781 129.967 96.4314 127.086 102.36C124.105 108.523 124.708 115.557 128.091 121.418C134.824 133.041 149.695 137.362 162.39 136.926C166.911 136.792 192.099 134.213 185.97 124.6C184.128 121.686 180.041 120.548 176.926 119.643C173.443 118.605 169.892 118.002 166.275 117.868C159.342 117.6 151.939 119.007 146.044 122.825C140.652 126.309 136.599 132.304 137.202 138.97C137.805 145.568 143.298 150.425 149.226 152.568C156.294 155.114 164.064 154.176 171.333 153.305C172.07 153.238 172.673 152.367 171.567 152.501Z" fill="#EE5922"/>
</svg>
