<svg width="153" height="229" viewBox="0 0 153 229" fill="none" xmlns="http://www.w3.org/2000/svg">
<path d="M46.8293 146.454C47.0271 154.536 48.0919 162.634 49.324 170.641C51.8642 187.064 55.53 203.321 58.8765 219.623C59.2872 221.598 59.637 223.649 60.793 225.366C61.9491 227.083 64.0482 228.405 66.1473 228.101C69.1591 227.66 70.5129 224.409 71.2886 221.644C75.1827 207.605 77.7533 193.172 80.0806 178.799C82.636 163.029 86.5605 147.669 81.2062 131.792C78.955 125.123 75.137 118.453 68.7028 114.898C62.5271 111.48 52.1228 111.95 48.3657 118.347C44.0762 125.67 46.6316 138.386 46.8293 146.454Z" fill="#C9CCDB"/>
<path d="M65.5234 228.754C63.3178 228.754 61.3556 227.296 60.2908 225.701C59.15 223.999 58.7545 222.039 58.359 220.14L58.2829 219.745C51.94 188.827 43.7108 146.561 45.5513 136.518C45.6122 136.184 45.9316 135.971 46.2662 136.032C46.6009 136.093 46.8138 136.412 46.753 136.746C44.7451 147.715 55.4537 199.873 59.4846 219.517L59.5607 219.912C59.9257 221.69 60.2908 223.543 61.3099 225.047C62.6485 227.038 64.6716 227.721 66.071 227.524C68.1853 227.22 69.6608 225.306 70.7103 221.507C74.7565 206.922 79.4262 181.033 81.6166 164.427C81.6623 164.093 81.9665 163.865 82.3011 163.896C82.6358 163.941 82.8639 164.245 82.8183 164.579C80.6279 181.231 75.9429 207.196 71.8816 221.826C71.121 224.546 69.7216 228.223 66.2535 228.724C65.9949 228.739 65.7515 228.754 65.5234 228.754Z" fill="#637080"/>
<path d="M103.566 185.516C113.681 196.926 125.059 206.512 136.452 216.57C139.205 219.001 145.046 222.48 147.343 217.36C148.757 214.215 143.966 207.53 142.08 204.4C136.756 195.528 130.291 187.172 127.614 176.992C124.755 166.114 123.887 154.856 121.758 143.841C120.83 139.01 120.45 134.239 117.438 130.152C114.715 126.445 110.684 123.695 106.228 122.51C98.9871 120.566 91.0013 122.526 84.8713 126.825C81.2358 129.378 78.1176 132.796 76.4748 136.929C72.6872 146.53 79.7299 154.537 84.9321 161.967C90.6971 170.14 96.9184 178.025 103.566 185.516Z" fill="#C9CCDB"/>
<path d="M143.572 220.611C140.286 220.611 136.773 217.663 136.043 217.025C134.461 215.628 132.848 214.215 131.297 212.847C121.288 204.066 111.842 195.77 103.111 185.91C93.0106 174.531 83.8688 162.209 75.9439 149.326C75.7614 149.037 75.8526 148.672 76.1416 148.49C76.4307 148.308 76.7957 148.399 76.9783 148.687C84.8728 161.526 93.9689 173.771 104.023 185.105C112.709 194.889 122.125 203.169 132.103 211.936C133.654 213.303 135.267 214.716 136.849 216.114C138.872 217.907 142.051 219.806 144.363 219.32C145.428 219.092 146.234 218.362 146.797 217.117C147.877 214.716 144.546 209.444 142.553 206.299C142.188 205.722 141.853 205.19 141.579 204.719C140.363 202.698 139.07 200.647 137.807 198.687C133.548 192.003 129.137 185.09 127.053 177.159C125.334 170.596 124.376 164.184 123.372 157.378C122.429 151.058 121.47 144.509 119.812 137.581C119.736 137.247 119.934 136.928 120.254 136.852C120.588 136.776 120.908 136.974 120.984 137.308C122.657 144.282 123.63 150.86 124.573 157.211C125.577 163.972 126.52 170.353 128.224 176.855C130.262 184.604 134.613 191.44 138.826 198.034C140.089 200.009 141.397 202.06 142.614 204.096C142.888 204.537 143.222 205.084 143.572 205.646C145.823 209.216 149.246 214.625 147.892 217.618C147.162 219.228 146.067 220.201 144.606 220.52C144.272 220.581 143.922 220.611 143.572 220.611Z" fill="#637080"/>
<path d="M61.8578 20.2461C63.7136 21.1881 65.5389 22.1604 67.3642 23.1632C83.4118 32.0207 98.562 43.5977 108.723 59.0793C113.773 66.7822 117.454 75.3662 119.386 84.3756C120.648 90.2553 119.416 92.7013 116.42 97.9125C113.697 102.622 110.609 107.18 106.639 110.933C100.631 116.6 92.8578 120.17 84.8112 121.993C76.7494 123.817 68.3986 123.938 60.1694 123.33C54.1611 122.89 48.1071 122.024 42.5551 119.699C37.003 117.375 31.953 113.425 29.2759 108.031C24.819 99.052 29.4888 91.3188 34.7062 84.0262C38.4785 78.7694 43.346 74.485 44.3043 67.7849C45.2322 61.1912 42.3725 54.9013 37.3225 50.6776C31.6792 45.9678 24.5148 44.0991 18.7651 39.4652C11.2508 33.4032 7.66103 24.0748 15.4643 16.6758C28.2415 4.55181 48.7155 13.546 61.8578 20.2461Z" fill="white"/>
<path d="M52.6848 64.6247C50.9659 64.6247 49.2623 64.4879 47.5587 64.2145C47.224 64.1537 46.9959 63.8498 47.0567 63.5156C47.1176 63.1813 47.4218 62.9534 47.7564 63.0142C55.6966 64.2904 64.0474 62.4217 70.6794 57.8638C77.3114 53.3059 82.042 46.1956 83.6848 38.3257C83.7609 37.9914 84.0803 37.7939 84.3997 37.8547C84.7344 37.9306 84.9473 38.2497 84.8713 38.5687C83.1676 46.7274 78.2393 54.1263 71.3639 58.8513C65.9031 62.6192 59.3016 64.6247 52.6848 64.6247Z" fill="#637080"/>
<path d="M43.2852 45.8163C44.8063 44.2514 46.3274 42.6713 47.8485 41.1065C48.3504 40.5899 51.3774 45.6036 49.9172 47.366C47.9549 49.7513 44.6085 47.761 43.2852 45.8163Z" fill="#637080"/>
<path d="M31.8463 40.4226C31.3139 43.3092 30.3404 46.1807 29.5038 48.961C29.0779 50.3588 25.6098 57.5754 26.1726 58.5782C20.0425 47.6088 5.56166 42.4736 1.50033 30.5775C-0.811746 23.8015 1.02878 15.9619 5.53124 10.4013C10.0337 4.84067 16.9395 1.46784 24.043 0.510681C28.7432 -0.127423 33.7629 0.29798 37.7786 2.78962C41.7943 5.28127 44.4258 9.59607 45.6731 14.154C46.9052 18.6511 46.9204 23.4065 46.6009 28.0251C46.5249 23.8015 40.4405 20.7781 36.8203 20.6565C33.5347 20.5502 30.3404 21.6593 27.2526 22.7532C31.8311 26.9464 32.8806 33.1603 32.0744 39.0704C31.9984 39.5262 31.9375 39.982 31.8463 40.4226Z" fill="#EE5922"/>
<path d="M31.5261 139.952C31.4349 139.952 31.3436 139.937 31.2676 139.891C22.5364 135.759 22.2779 121.28 22.8863 113.015C23.6164 103.124 27.5409 92.96 34.2033 83.6619C34.401 83.3884 34.7813 83.3276 35.0551 83.5251C35.3289 83.7226 35.3897 84.1025 35.192 84.376C28.6513 93.5069 24.8181 103.443 24.1032 113.121C23.5099 121.067 23.7229 134.984 31.7847 138.797C32.089 138.934 32.2106 139.298 32.0737 139.602C31.9673 139.815 31.7543 139.952 31.5261 139.952Z" fill="#637080"/>
<path d="M8.468 134.649H145.048C148.835 134.649 151.893 131.58 151.893 127.812V94.2353C151.893 90.4522 148.835 87.3984 145.048 87.3984H8.468C4.68046 87.3984 1.62305 90.4522 1.62305 94.2353V127.812C1.62305 131.595 4.68046 134.649 8.468 134.649Z" fill="white"/>
<path d="M73.893 103.94C76.1022 103.94 77.893 105.731 77.893 107.94V116.688C77.893 117.51 77.2264 118.177 76.404 118.177C75.5817 118.177 74.915 117.51 74.915 116.688V109.267C74.915 107.676 73.6253 106.387 72.0344 106.387C70.4435 106.387 69.1538 107.676 69.1538 109.267V116.688C69.1538 117.51 68.4871 118.177 67.6648 118.177C66.8424 118.177 66.1758 117.51 66.1758 116.688V107.94C66.1758 105.731 67.9666 103.94 70.1758 103.94H73.893Z" fill="#C9CCDB"/>
<path d="M93.8564 111.058C93.8564 112.611 93.5618 113.932 92.9727 115.021C92.3883 116.11 91.5904 116.942 90.5792 117.517C89.5726 118.087 88.4408 118.372 87.1837 118.372C85.9173 118.372 84.7809 118.084 83.7743 117.51C82.7677 116.935 81.9722 116.103 81.3877 115.014C80.8032 113.925 80.511 112.606 80.511 111.058C80.511 109.506 80.8032 108.185 81.3877 107.096C81.9722 106.007 82.7677 105.177 83.7743 104.607C84.7809 104.032 85.9173 103.745 87.1837 103.745C88.4408 103.745 89.5726 104.032 90.5792 104.607C91.5904 105.177 92.3883 106.007 92.9727 107.096C93.5618 108.185 93.8564 109.506 93.8564 111.058ZM90.8018 111.058C90.8018 110.053 90.6511 109.205 90.3496 108.514C90.0527 107.823 89.6329 107.3 89.0902 106.943C88.5474 106.586 87.912 106.408 87.1837 106.408C86.4554 106.408 85.8199 106.586 85.2772 106.943C84.7345 107.3 84.3124 107.823 84.0108 108.514C83.714 109.205 83.5655 110.053 83.5655 111.058C83.5655 112.064 83.714 112.912 84.0108 113.603C84.3124 114.293 84.7345 114.817 85.2772 115.174C85.8199 115.531 86.4554 115.709 87.1837 115.709C87.912 115.709 88.5474 115.531 89.0902 115.174C89.6329 114.817 90.0527 114.293 90.3496 113.603C90.6511 112.912 90.8018 112.064 90.8018 111.058Z" fill="#C9CCDB"/>
<path d="M96.0882 105.443C96.0882 104.613 96.7611 103.94 97.5911 103.94C98.4211 103.94 99.094 104.613 99.094 105.443V112.816C99.094 112.859 99.1287 112.894 99.1715 112.894C99.1971 112.894 99.2209 112.881 99.2354 112.86L104.855 104.689C105.178 104.22 105.71 103.94 106.279 103.94C107.233 103.94 108.007 104.713 108.007 105.668V116.671C108.007 117.502 107.333 118.177 106.501 118.177C105.669 118.177 104.994 117.502 104.994 116.671V109.285C104.994 109.247 104.964 109.216 104.926 109.216C104.903 109.216 104.882 109.227 104.87 109.246L99.2078 117.438C98.8882 117.901 98.3619 118.177 97.7997 118.177C96.8545 118.177 96.0882 117.411 96.0882 116.465V105.443Z" fill="#C9CCDB"/>
<path d="M122.654 107.261C122.999 108.108 122.265 108.924 121.35 108.924H121.132C120.495 108.924 119.993 108.43 119.681 107.874C119.509 107.564 119.289 107.3 119.02 107.082C118.751 106.864 118.44 106.697 118.088 106.581C117.74 106.466 117.362 106.408 116.953 106.408C116.216 106.408 115.573 106.591 115.026 106.957C114.479 107.318 114.054 107.847 113.753 108.542C113.451 109.232 113.3 110.071 113.3 111.058C113.3 112.073 113.451 112.926 113.753 113.617C114.059 114.307 114.486 114.829 115.033 115.181C115.58 115.533 116.214 115.709 116.933 115.709C117.336 115.709 117.71 115.656 118.053 115.549C118.401 115.443 118.709 115.287 118.978 115.083C119.247 114.875 119.47 114.622 119.646 114.326C119.974 113.788 120.481 113.313 121.11 113.316L121.324 113.317C122.254 113.321 122.981 114.153 122.587 114.995C122.553 115.069 122.516 115.142 122.478 115.215C122.167 115.818 121.747 116.358 121.219 116.835C120.695 117.308 120.068 117.683 119.34 117.961C118.616 118.235 117.798 118.372 116.884 118.372C115.613 118.372 114.476 118.084 113.474 117.51C112.477 116.935 111.689 116.103 111.109 115.014C110.534 113.925 110.246 112.606 110.246 111.058C110.246 109.506 110.538 108.185 111.123 107.096C111.707 106.007 112.5 105.177 113.502 104.607C114.504 104.032 115.631 103.745 116.884 103.745C117.71 103.745 118.475 103.861 119.18 104.093C119.89 104.324 120.518 104.663 121.066 105.108C121.613 105.548 122.058 106.088 122.402 106.727C122.495 106.899 122.579 107.076 122.654 107.261Z" fill="#C9CCDB"/>
<path d="M134.59 118.177C134.125 118.177 133.686 117.958 133.406 117.587L129.479 112.381C129.349 112.209 129.146 112.108 128.93 112.108C128.55 112.108 128.243 112.416 128.243 112.795V116.671C128.243 117.502 127.568 118.177 126.736 118.177C125.904 118.177 125.23 117.502 125.23 116.671V105.446C125.23 104.614 125.904 103.94 126.736 103.94C127.568 103.94 128.243 104.614 128.243 105.446V109.214C128.243 109.442 128.427 109.626 128.655 109.626C128.777 109.626 128.893 109.572 128.972 109.478L133.15 104.456C133.422 104.129 133.826 103.94 134.251 103.94C135.469 103.94 136.132 105.363 135.347 106.295L133.28 108.75C132.398 109.799 132.361 111.319 133.191 112.409L135.771 115.793C136.515 116.77 135.819 118.177 134.59 118.177Z" fill="#C9CCDB"/>
<path d="M8.55784 134.634H53.7497V87.3838H8.55784C4.7703 87.3838 1.71289 90.4376 1.71289 94.2206V127.797C1.71289 131.58 4.78551 134.634 8.55784 134.634Z" fill="#EE5922"/>
<path d="M53.7647 132.917C53.43 132.917 53.1562 132.644 53.1562 132.31V90.1946C53.1562 89.8604 53.43 89.5869 53.7647 89.5869C54.0993 89.5869 54.3731 89.8604 54.3731 90.1946V132.31C54.3731 132.644 54.0993 132.917 53.7647 132.917Z" fill="#637080"/>
<path d="M31.465 115.217C26.5518 115.627 22.2319 111.966 21.8212 107.059C21.4105 102.151 25.0763 97.8365 29.9895 97.4263C34.9027 97.0161 39.2226 100.678 39.6333 105.585C40.0288 110.492 36.3781 114.807 31.465 115.217ZM13.7594 125.974C14.0027 126.171 14.307 126.263 14.596 126.232C14.885 126.202 15.174 126.08 15.3717 125.837L24.0724 115.567C26.202 117.101 28.8639 117.906 31.6627 117.679C37.9296 117.162 42.5994 111.647 42.067 105.387C41.5499 99.1279 36.0283 94.4637 29.7613 94.9954C23.4944 95.512 18.8246 101.027 19.357 107.287C19.5548 109.687 20.4978 111.844 21.9277 113.576L22.3688 114.047L13.6073 124.379C13.2118 124.85 13.2726 125.564 13.7594 125.974Z" fill="white"/>
<path d="M8.46706 87.9918C5.02938 87.9918 2.23055 90.7873 2.23055 94.2209V127.797C2.23055 131.231 5.02938 134.026 8.46706 134.026H145.047C148.484 134.026 151.283 131.231 151.283 127.797V94.2209C151.283 90.7873 148.484 87.9918 145.047 87.9918H8.46706ZM145.047 135.242H8.46706C4.36009 135.242 1.01367 131.899 1.01367 127.797V94.2209C1.01367 90.1188 4.36009 86.7764 8.46706 86.7764H145.047C149.154 86.7764 152.5 90.1188 152.5 94.2209V127.797C152.5 131.915 149.154 135.242 145.047 135.242Z" fill="#637080"/>
<path d="M101.148 140.56C100.387 140.56 99.6418 140.453 98.9421 140.225C96.3714 139.39 94.6069 136.944 94.8351 134.498C94.8655 134.163 95.1545 133.92 95.4892 133.951C95.8238 133.981 96.0672 134.27 96.0368 134.604C95.8694 136.457 97.2993 138.417 99.3071 139.055C101.117 139.633 103.308 139.298 105.331 138.113C111.689 134.361 114.914 126.704 117.469 118.97C120.101 110.994 120.998 102.319 120.116 93.1879C117.287 63.4553 97.5883 39.1009 61.5838 20.7782C46.5554 13.1362 27.785 5.81318 15.8748 17.1167C12.9695 19.8819 11.5701 23.0116 11.707 26.43C11.8743 30.7448 14.597 35.3179 19.1451 38.9946C21.9135 41.228 25.0926 42.8536 28.1805 44.4185C31.4204 46.0745 34.7821 47.7761 37.7026 50.2222C43.1329 54.7497 45.8252 61.3586 44.8974 67.8764C44.152 73.1028 41.0642 76.9466 38.0676 80.6841C37.1093 81.8843 36.1054 83.1149 35.1927 84.3911C34.995 84.6646 34.6147 84.7254 34.3409 84.5279C34.0671 84.3304 34.0063 83.9505 34.204 83.6771C35.1319 82.3705 36.1358 81.1247 37.1093 79.9244C40.1363 76.1566 42.996 72.6014 43.6805 67.7093C44.5475 61.6017 42.0073 55.4182 36.9116 51.1642C34.0823 48.8092 30.7968 47.138 27.6177 45.5124C24.4842 43.9171 21.2443 42.2763 18.3694 39.9517C13.5475 36.0624 10.6574 31.155 10.4749 26.4908C10.3228 22.7533 11.9047 19.2134 15.023 16.2507C20.7879 10.7813 28.7281 8.95812 38.6304 10.8117C47.0877 12.4069 55.6363 16.4027 62.1314 19.6995C98.5314 38.2198 118.443 62.8931 121.333 93.0815C122.215 102.395 121.317 111.237 118.625 119.365C116.009 127.311 112.647 135.212 105.954 139.177C104.403 140.089 102.73 140.56 101.148 140.56Z" fill="#637080"/>
<path d="M35.1171 140.787C33.8394 140.787 32.5312 140.498 31.2687 139.891C30.9645 139.754 30.8428 139.389 30.9797 139.085C31.1166 138.782 31.4816 138.66 31.7859 138.797C34.8281 140.24 38.1289 139.632 40.3649 137.202C41.8403 135.606 42.464 134.072 42.3423 132.355C42.3119 132.021 42.5705 131.732 42.9051 131.702C43.2398 131.671 43.5288 131.93 43.5592 132.264C43.7113 134.345 42.9812 136.168 41.2623 138.022C39.5739 139.845 37.3987 140.787 35.1171 140.787Z" fill="#637080"/>
</svg>
