<svg width="1103" height="597" viewBox="0 0 1103 597" fill="none" xmlns="http://www.w3.org/2000/svg">
<rect width="1103" height="597" fill="white"/>
<path d="M521.829 287.454C522.027 295.536 523.092 303.634 524.324 311.641C526.864 328.064 530.53 344.321 533.876 360.623C534.287 362.598 534.637 364.649 535.793 366.366C536.949 368.083 539.048 369.405 541.147 369.101C544.159 368.66 545.513 365.409 546.289 362.644C550.183 348.605 552.753 334.172 555.081 319.799C557.636 304.029 561.56 288.669 556.206 272.792C553.955 266.123 550.137 259.453 543.703 255.898C537.527 252.48 527.123 252.95 523.366 259.347C519.076 266.67 521.632 279.386 521.829 287.454Z" fill="#C9CCDB"/>
<path d="M540.523 369.754C538.318 369.754 536.356 368.296 535.291 366.701C534.15 364.999 533.754 363.039 533.359 361.14L533.283 360.745C526.94 329.827 518.711 287.561 520.551 277.518C520.612 277.184 520.932 276.971 521.266 277.032C521.601 277.093 521.814 277.412 521.753 277.746C519.745 288.715 530.454 340.873 534.485 360.517L534.561 360.912C534.926 362.69 535.291 364.543 536.31 366.047C537.648 368.038 539.672 368.721 541.071 368.524C543.185 368.22 544.661 366.306 545.71 362.507C549.756 347.922 554.426 322.033 556.617 305.427C556.662 305.093 556.966 304.865 557.301 304.896C557.636 304.941 557.864 305.245 557.818 305.579C555.628 322.231 550.943 348.196 546.882 362.826C546.121 365.546 544.722 369.223 541.254 369.724C540.995 369.739 540.752 369.754 540.523 369.754Z" fill="#637080"/>
<path d="M578.566 326.516C588.681 337.926 600.059 347.512 611.452 357.57C614.205 360.001 620.046 363.48 622.343 358.36C623.757 355.215 618.966 348.53 617.08 345.4C611.756 336.528 605.291 328.172 602.614 317.992C599.755 307.114 598.887 295.856 596.758 284.841C595.83 280.01 595.45 275.239 592.438 271.152C589.715 267.445 585.684 264.695 581.228 263.51C573.987 261.566 566.001 263.526 559.871 267.825C556.236 270.378 553.118 273.796 551.475 277.929C547.687 287.53 554.73 295.537 559.932 302.967C565.697 311.14 571.918 319.025 578.566 326.516Z" fill="#C9CCDB"/>
<path d="M618.572 361.611C615.286 361.611 611.773 358.663 611.043 358.025C609.461 356.628 607.848 355.215 606.297 353.847C596.288 345.066 586.842 336.77 578.111 326.91C568.011 315.531 558.869 303.209 550.944 290.326C550.761 290.037 550.853 289.672 551.142 289.49C551.431 289.308 551.796 289.399 551.978 289.687C559.873 302.526 568.969 314.771 579.023 326.105C587.709 335.889 597.125 344.169 607.103 352.936C608.654 354.303 610.267 355.716 611.849 357.114C613.872 358.907 617.051 360.806 619.363 360.32C620.428 360.092 621.234 359.362 621.797 358.117C622.877 355.716 619.546 350.444 617.553 347.299C617.188 346.722 616.853 346.19 616.579 345.719C615.363 343.698 614.07 341.647 612.807 339.687C608.548 333.003 604.137 326.09 602.053 318.159C600.334 311.596 599.376 305.184 598.372 298.378C597.429 292.058 596.47 285.509 594.812 278.581C594.736 278.247 594.934 277.928 595.254 277.852C595.588 277.776 595.908 277.974 595.984 278.308C597.657 285.282 598.63 291.86 599.573 298.211C600.577 304.972 601.52 311.353 603.224 317.855C605.262 325.604 609.613 332.44 613.826 339.034C615.089 341.009 616.397 343.06 617.614 345.096C617.888 345.537 618.222 346.084 618.572 346.646C620.823 350.216 624.246 355.625 622.892 358.618C622.162 360.228 621.067 361.201 619.606 361.52C619.272 361.581 618.922 361.611 618.572 361.611Z" fill="#637080"/>
<path d="M536.858 161.246C538.714 162.188 540.539 163.16 542.364 164.163C558.412 173.021 573.562 184.598 583.723 200.079C588.773 207.782 592.454 216.366 594.386 225.376C595.648 231.255 594.416 233.701 591.42 238.913C588.697 243.622 585.609 248.18 581.639 251.933C575.631 257.6 567.858 261.17 559.811 262.993C551.749 264.817 543.399 264.938 535.169 264.33C529.161 263.89 523.107 263.024 517.555 260.699C512.003 258.375 506.953 254.425 504.276 249.031C499.819 240.052 504.489 232.319 509.706 225.026C513.479 219.769 518.346 215.485 519.304 208.785C520.232 202.191 517.373 195.901 512.322 191.678C506.679 186.968 499.515 185.099 493.765 180.465C486.251 174.403 482.661 165.075 490.464 157.676C503.242 145.552 523.716 154.546 536.858 161.246Z" fill="white"/>
<path d="M527.685 205.625C525.966 205.625 524.262 205.488 522.559 205.214C522.224 205.154 521.996 204.85 522.057 204.516C522.118 204.181 522.422 203.953 522.756 204.014C530.697 205.29 539.047 203.422 545.679 198.864C552.311 194.306 557.042 187.196 558.685 179.326C558.761 178.991 559.08 178.794 559.4 178.855C559.734 178.931 559.947 179.25 559.871 179.569C558.168 187.727 553.239 195.126 546.364 199.851C540.903 203.619 534.302 205.625 527.685 205.625Z" fill="#637080"/>
<path d="M518.285 186.816C519.806 185.251 521.327 183.671 522.848 182.106C523.35 181.59 526.377 186.604 524.917 188.366C522.955 190.751 519.609 188.761 518.285 186.816Z" fill="#637080"/>
<path d="M506.846 181.423C506.314 184.309 505.34 187.181 504.504 189.961C504.078 191.359 500.61 198.575 501.173 199.578C495.043 188.609 480.562 183.474 476.5 171.578C474.188 164.801 476.029 156.962 480.531 151.401C485.034 145.841 491.939 142.468 499.043 141.511C503.743 140.873 508.763 141.298 512.779 143.79C516.794 146.281 519.426 150.596 520.673 155.154C521.905 159.651 521.92 164.406 521.601 169.025C521.525 164.801 515.44 161.778 511.82 161.657C508.535 161.55 505.34 162.659 502.253 163.753C506.831 167.946 507.881 174.16 507.074 180.07C506.998 180.526 506.938 180.982 506.846 181.423Z" fill="#EE5922"/>
<path d="M506.526 280.952C506.435 280.952 506.344 280.937 506.268 280.891C497.536 276.759 497.278 262.28 497.886 254.015C498.616 244.124 502.541 233.96 509.203 224.662C509.401 224.388 509.781 224.328 510.055 224.525C510.329 224.723 510.39 225.102 510.192 225.376C503.651 234.507 499.818 244.443 499.103 254.121C498.51 262.067 498.723 275.984 506.785 279.797C507.089 279.934 507.211 280.298 507.074 280.602C506.967 280.815 506.754 280.952 506.526 280.952Z" fill="#637080"/>
<path d="M483.468 275.649H620.048C623.835 275.649 626.893 272.58 626.893 268.812V235.235C626.893 231.452 623.835 228.398 620.048 228.398H483.468C479.68 228.398 476.623 231.452 476.623 235.235V268.812C476.623 272.595 479.68 275.649 483.468 275.649Z" fill="white"/>
<path d="M548.893 244.94C551.102 244.94 552.893 246.731 552.893 248.94V257.688C552.893 258.51 552.226 259.177 551.404 259.177C550.582 259.177 549.915 258.51 549.915 257.688V250.267C549.915 248.676 548.625 247.387 547.034 247.387C545.443 247.387 544.154 248.676 544.154 250.267V257.688C544.154 258.51 543.487 259.177 542.665 259.177C541.842 259.177 541.176 258.51 541.176 257.688V248.94C541.176 246.731 542.967 244.94 545.176 244.94H548.893Z" fill="#C9CCDB"/>
<path d="M568.856 252.058C568.856 253.611 568.562 254.932 567.973 256.021C567.388 257.11 566.59 257.942 565.579 258.517C564.573 259.087 563.441 259.372 562.184 259.372C560.917 259.372 559.781 259.084 558.774 258.51C557.768 257.935 556.972 257.103 556.388 256.014C555.803 254.925 555.511 253.606 555.511 252.058C555.511 250.506 555.803 249.185 556.388 248.096C556.972 247.007 557.768 246.177 558.774 245.607C559.781 245.032 560.917 244.745 562.184 244.745C563.441 244.745 564.573 245.032 565.579 245.607C566.59 246.177 567.388 247.007 567.973 248.096C568.562 249.185 568.856 250.506 568.856 252.058ZM565.802 252.058C565.802 251.053 565.651 250.205 565.35 249.514C565.053 248.823 564.633 248.3 564.09 247.943C563.547 247.586 562.912 247.408 562.184 247.408C561.455 247.408 560.82 247.586 560.277 247.943C559.734 248.3 559.312 248.823 559.011 249.514C558.714 250.205 558.566 251.053 558.566 252.058C558.566 253.064 558.714 253.912 559.011 254.603C559.312 255.293 559.734 255.817 560.277 256.174C560.82 256.531 561.455 256.709 562.184 256.709C562.912 256.709 563.547 256.531 564.09 256.174C564.633 255.817 565.053 255.293 565.35 254.603C565.651 253.912 565.802 253.064 565.802 252.058Z" fill="#C9CCDB"/>
<path d="M571.088 246.443C571.088 245.613 571.761 244.94 572.591 244.94C573.421 244.94 574.094 245.613 574.094 246.443V253.816C574.094 253.859 574.129 253.894 574.172 253.894C574.197 253.894 574.221 253.881 574.235 253.86L579.855 245.689C580.178 245.22 580.71 244.94 581.279 244.94C582.233 244.94 583.007 245.713 583.007 246.668V257.671C583.007 258.502 582.333 259.177 581.501 259.177C580.669 259.177 579.994 258.502 579.994 257.671V250.285C579.994 250.247 579.964 250.216 579.926 250.216C579.903 250.216 579.882 250.227 579.87 250.246L574.208 258.438C573.888 258.901 573.362 259.177 572.8 259.177C571.854 259.177 571.088 258.411 571.088 257.465V246.443Z" fill="#C9CCDB"/>
<path d="M597.654 248.261C597.999 249.108 597.265 249.924 596.35 249.924H596.132C595.495 249.924 594.993 249.43 594.681 248.874C594.509 248.564 594.289 248.3 594.02 248.082C593.751 247.864 593.44 247.697 593.088 247.581C592.74 247.466 592.362 247.408 591.953 247.408C591.216 247.408 590.573 247.591 590.026 247.957C589.479 248.318 589.054 248.847 588.753 249.542C588.451 250.232 588.3 251.071 588.3 252.058C588.3 253.073 588.451 253.926 588.753 254.617C589.059 255.307 589.486 255.829 590.033 256.181C590.58 256.533 591.214 256.709 591.933 256.709C592.336 256.709 592.71 256.656 593.053 256.549C593.401 256.443 593.709 256.287 593.978 256.083C594.247 255.875 594.47 255.622 594.646 255.326C594.974 254.788 595.481 254.313 596.11 254.316L596.324 254.317C597.254 254.321 597.981 255.153 597.587 255.995C597.553 256.069 597.516 256.142 597.478 256.215C597.167 256.818 596.747 257.358 596.219 257.835C595.695 258.308 595.068 258.683 594.34 258.961C593.616 259.235 592.798 259.372 591.884 259.372C590.613 259.372 589.476 259.084 588.474 258.51C587.477 257.935 586.689 257.103 586.109 256.014C585.534 254.925 585.246 253.606 585.246 252.058C585.246 250.506 585.538 249.185 586.123 248.096C586.707 247.007 587.5 246.177 588.502 245.607C589.504 245.032 590.631 244.745 591.884 244.745C592.71 244.745 593.475 244.861 594.18 245.093C594.89 245.324 595.518 245.663 596.066 246.108C596.613 246.548 597.058 247.088 597.402 247.727C597.495 247.899 597.579 248.076 597.654 248.261Z" fill="#C9CCDB"/>
<path d="M609.59 259.177C609.125 259.177 608.686 258.958 608.406 258.587L604.479 253.381C604.349 253.209 604.146 253.108 603.93 253.108C603.55 253.108 603.243 253.416 603.243 253.795V257.671C603.243 258.502 602.568 259.177 601.736 259.177C600.904 259.177 600.23 258.502 600.23 257.671V246.446C600.23 245.614 600.904 244.94 601.736 244.94C602.568 244.94 603.243 245.614 603.243 246.446V250.214C603.243 250.442 603.427 250.626 603.655 250.626C603.777 250.626 603.893 250.572 603.972 250.478L608.15 245.456C608.422 245.129 608.826 244.94 609.251 244.94C610.469 244.94 611.132 246.363 610.347 247.295L608.28 249.75C607.398 250.799 607.361 252.319 608.191 253.409L610.771 256.793C611.515 257.77 610.819 259.177 609.59 259.177Z" fill="#C9CCDB"/>
<path d="M483.558 275.634H528.75V228.384H483.558C479.77 228.384 476.713 231.438 476.713 235.221V268.797C476.713 272.58 479.786 275.634 483.558 275.634Z" fill="#EE5922"/>
<path d="M528.765 273.917C528.43 273.917 528.156 273.644 528.156 273.31V231.195C528.156 230.86 528.43 230.587 528.765 230.587C529.099 230.587 529.373 230.86 529.373 231.195V273.31C529.373 273.644 529.099 273.917 528.765 273.917Z" fill="#637080"/>
<path d="M506.465 256.217C501.552 256.627 497.232 252.966 496.821 248.059C496.41 243.151 500.076 238.836 504.99 238.426C509.903 238.016 514.223 241.678 514.633 246.585C515.029 251.492 511.378 255.807 506.465 256.217ZM488.759 266.974C489.003 267.171 489.307 267.263 489.596 267.232C489.885 267.202 490.174 267.08 490.372 266.837L499.072 256.567C501.202 258.101 503.864 258.906 506.663 258.679C512.93 258.162 517.599 252.647 517.067 246.387C516.55 240.128 511.028 235.464 504.761 235.995C498.494 236.512 493.825 242.027 494.357 248.287C494.555 250.687 495.498 252.844 496.928 254.576L497.369 255.047L488.607 265.379C488.212 265.85 488.273 266.564 488.759 266.974Z" fill="white"/>
<path d="M483.467 228.992C480.029 228.992 477.231 231.787 477.231 235.221V268.797C477.231 272.231 480.029 275.026 483.467 275.026H620.047C623.484 275.026 626.283 272.231 626.283 268.797V235.221C626.283 231.787 623.484 228.992 620.047 228.992H483.467ZM620.047 276.242H483.467C479.36 276.242 476.014 272.899 476.014 268.797V235.221C476.014 231.119 479.36 227.776 483.467 227.776H620.047C624.154 227.776 627.5 231.119 627.5 235.221V268.797C627.5 272.915 624.154 276.242 620.047 276.242Z" fill="#637080"/>
<path d="M576.148 281.56C575.387 281.56 574.642 281.453 573.942 281.225C571.371 280.39 569.607 277.944 569.835 275.498C569.866 275.163 570.155 274.92 570.489 274.951C570.824 274.981 571.067 275.27 571.037 275.604C570.869 277.457 572.299 279.417 574.307 280.055C576.117 280.633 578.308 280.298 580.331 279.113C586.689 275.361 589.914 267.704 592.469 259.97C595.101 251.994 595.998 243.319 595.116 234.188C592.287 204.455 572.588 180.101 536.584 161.778C521.555 154.136 502.785 146.813 490.875 158.117C487.969 160.882 486.57 164.012 486.707 167.43C486.874 171.745 489.597 176.318 494.145 179.995C496.914 182.228 500.093 183.854 503.18 185.418C506.42 187.075 509.782 188.776 512.703 191.222C518.133 195.75 520.825 202.359 519.897 208.876C519.152 214.103 516.064 217.947 513.068 221.684C512.109 222.884 511.105 224.115 510.193 225.391C509.995 225.665 509.615 225.725 509.341 225.528C509.067 225.33 509.006 224.951 509.204 224.677C510.132 223.37 511.136 222.125 512.109 220.924C515.136 217.157 517.996 213.601 518.68 208.709C519.548 202.602 517.007 196.418 511.912 192.164C509.082 189.809 505.797 188.138 502.618 186.512C499.484 184.917 496.244 183.276 493.369 180.952C488.547 177.062 485.657 172.155 485.475 167.491C485.323 163.753 486.905 160.213 490.023 157.251C495.788 151.781 503.728 149.958 513.63 151.812C522.088 153.407 530.636 157.403 537.131 160.7C573.531 179.22 593.443 203.893 596.333 234.082C597.215 243.395 596.317 252.237 593.625 260.365C591.009 268.311 587.647 276.212 580.954 280.177C579.403 281.089 577.73 281.56 576.148 281.56Z" fill="#637080"/>
<path d="M510.117 281.787C508.839 281.787 507.531 281.498 506.269 280.891C505.964 280.754 505.843 280.389 505.98 280.085C506.117 279.782 506.482 279.66 506.786 279.797C509.828 281.24 513.129 280.632 515.365 278.202C516.84 276.606 517.464 275.072 517.342 273.355C517.312 273.021 517.57 272.732 517.905 272.702C518.24 272.671 518.529 272.93 518.559 273.264C518.711 275.345 517.981 277.168 516.262 279.022C514.574 280.845 512.399 281.787 510.117 281.787Z" fill="#637080"/>
<path d="M476.394 392.754V381.118H478.854V385.919H483.849V381.118H486.303V392.754H483.849V387.947H478.854V392.754H476.394ZM490.599 389.561L493.741 384.027H496.127V392.754H493.82V387.203L490.69 392.754H488.286V384.027H490.599V389.561ZM505.641 384.027V392.754H503.346V384.027H505.641ZM504.522 387.856V389.765C504.336 389.849 504.105 389.928 503.829 390.004C503.552 390.076 503.263 390.135 502.96 390.18C502.656 390.225 502.372 390.248 502.107 390.248C500.853 390.248 499.867 389.991 499.147 389.475C498.427 388.957 498.067 388.129 498.067 386.993V384.015H500.352V386.993C500.352 387.33 500.408 387.597 500.522 387.794C500.639 387.991 500.825 388.133 501.079 388.22C501.336 388.303 501.679 388.345 502.107 388.345C502.505 388.345 502.895 388.303 503.278 388.22C503.66 388.136 504.075 388.015 504.522 387.856ZM511.498 392.924C510.6 392.924 509.827 392.743 509.18 392.379C508.536 392.011 508.04 391.493 507.691 390.822C507.343 390.148 507.168 389.35 507.168 388.43C507.168 387.532 507.343 386.744 507.691 386.066C508.04 385.388 508.53 384.86 509.163 384.481C509.799 384.102 510.545 383.913 511.401 383.913C511.977 383.913 512.513 384.006 513.009 384.191C513.509 384.373 513.945 384.648 514.316 385.015C514.691 385.383 514.983 385.845 515.191 386.402C515.399 386.955 515.504 387.602 515.504 388.345V389.01H508.134V387.51H513.225C513.225 387.161 513.149 386.852 512.998 386.583C512.846 386.315 512.636 386.104 512.367 385.953C512.102 385.797 511.793 385.72 511.441 385.72C511.074 385.72 510.748 385.805 510.464 385.975C510.183 386.142 509.964 386.368 509.805 386.652C509.646 386.932 509.564 387.244 509.56 387.589V389.015C509.56 389.447 509.64 389.82 509.799 390.135C509.962 390.449 510.191 390.691 510.487 390.862C510.782 391.032 511.132 391.118 511.538 391.118C511.807 391.118 512.053 391.08 512.276 391.004C512.5 390.928 512.691 390.815 512.85 390.663C513.009 390.511 513.13 390.326 513.214 390.106L515.452 390.254C515.339 390.792 515.106 391.261 514.754 391.663C514.405 392.061 513.954 392.371 513.401 392.595C512.852 392.815 512.218 392.924 511.498 392.924ZM523.06 384.027V385.93H519.435V392.754H517.083V384.027H523.06ZM528.167 392.924C527.284 392.924 526.521 392.737 525.877 392.362C525.237 391.983 524.743 391.457 524.394 390.782C524.046 390.104 523.871 389.318 523.871 388.424C523.871 387.523 524.046 386.735 524.394 386.061C524.743 385.383 525.237 384.856 525.877 384.481C526.521 384.102 527.284 383.913 528.167 383.913C529.049 383.913 529.811 384.102 530.451 384.481C531.095 384.856 531.591 385.383 531.94 386.061C532.288 386.735 532.462 387.523 532.462 388.424C532.462 389.318 532.288 390.104 531.94 390.782C531.591 391.457 531.095 391.983 530.451 392.362C529.811 392.737 529.049 392.924 528.167 392.924ZM528.178 391.049C528.58 391.049 528.915 390.936 529.184 390.708C529.453 390.477 529.656 390.163 529.792 389.765C529.932 389.368 530.002 388.915 530.002 388.407C530.002 387.9 529.932 387.447 529.792 387.049C529.656 386.652 529.453 386.337 529.184 386.106C528.915 385.875 528.58 385.76 528.178 385.76C527.773 385.76 527.432 385.875 527.156 386.106C526.883 386.337 526.676 386.652 526.536 387.049C526.4 387.447 526.332 387.9 526.332 388.407C526.332 388.915 526.4 389.368 526.536 389.765C526.676 390.163 526.883 390.477 527.156 390.708C527.432 390.936 527.773 391.049 528.178 391.049ZM543.813 387.424V389.328H539.256V387.424H543.813ZM540.052 384.027V392.754H537.739V384.027H540.052ZM545.33 384.027V392.754H543.035V384.027H545.33ZM551.185 392.924C550.288 392.924 549.515 392.743 548.867 392.379C548.223 392.011 547.727 391.493 547.379 390.822C547.03 390.148 546.856 389.35 546.856 388.43C546.856 387.532 547.03 386.744 547.379 386.066C547.727 385.388 548.218 384.86 548.85 384.481C549.487 384.102 550.233 383.913 551.089 383.913C551.665 383.913 552.201 384.006 552.697 384.191C553.197 384.373 553.632 384.648 554.004 385.015C554.379 385.383 554.67 385.845 554.879 386.402C555.087 386.955 555.191 387.602 555.191 388.345V389.01H547.822V387.51H552.913C552.913 387.161 552.837 386.852 552.685 386.583C552.534 386.315 552.324 386.104 552.055 385.953C551.79 385.797 551.481 385.72 551.129 385.72C550.761 385.72 550.435 385.805 550.151 385.975C549.871 386.142 549.651 386.368 549.492 386.652C549.333 386.932 549.252 387.244 549.248 387.589V389.015C549.248 389.447 549.327 389.82 549.487 390.135C549.649 390.449 549.879 390.691 550.174 390.862C550.469 391.032 550.82 391.118 551.225 391.118C551.494 391.118 551.74 391.08 551.964 391.004C552.187 390.928 552.379 390.815 552.538 390.663C552.697 390.511 552.818 390.326 552.901 390.106L555.14 390.254C555.026 390.792 554.793 391.261 554.441 391.663C554.093 392.061 553.642 392.371 553.089 392.595C552.54 392.815 551.905 392.924 551.185 392.924ZM566.548 387.424V389.328H561.991V387.424H566.548ZM562.786 384.027V392.754H560.474V384.027H562.786ZM568.065 384.027V392.754H565.769V384.027H568.065ZM572.431 392.919C571.874 392.919 571.378 392.822 570.942 392.629C570.507 392.432 570.162 392.142 569.908 391.76C569.658 391.373 569.533 390.892 569.533 390.316C569.533 389.832 569.622 389.424 569.8 389.095C569.978 388.765 570.221 388.5 570.528 388.299C570.835 388.099 571.183 387.947 571.573 387.845C571.967 387.743 572.38 387.671 572.812 387.629C573.319 387.576 573.728 387.527 574.039 387.481C574.35 387.432 574.575 387.36 574.715 387.265C574.855 387.171 574.925 387.03 574.925 386.845V386.811C574.925 386.451 574.812 386.172 574.585 385.975C574.361 385.779 574.043 385.68 573.63 385.68C573.194 385.68 572.848 385.777 572.59 385.97C572.333 386.159 572.162 386.398 572.079 386.686L569.84 386.504C569.954 385.974 570.177 385.515 570.511 385.129C570.844 384.739 571.274 384.44 571.8 384.231C572.331 384.019 572.944 383.913 573.641 383.913C574.126 383.913 574.59 383.97 575.033 384.083C575.48 384.197 575.876 384.373 576.221 384.612C576.569 384.85 576.844 385.157 577.045 385.532C577.246 385.904 577.346 386.349 577.346 386.868V392.754H575.05V391.544H574.982C574.842 391.816 574.655 392.057 574.42 392.265C574.185 392.47 573.903 392.631 573.573 392.748C573.244 392.862 572.863 392.919 572.431 392.919ZM573.124 391.248C573.48 391.248 573.795 391.178 574.067 391.038C574.34 390.894 574.554 390.701 574.71 390.458C574.865 390.216 574.942 389.941 574.942 389.635V388.708C574.867 388.758 574.763 388.803 574.63 388.845C574.501 388.883 574.355 388.919 574.192 388.953C574.03 388.983 573.867 389.011 573.704 389.038C573.541 389.061 573.393 389.082 573.261 389.1C572.977 389.142 572.728 389.208 572.516 389.299C572.304 389.39 572.139 389.513 572.022 389.669C571.905 389.82 571.846 390.01 571.846 390.237C571.846 390.566 571.965 390.818 572.204 390.993C572.446 391.163 572.753 391.248 573.124 391.248ZM581.536 389.561L584.678 384.027H587.065V392.754H584.758V387.203L581.627 392.754H579.224V384.027H581.536V389.561ZM584.263 380.981H585.951C585.947 381.671 585.692 382.225 585.184 382.646C584.68 383.066 583.998 383.277 583.138 383.277C582.275 383.277 581.591 383.066 581.087 382.646C580.584 382.225 580.332 381.671 580.332 380.981H582.008C582.004 381.243 582.087 381.477 582.258 381.686C582.432 381.894 582.726 381.998 583.138 381.998C583.54 381.998 583.828 381.896 584.002 381.691C584.176 381.487 584.263 381.25 584.263 380.981ZM588.323 395.311V390.833H588.994C589.187 390.712 589.342 390.519 589.46 390.254C589.581 389.989 589.679 389.676 589.755 389.316C589.835 388.957 589.895 388.568 589.937 388.152C589.982 387.731 590.022 387.307 590.056 386.879L590.283 384.027H596.977V390.833H598.329V395.311H596.022V392.754H590.687V395.311H588.323ZM591.403 390.833H594.692V385.89H592.34L592.249 386.879C592.185 387.811 592.092 388.602 591.971 389.254C591.85 389.902 591.66 390.428 591.403 390.833ZM603.717 392.924C602.819 392.924 602.046 392.743 601.398 392.379C600.754 392.011 600.258 391.493 599.91 390.822C599.561 390.148 599.387 389.35 599.387 388.43C599.387 387.532 599.561 386.744 599.91 386.066C600.258 385.388 600.749 384.86 601.381 384.481C602.018 384.102 602.764 383.913 603.62 383.913C604.196 383.913 604.732 384.006 605.228 384.191C605.728 384.373 606.164 384.648 606.535 385.015C606.91 385.383 607.201 385.845 607.41 386.402C607.618 386.955 607.722 387.602 607.722 388.345V389.01H600.353V387.51H605.444C605.444 387.161 605.368 386.852 605.217 386.583C605.065 386.315 604.855 386.104 604.586 385.953C604.321 385.797 604.012 385.72 603.66 385.72C603.292 385.72 602.967 385.805 602.683 385.975C602.402 386.142 602.183 386.368 602.023 386.652C601.864 386.932 601.783 387.244 601.779 387.589V389.015C601.779 389.447 601.859 389.82 602.018 390.135C602.181 390.449 602.41 390.691 602.705 390.862C603.001 391.032 603.351 391.118 603.756 391.118C604.025 391.118 604.272 391.08 604.495 391.004C604.719 390.928 604.91 390.815 605.069 390.663C605.228 390.511 605.349 390.326 605.433 390.106L607.671 390.254C607.558 390.792 607.325 391.261 606.972 391.663C606.624 392.061 606.173 392.371 605.62 392.595C605.071 392.815 604.436 392.924 603.717 392.924ZM615.376 387.424V389.328H610.819V387.424H615.376ZM611.614 384.027V392.754H609.302V384.027H611.614ZM616.893 384.027V392.754H614.597V384.027H616.893ZM622.714 392.924C621.831 392.924 621.068 392.737 620.424 392.362C619.784 391.983 619.29 391.457 618.941 390.782C618.593 390.104 618.418 389.318 618.418 388.424C618.418 387.523 618.593 386.735 618.941 386.061C619.29 385.383 619.784 384.856 620.424 384.481C621.068 384.102 621.831 383.913 622.714 383.913C623.596 383.913 624.358 384.102 624.998 384.481C625.642 384.856 626.138 385.383 626.487 386.061C626.835 386.735 627.009 387.523 627.009 388.424C627.009 389.318 626.835 390.104 626.487 390.782C626.138 391.457 625.642 391.983 624.998 392.362C624.358 392.737 623.596 392.924 622.714 392.924ZM622.725 391.049C623.127 391.049 623.462 390.936 623.731 390.708C624 390.477 624.202 390.163 624.339 389.765C624.479 389.368 624.549 388.915 624.549 388.407C624.549 387.9 624.479 387.447 624.339 387.049C624.202 386.652 624 386.337 623.731 386.106C623.462 385.875 623.127 385.76 622.725 385.76C622.32 385.76 621.979 385.875 621.702 386.106C621.43 386.337 621.223 386.652 621.083 387.049C620.947 387.447 620.879 387.9 620.879 388.407C620.879 388.915 620.947 389.368 621.083 389.765C621.223 390.163 621.43 390.477 621.702 390.708C621.979 390.936 622.32 391.049 622.725 391.049Z" fill="black"/>
<path d="M457.768 408.572V418.754H456.843V409.407H451.36V418.754H450.43V408.572H457.768ZM463.187 418.913C462.528 418.913 461.944 418.746 461.437 418.411C460.933 418.076 460.539 417.614 460.254 417.024C459.969 416.431 459.826 415.746 459.826 414.971C459.826 414.188 459.969 413.501 460.254 412.907C460.539 412.311 460.933 411.847 461.437 411.515C461.944 411.181 462.528 411.013 463.187 411.013C463.847 411.013 464.428 411.181 464.932 411.515C465.436 411.85 465.83 412.314 466.115 412.907C466.404 413.501 466.548 414.188 466.548 414.971C466.548 415.746 466.405 416.431 466.12 417.024C465.835 417.614 465.439 418.076 464.932 418.411C464.428 418.746 463.847 418.913 463.187 418.913ZM463.187 418.103C463.717 418.103 464.167 417.96 464.534 417.675C464.902 417.39 465.181 417.011 465.37 416.537C465.562 416.063 465.658 415.541 465.658 414.971C465.658 414.4 465.562 413.877 465.37 413.4C465.181 412.922 464.902 412.539 464.534 412.251C464.167 411.963 463.717 411.819 463.187 411.819C462.66 411.819 462.211 411.963 461.84 412.251C461.472 412.539 461.192 412.922 461 413.4C460.811 413.877 460.716 414.4 460.716 414.971C460.716 415.541 460.811 416.063 461 416.537C461.192 417.011 461.472 417.39 461.84 417.675C462.208 417.96 462.657 418.103 463.187 418.103ZM472.428 418.754V411.118H475.436C476.248 411.118 476.888 411.293 477.355 411.645C477.826 411.996 478.061 412.47 478.061 413.066C478.061 413.52 477.93 413.883 477.668 414.155C477.406 414.427 477.055 414.619 476.614 414.732C476.909 414.782 477.183 414.889 477.434 415.055C477.69 415.221 477.897 415.44 478.056 415.711C478.215 415.983 478.295 416.308 478.295 416.686C478.295 417.083 478.195 417.438 477.996 417.75C477.797 418.061 477.517 418.306 477.156 418.485C476.795 418.664 476.367 418.754 475.873 418.754H472.428ZM473.273 417.934H475.873C476.341 417.934 476.71 417.814 476.982 417.576C477.254 417.334 477.39 417.012 477.39 416.611C477.39 416.184 477.26 415.842 477.002 415.587C476.747 415.328 476.404 415.199 475.973 415.199H473.273V417.934ZM473.273 414.414H475.491C475.835 414.414 476.134 414.361 476.385 414.255C476.637 414.149 476.831 413.999 476.967 413.807C477.106 413.612 477.174 413.383 477.171 413.121C477.171 412.747 477.019 412.457 476.714 412.251C476.409 412.042 475.983 411.938 475.436 411.938H473.273V414.414ZM482.368 418.928C481.907 418.928 481.486 418.838 481.105 418.659C480.724 418.477 480.42 418.215 480.195 417.874C479.97 417.529 479.857 417.112 479.857 416.621C479.857 416.243 479.928 415.925 480.071 415.667C480.213 415.408 480.415 415.196 480.677 415.03C480.939 414.864 481.249 414.734 481.607 414.637C481.965 414.541 482.359 414.467 482.79 414.414C483.218 414.361 483.579 414.314 483.874 414.275C484.172 414.235 484.399 414.172 484.555 414.086C484.711 413.999 484.789 413.86 484.789 413.668V413.489C484.789 412.969 484.633 412.559 484.321 412.261C484.013 411.959 483.569 411.809 482.989 411.809C482.439 411.809 481.99 411.93 481.642 412.172C481.297 412.413 481.055 412.699 480.916 413.027L480.076 412.723C480.248 412.306 480.487 411.973 480.792 411.724C481.096 411.472 481.438 411.292 481.816 411.182C482.194 411.069 482.576 411.013 482.964 411.013C483.256 411.013 483.559 411.051 483.874 411.127C484.192 411.204 484.487 411.336 484.759 411.525C485.031 411.711 485.251 411.971 485.42 412.306C485.589 412.637 485.674 413.058 485.674 413.569V418.754H484.789V417.546H484.734C484.628 417.771 484.471 417.99 484.262 418.202C484.053 418.414 483.791 418.588 483.476 418.724C483.161 418.86 482.792 418.928 482.368 418.928ZM482.487 418.118C482.958 418.118 483.365 418.013 483.71 417.804C484.055 417.596 484.32 417.319 484.505 416.974C484.694 416.626 484.789 416.243 484.789 415.826V414.722C484.722 414.785 484.611 414.841 484.456 414.891C484.303 414.941 484.126 414.985 483.924 415.025C483.725 415.062 483.526 415.093 483.327 415.12C483.128 415.146 482.949 415.169 482.79 415.189C482.359 415.242 481.991 415.325 481.686 415.438C481.382 415.551 481.148 415.706 480.985 415.905C480.823 416.101 480.742 416.353 480.742 416.661C480.742 417.125 480.908 417.484 481.239 417.74C481.57 417.992 481.986 418.118 482.487 418.118ZM488.028 411.118H488.913V417.919H492.045V411.118H492.93V417.919H496.062V411.118H496.947V418.754H488.028V411.118ZM502.381 418.913C501.668 418.913 501.052 418.747 500.531 418.416C500.011 418.081 499.608 417.619 499.323 417.029C499.041 416.435 498.901 415.753 498.901 414.98C498.901 414.212 499.041 413.529 499.323 412.932C499.608 412.332 500.001 411.863 500.501 411.525C501.005 411.184 501.587 411.013 502.246 411.013C502.661 411.013 503.06 411.089 503.445 411.242C503.829 411.391 504.174 411.621 504.479 411.933C504.787 412.241 505.031 412.631 505.21 413.101C505.388 413.569 505.478 414.122 505.478 414.762V415.199H499.512V414.419H504.573C504.573 413.928 504.474 413.487 504.275 413.096C504.079 412.702 503.806 412.39 503.455 412.162C503.107 411.933 502.704 411.819 502.246 411.819C501.763 411.819 501.337 411.948 500.969 412.206C500.601 412.465 500.313 412.806 500.104 413.23C499.898 413.655 499.794 414.119 499.79 414.623V415.09C499.79 415.696 499.895 416.227 500.104 416.681C500.316 417.132 500.616 417.481 501.004 417.73C501.391 417.978 501.85 418.103 502.381 418.103C502.742 418.103 503.058 418.046 503.33 417.934C503.605 417.821 503.836 417.67 504.021 417.481C504.21 417.289 504.353 417.078 504.449 416.85L505.289 417.123C505.173 417.445 504.982 417.741 504.717 418.013C504.455 418.285 504.127 418.504 503.733 418.669C503.342 418.832 502.891 418.913 502.381 418.913ZM511.42 417.516L514.289 411.118H515.149L511.773 418.754H511.067L507.731 411.118H508.577L511.42 417.516ZM508.313 411.118V418.754H507.428V411.118H508.313ZM514.528 418.754V411.118H515.412V418.754H514.528ZM518.107 421.618C517.931 421.618 517.767 421.601 517.615 421.568C517.462 421.535 517.341 421.498 517.252 421.458L517.491 420.678C517.792 420.771 518.061 420.804 518.296 420.777C518.531 420.754 518.74 420.648 518.922 420.459C519.105 420.274 519.267 419.989 519.41 419.604L519.688 418.828L516.879 411.118H517.839L520.106 417.586H520.175L522.442 411.118H523.402L520.17 419.962C520.034 420.33 519.867 420.636 519.668 420.882C519.469 421.13 519.239 421.314 518.977 421.434C518.719 421.556 518.429 421.618 518.107 421.618ZM528.578 416.805H529.518C529.545 417.213 529.72 417.531 530.045 417.76C530.37 417.988 530.797 418.103 531.328 418.103C531.878 418.103 532.332 417.98 532.69 417.735C533.048 417.486 533.227 417.125 533.227 416.651C533.227 416.363 533.159 416.112 533.023 415.9C532.891 415.688 532.708 415.522 532.476 415.403C532.248 415.28 531.987 415.217 531.696 415.214H530.363V414.404H531.681C532.135 414.377 532.48 414.255 532.715 414.036C532.95 413.814 533.068 413.524 533.068 413.166C533.068 412.758 532.924 412.432 532.635 412.186C532.347 411.938 531.956 411.814 531.462 411.814C530.962 411.814 530.546 411.936 530.214 412.181C529.883 412.427 529.707 412.742 529.687 413.126H528.757C528.774 412.712 528.898 412.347 529.13 412.032C529.362 411.714 529.676 411.466 530.07 411.287C530.468 411.108 530.918 411.018 531.422 411.018C531.939 411.018 532.388 411.111 532.77 411.297C533.151 411.482 533.446 411.736 533.654 412.057C533.863 412.375 533.968 412.737 533.968 413.141C533.968 413.562 533.852 413.908 533.62 414.18C533.391 414.449 533.098 414.637 532.74 414.747V414.821C533.011 414.851 533.25 414.951 533.456 415.12C533.664 415.289 533.828 415.506 533.948 415.771C534.067 416.036 534.127 416.329 534.127 416.651C534.127 417.102 534.009 417.498 533.774 417.839C533.538 418.177 533.21 418.441 532.789 418.63C532.372 418.819 531.89 418.913 531.343 418.913C530.816 418.913 530.347 418.825 529.936 418.65C529.525 418.471 529.198 418.224 528.956 417.909C528.718 417.591 528.592 417.223 528.578 416.805ZM538.08 418.928C537.62 418.928 537.199 418.838 536.818 418.659C536.436 418.477 536.133 418.215 535.908 417.874C535.682 417.529 535.57 417.112 535.57 416.621C535.57 416.243 535.641 415.925 535.784 415.667C535.926 415.408 536.128 415.196 536.39 415.03C536.652 414.864 536.962 414.734 537.32 414.637C537.678 414.541 538.072 414.467 538.503 414.414C538.931 414.361 539.292 414.314 539.587 414.275C539.885 414.235 540.112 414.172 540.268 414.086C540.424 413.999 540.502 413.86 540.502 413.668V413.489C540.502 412.969 540.346 412.559 540.034 412.261C539.726 411.959 539.282 411.809 538.702 411.809C538.152 411.809 537.703 411.93 537.355 412.172C537.01 412.413 536.768 412.699 536.629 413.027L535.789 412.723C535.961 412.306 536.2 411.973 536.504 411.724C536.809 411.472 537.151 411.292 537.529 411.182C537.906 411.069 538.289 411.013 538.677 411.013C538.969 411.013 539.272 411.051 539.587 411.127C539.905 411.204 540.2 411.336 540.472 411.525C540.744 411.711 540.964 411.971 541.133 412.306C541.302 412.637 541.387 413.058 541.387 413.569V418.754H540.502V417.546H540.447C540.341 417.771 540.183 417.99 539.975 418.202C539.766 418.414 539.504 418.588 539.189 418.724C538.874 418.86 538.505 418.928 538.08 418.928ZM538.2 418.118C538.67 418.118 539.078 418.013 539.423 417.804C539.767 417.596 540.033 417.319 540.218 416.974C540.407 416.626 540.502 416.243 540.502 415.826V414.722C540.435 414.785 540.324 414.841 540.169 414.891C540.016 414.941 539.839 414.985 539.637 415.025C539.438 415.062 539.239 415.093 539.04 415.12C538.841 415.146 538.662 415.169 538.503 415.189C538.072 415.242 537.704 415.325 537.399 415.438C537.094 415.551 536.861 415.706 536.698 415.905C536.536 416.101 536.455 416.353 536.455 416.661C536.455 417.125 536.62 417.484 536.952 417.74C537.283 417.992 537.699 418.118 538.2 418.118ZM543.751 418.754V411.118H549.532V418.754H548.643V411.953H544.64V418.754H543.751ZM551.875 421.618V411.118H552.735V412.574H552.84C552.946 412.346 553.092 412.112 553.277 411.873C553.463 411.631 553.708 411.427 554.013 411.262C554.321 411.096 554.709 411.013 555.176 411.013C555.806 411.013 556.356 411.179 556.827 411.51C557.301 411.838 557.669 412.299 557.931 412.892C558.196 413.482 558.328 414.17 558.328 414.956C558.328 415.744 558.196 416.435 557.931 417.029C557.669 417.622 557.301 418.084 556.827 418.416C556.356 418.747 555.81 418.913 555.186 418.913C554.726 418.913 554.34 418.83 554.028 418.664C553.72 418.499 553.47 418.295 553.277 418.053C553.088 417.808 552.943 417.569 552.84 417.337H552.76V421.618H551.875ZM552.75 414.941C552.75 415.557 552.842 416.104 553.024 416.581C553.209 417.055 553.475 417.428 553.819 417.7C554.167 417.968 554.588 418.103 555.082 418.103C555.589 418.103 556.017 417.963 556.365 417.685C556.716 417.403 556.983 417.024 557.165 416.547C557.351 416.069 557.444 415.534 557.444 414.941C557.444 414.354 557.352 413.825 557.17 413.355C556.991 412.884 556.726 412.511 556.375 412.236C556.023 411.958 555.592 411.819 555.082 411.819C554.585 411.819 554.162 411.953 553.814 412.221C553.466 412.486 553.201 412.854 553.019 413.325C552.84 413.792 552.75 414.331 552.75 414.941ZM563.238 418.913C562.578 418.913 561.995 418.746 561.488 418.411C560.984 418.076 560.59 417.614 560.305 417.024C560.02 416.431 559.877 415.746 559.877 414.971C559.877 414.188 560.02 413.501 560.305 412.907C560.59 412.311 560.984 411.847 561.488 411.515C561.995 411.181 562.578 411.013 563.238 411.013C563.897 411.013 564.479 411.181 564.983 411.515C565.487 411.85 565.881 412.314 566.166 412.907C566.455 413.501 566.599 414.188 566.599 414.971C566.599 415.746 566.456 416.431 566.171 417.024C565.886 417.614 565.49 418.076 564.983 418.411C564.479 418.746 563.897 418.913 563.238 418.913ZM563.238 418.103C563.768 418.103 564.217 417.96 564.585 417.675C564.953 417.39 565.232 417.011 565.42 416.537C565.613 416.063 565.709 415.541 565.709 414.971C565.709 414.4 565.613 413.877 565.42 413.4C565.232 412.922 564.953 412.539 564.585 412.251C564.217 411.963 563.768 411.819 563.238 411.819C562.711 411.819 562.262 411.963 561.891 412.251C561.523 412.539 561.243 412.922 561.05 413.4C560.862 413.877 560.767 414.4 560.767 414.971C560.767 415.541 560.862 416.063 561.05 416.537C561.243 417.011 561.523 417.39 561.891 417.675C562.259 417.96 562.708 418.103 563.238 418.103ZM571.524 418.913C570.842 418.913 570.247 418.742 569.74 418.401C569.236 418.06 568.845 417.592 568.566 416.999C568.288 416.406 568.149 415.73 568.149 414.971C568.149 414.205 568.289 413.524 568.571 412.927C568.856 412.331 569.251 411.863 569.754 411.525C570.258 411.184 570.843 411.013 571.509 411.013C572.02 411.013 572.482 411.113 572.896 411.311C573.311 411.507 573.652 411.784 573.921 412.142C574.192 412.496 574.363 412.911 574.433 413.385H573.538C573.445 412.954 573.221 412.586 572.867 412.281C572.515 411.973 572.068 411.819 571.524 411.819C571.037 411.819 570.606 411.951 570.232 412.216C569.857 412.478 569.564 412.844 569.352 413.315C569.143 413.782 569.039 414.324 569.039 414.941C569.039 415.56 569.141 416.109 569.347 416.586C569.552 417.06 569.841 417.431 570.212 417.7C570.586 417.968 571.024 418.103 571.524 418.103C571.862 418.103 572.171 418.04 572.449 417.914C572.731 417.784 572.966 417.602 573.155 417.367C573.347 417.132 573.477 416.851 573.543 416.527H574.438C574.371 416.987 574.207 417.398 573.945 417.76C573.687 418.118 573.351 418.399 572.936 418.605C572.525 418.81 572.055 418.913 571.524 418.913ZM576.951 421.618C576.775 421.618 576.611 421.601 576.459 421.568C576.306 421.535 576.185 421.498 576.096 421.458L576.334 420.678C576.636 420.771 576.904 420.804 577.14 420.777C577.375 420.754 577.584 420.648 577.766 420.459C577.948 420.274 578.111 419.989 578.253 419.604L578.532 418.828L575.723 411.118H576.682L578.949 417.586H579.019L581.286 411.118H582.246L579.014 419.962C578.878 420.33 578.711 420.636 578.512 420.882C578.313 421.13 578.083 421.314 577.821 421.434C577.562 421.556 577.272 421.618 576.951 421.618ZM593.07 414.523V415.358H588.581V414.523H593.07ZM588.799 411.118V418.754H587.914V411.118H588.799ZM593.721 411.118V418.754H592.836V411.118H593.721ZM596.961 417.496L600.993 411.118H602.052V418.754H601.167V412.375L597.15 418.754H596.077V411.118H596.961V417.496ZM610.022 411.118V418.754H609.132V411.118H610.022ZM609.694 414.891V415.736C609.392 415.846 609.105 415.938 608.834 416.015C608.562 416.087 608.288 416.144 608.013 416.184C607.742 416.223 607.452 416.243 607.143 416.243C606.285 416.24 605.61 416.02 605.12 415.582C604.633 415.145 604.389 414.478 604.389 413.583V411.093H605.274V413.583C605.274 414.008 605.35 414.354 605.503 414.623C605.655 414.891 605.871 415.09 606.149 415.219C606.427 415.345 606.756 415.408 607.133 415.408C607.597 415.408 608.035 415.362 608.446 415.269C608.857 415.176 609.273 415.05 609.694 414.891ZM615.461 418.913C614.748 418.913 614.132 418.747 613.611 418.416C613.091 418.081 612.688 417.619 612.403 417.029C612.122 416.435 611.981 415.753 611.981 414.98C611.981 414.212 612.122 413.529 612.403 412.932C612.688 412.332 613.081 411.863 613.581 411.525C614.085 411.184 614.667 411.013 615.327 411.013C615.741 411.013 616.14 411.089 616.525 411.242C616.909 411.391 617.254 411.621 617.559 411.933C617.867 412.241 618.111 412.631 618.29 413.101C618.469 413.569 618.558 414.122 618.558 414.762V415.199H612.592V414.419H617.653C617.653 413.928 617.554 413.487 617.355 413.096C617.159 412.702 616.886 412.39 616.535 412.162C616.187 411.933 615.784 411.819 615.327 411.819C614.843 411.819 614.417 411.948 614.049 412.206C613.681 412.465 613.393 412.806 613.184 413.23C612.978 413.655 612.874 414.119 612.871 414.623V415.09C612.871 415.696 612.975 416.227 613.184 416.681C613.396 417.132 613.696 417.481 614.084 417.73C614.471 417.978 614.93 418.103 615.461 418.103C615.822 418.103 616.139 418.046 616.41 417.934C616.685 417.821 616.916 417.67 617.101 417.481C617.29 417.289 617.433 417.078 617.529 416.85L618.369 417.123C618.253 417.445 618.063 417.741 617.797 418.013C617.536 418.285 617.207 418.504 616.813 418.669C616.422 418.832 615.971 418.913 615.461 418.913ZM625.047 411.118V411.953H621.393V418.754H620.508V411.118H625.047ZM629.478 418.913C628.819 418.913 628.235 418.746 627.728 418.411C627.224 418.076 626.83 417.614 626.545 417.024C626.26 416.431 626.117 415.746 626.117 414.971C626.117 414.188 626.26 413.501 626.545 412.907C626.83 412.311 627.224 411.847 627.728 411.515C628.235 411.181 628.819 411.013 629.478 411.013C630.138 411.013 630.719 411.181 631.223 411.515C631.727 411.85 632.121 412.314 632.406 412.907C632.695 413.501 632.839 414.188 632.839 414.971C632.839 415.746 632.696 416.431 632.411 417.024C632.126 417.614 631.73 418.076 631.223 418.411C630.719 418.746 630.138 418.913 629.478 418.913ZM629.478 418.103C630.008 418.103 630.458 417.96 630.825 417.675C631.193 417.39 631.472 417.011 631.661 416.537C631.853 416.063 631.949 415.541 631.949 414.971C631.949 414.4 631.853 413.877 631.661 413.4C631.472 412.922 631.193 412.539 630.825 412.251C630.458 411.963 630.008 411.819 629.478 411.819C628.951 411.819 628.502 411.963 628.131 412.251C627.763 412.539 627.483 412.922 627.291 413.4C627.102 413.877 627.007 414.4 627.007 414.971C627.007 415.541 627.102 416.063 627.291 416.537C627.483 417.011 627.763 417.39 628.131 417.675C628.499 417.96 628.948 418.103 629.478 418.103ZM643.875 414.523V415.358H639.385V414.523H643.875ZM639.604 411.118V418.754H638.719V411.118H639.604ZM644.526 411.118V418.754H643.641V411.118H644.526ZM649.969 418.913C649.256 418.913 648.64 418.747 648.119 418.416C647.599 418.081 647.196 417.619 646.911 417.029C646.629 416.435 646.488 415.753 646.488 414.98C646.488 414.212 646.629 413.529 646.911 412.932C647.196 412.332 647.589 411.863 648.089 411.525C648.593 411.184 649.175 411.013 649.834 411.013C650.249 411.013 650.648 411.089 651.032 411.242C651.417 411.391 651.762 411.621 652.067 411.933C652.375 412.241 652.618 412.631 652.797 413.101C652.976 413.569 653.066 414.122 653.066 414.762V415.199H647.1V414.419H652.161C652.161 413.928 652.062 413.487 651.863 413.096C651.667 412.702 651.394 412.39 651.042 412.162C650.694 411.933 650.292 411.819 649.834 411.819C649.35 411.819 648.925 411.948 648.557 412.206C648.189 412.465 647.9 412.806 647.692 413.23C647.486 413.655 647.382 414.119 647.378 414.623V415.09C647.378 415.696 647.483 416.227 647.692 416.681C647.904 417.132 648.204 417.481 648.591 417.73C648.979 417.978 649.438 418.103 649.969 418.103C650.33 418.103 650.646 418.046 650.918 417.934C651.193 417.821 651.424 417.67 651.609 417.481C651.798 417.289 651.941 417.078 652.037 416.85L652.877 417.123C652.761 417.445 652.57 417.741 652.305 418.013C652.043 418.285 651.715 418.504 651.321 418.669C650.93 418.832 650.479 418.913 649.969 418.913ZM450.896 431.523V432.358H446.407V431.523H450.896ZM446.626 428.118V435.754H445.741V428.118H446.626ZM451.547 428.118V435.754H450.662V428.118H451.547ZM456.036 435.928C455.575 435.928 455.154 435.838 454.773 435.659C454.392 435.477 454.088 435.215 453.863 434.874C453.638 434.529 453.525 434.112 453.525 433.621C453.525 433.243 453.596 432.925 453.739 432.667C453.881 432.408 454.083 432.196 454.345 432.03C454.607 431.864 454.917 431.734 455.275 431.637C455.633 431.541 456.027 431.467 456.458 431.414C456.886 431.361 457.247 431.314 457.542 431.275C457.84 431.235 458.067 431.172 458.223 431.086C458.379 430.999 458.457 430.86 458.457 430.668V430.489C458.457 429.969 458.301 429.559 457.989 429.261C457.681 428.959 457.237 428.809 456.657 428.809C456.107 428.809 455.658 428.93 455.31 429.172C454.965 429.413 454.723 429.699 454.584 430.027L453.744 429.723C453.916 429.306 454.155 428.973 454.46 428.724C454.764 428.472 455.106 428.292 455.484 428.182C455.862 428.069 456.244 428.013 456.632 428.013C456.924 428.013 457.227 428.051 457.542 428.127C457.86 428.204 458.155 428.336 458.427 428.525C458.699 428.711 458.919 428.971 459.088 429.306C459.257 429.637 459.342 430.058 459.342 430.569V435.754H458.457V434.546H458.402C458.296 434.771 458.138 434.99 457.93 435.202C457.721 435.414 457.459 435.588 457.144 435.724C456.829 435.86 456.46 435.928 456.036 435.928ZM456.155 435.118C456.625 435.118 457.033 435.013 457.378 434.804C457.723 434.596 457.988 434.319 458.173 433.974C458.362 433.626 458.457 433.243 458.457 432.826V431.722C458.39 431.785 458.279 431.841 458.124 431.891C457.971 431.941 457.794 431.985 457.592 432.025C457.393 432.062 457.194 432.093 456.995 432.12C456.796 432.146 456.617 432.169 456.458 432.189C456.027 432.242 455.659 432.325 455.354 432.438C455.049 432.551 454.816 432.706 454.653 432.905C454.491 433.101 454.41 433.353 454.41 433.661C454.41 434.125 454.576 434.484 454.907 434.74C455.238 434.992 455.654 435.118 456.155 435.118ZM462.581 434.496L466.613 428.118H467.672V435.754H466.787V429.375L462.77 435.754H461.696V428.118H462.581V434.496ZM465.598 425.572H466.434C466.434 426.046 466.276 426.431 465.961 426.725C465.65 427.02 465.224 427.168 464.684 427.168C464.15 427.168 463.727 427.02 463.416 426.725C463.104 426.431 462.949 426.046 462.949 425.572H463.784C463.784 425.831 463.853 426.049 463.993 426.228C464.135 426.404 464.365 426.492 464.684 426.492C465.002 426.492 465.234 426.404 465.38 426.228C465.525 426.049 465.598 425.831 465.598 425.572ZM469.103 437.926V434.919H469.765C469.93 434.733 470.074 434.533 470.197 434.317C470.32 434.102 470.426 433.856 470.515 433.581C470.608 433.303 470.686 432.98 470.749 432.612C470.812 432.241 470.865 431.808 470.908 431.314L471.186 428.118H475.706V434.919H476.839V437.926H475.954V435.754H469.993V437.926H469.103ZM470.784 434.919H474.821V428.953H472.012L471.783 431.314C471.703 432.116 471.591 432.816 471.445 433.412C471.299 434.009 471.079 434.511 470.784 434.919ZM481.613 435.913C480.901 435.913 480.284 435.747 479.764 435.416C479.243 435.081 478.841 434.619 478.556 434.029C478.274 433.435 478.133 432.753 478.133 431.98C478.133 431.212 478.274 430.529 478.556 429.932C478.841 429.332 479.233 428.863 479.734 428.525C480.238 428.184 480.819 428.013 481.479 428.013C481.893 428.013 482.293 428.089 482.677 428.242C483.061 428.391 483.406 428.621 483.711 428.933C484.019 429.241 484.263 429.631 484.442 430.101C484.621 430.569 484.71 431.122 484.71 431.762V432.199H478.744V431.419H483.806C483.806 430.928 483.706 430.487 483.507 430.096C483.312 429.702 483.038 429.39 482.687 429.162C482.339 428.933 481.936 428.819 481.479 428.819C480.995 428.819 480.569 428.948 480.201 429.206C479.833 429.465 479.545 429.806 479.336 430.23C479.131 430.655 479.026 431.119 479.023 431.623V432.09C479.023 432.696 479.127 433.227 479.336 433.681C479.548 434.132 479.848 434.481 480.236 434.73C480.624 434.978 481.083 435.103 481.613 435.103C481.974 435.103 482.291 435.046 482.563 434.934C482.838 434.821 483.068 434.67 483.254 434.481C483.443 434.289 483.585 434.078 483.681 433.85L484.521 434.123C484.405 434.445 484.215 434.741 483.95 435.013C483.688 435.285 483.36 435.504 482.965 435.669C482.574 435.832 482.124 435.913 481.613 435.913ZM491.816 431.523V432.358H487.327V431.523H491.816ZM487.545 428.118V435.754H486.661V428.118H487.545ZM492.467 428.118V435.754H491.582V428.118H492.467ZM497.791 435.913C497.131 435.913 496.548 435.746 496.041 435.411C495.537 435.076 495.142 434.614 494.857 434.024C494.572 433.431 494.43 432.746 494.43 431.971C494.43 431.188 494.572 430.501 494.857 429.907C495.142 429.311 495.537 428.847 496.041 428.515C496.548 428.181 497.131 428.013 497.791 428.013C498.45 428.013 499.032 428.181 499.536 428.515C500.039 428.85 500.434 429.314 500.719 429.907C501.007 430.501 501.151 431.188 501.151 431.971C501.151 432.746 501.009 433.431 500.724 434.024C500.439 434.614 500.043 435.076 499.536 435.411C499.032 435.746 498.45 435.913 497.791 435.913ZM497.791 435.103C498.321 435.103 498.77 434.96 499.138 434.675C499.506 434.39 499.784 434.011 499.973 433.537C500.165 433.063 500.262 432.541 500.262 431.971C500.262 431.4 500.165 430.877 499.973 430.4C499.784 429.922 499.506 429.539 499.138 429.251C498.77 428.963 498.321 428.819 497.791 428.819C497.264 428.819 496.815 428.963 496.443 429.251C496.075 429.539 495.795 429.922 495.603 430.4C495.414 430.877 495.32 431.4 495.32 431.971C495.32 432.541 495.414 433.063 495.603 433.537C495.795 434.011 496.075 434.39 496.443 434.675C496.811 434.96 497.26 435.103 497.791 435.103ZM504.566 434.362L504.476 434.894C504.42 435.252 504.34 435.646 504.238 436.077C504.135 436.508 504.029 436.917 503.919 437.305C503.81 437.693 503.716 438.004 503.636 438.24H502.955C502.998 438.014 503.053 437.728 503.119 437.38C503.189 437.032 503.26 436.645 503.333 436.221C503.406 435.8 503.472 435.366 503.532 434.919L503.601 434.362H504.566ZM510.846 435.754V428.118H513.854C514.666 428.118 515.306 428.293 515.773 428.645C516.244 428.996 516.479 429.47 516.479 430.066C516.479 430.52 516.348 430.883 516.086 431.155C515.824 431.427 515.473 431.619 515.032 431.732C515.327 431.782 515.601 431.889 515.852 432.055C516.108 432.221 516.315 432.44 516.474 432.711C516.633 432.983 516.713 433.308 516.713 433.686C516.713 434.083 516.613 434.438 516.414 434.75C516.215 435.061 515.935 435.306 515.574 435.485C515.213 435.664 514.785 435.754 514.291 435.754H510.846ZM511.691 434.934H514.291C514.759 434.934 515.128 434.814 515.4 434.576C515.672 434.334 515.808 434.012 515.808 433.611C515.808 433.184 515.678 432.842 515.42 432.587C515.165 432.328 514.822 432.199 514.391 432.199H511.691V434.934ZM511.691 431.414H513.909C514.253 431.414 514.552 431.361 514.803 431.255C515.055 431.149 515.249 430.999 515.385 430.807C515.524 430.612 515.592 430.383 515.589 430.121C515.589 429.747 515.436 429.457 515.132 429.251C514.827 429.042 514.401 428.938 513.854 428.938H511.691V431.414ZM519.398 431.066H521.636C522.494 431.066 523.157 431.275 523.624 431.692C524.092 432.11 524.325 432.675 524.325 433.387C524.325 433.861 524.219 434.276 524.007 434.63C523.798 434.985 523.493 435.262 523.092 435.461C522.691 435.656 522.206 435.754 521.636 435.754H518.663V428.118H519.553V434.919H521.636C522.176 434.919 522.61 434.789 522.938 434.531C523.27 434.272 523.435 433.904 523.435 433.427C523.435 432.94 523.27 432.564 522.938 432.299C522.61 432.033 522.176 431.901 521.636 431.901H519.398V431.066ZM525.613 435.754V428.118H526.498V435.754H525.613ZM536.782 434.516L539.65 428.118H540.51L537.135 435.754H536.429L533.093 428.118H533.938L536.782 434.516ZM533.674 428.118V435.754H532.789V428.118H533.674ZM539.889 435.754V428.118H540.774V435.754H539.889ZM546.093 435.913C545.434 435.913 544.85 435.746 544.343 435.411C543.84 435.076 543.445 434.614 543.16 434.024C542.875 433.431 542.733 432.746 542.733 431.971C542.733 431.188 542.875 430.501 543.16 429.907C543.445 429.311 543.84 428.847 544.343 428.515C544.85 428.181 545.434 428.013 546.093 428.013C546.753 428.013 547.335 428.181 547.838 428.515C548.342 428.85 548.737 429.314 549.022 429.907C549.31 430.501 549.454 431.188 549.454 431.971C549.454 432.746 549.312 433.431 549.027 434.024C548.742 434.614 548.346 435.076 547.838 435.411C547.335 435.746 546.753 435.913 546.093 435.913ZM546.093 435.103C546.624 435.103 547.073 434.96 547.441 434.675C547.809 434.39 548.087 434.011 548.276 433.537C548.468 433.063 548.564 432.541 548.564 431.971C548.564 431.4 548.468 430.877 548.276 430.4C548.087 429.922 547.809 429.539 547.441 429.251C547.073 428.963 546.624 428.819 546.093 428.819C545.566 428.819 545.117 428.963 544.746 429.251C544.378 429.539 544.098 429.922 543.906 430.4C543.717 430.877 543.623 431.4 543.623 431.971C543.623 432.541 543.717 433.063 543.906 433.537C544.098 434.011 544.378 434.39 544.746 434.675C545.114 434.96 545.563 435.103 546.093 435.103ZM550.605 435.754L553.976 431.896L550.65 428.118H551.729L554.657 431.513H555.169V428.118H556.059V431.513H556.561L559.489 428.118H560.568L557.252 431.896L560.613 435.754H559.519L556.546 432.348H556.059V435.754H555.169V432.348H554.682L551.699 435.754H550.605ZM565.244 435.913C564.531 435.913 563.915 435.747 563.395 435.416C562.874 435.081 562.471 434.619 562.186 434.029C561.905 433.435 561.764 432.753 561.764 431.98C561.764 431.212 561.905 430.529 562.186 429.932C562.471 429.332 562.864 428.863 563.365 428.525C563.868 428.184 564.45 428.013 565.11 428.013C565.524 428.013 565.923 428.089 566.308 428.242C566.692 428.391 567.037 428.621 567.342 428.933C567.65 429.241 567.894 429.631 568.073 430.101C568.252 430.569 568.341 431.122 568.341 431.762V432.199H562.375V431.419H567.436C567.436 430.928 567.337 430.487 567.138 430.096C566.943 429.702 566.669 429.39 566.318 429.162C565.97 428.933 565.567 428.819 565.11 428.819C564.626 428.819 564.2 428.948 563.832 429.206C563.464 429.465 563.176 429.806 562.967 430.23C562.761 430.655 562.657 431.119 562.654 431.623V432.09C562.654 432.696 562.758 433.227 562.967 433.681C563.179 434.132 563.479 434.481 563.867 434.73C564.255 434.978 564.714 435.103 565.244 435.103C565.605 435.103 565.922 435.046 566.194 434.934C566.469 434.821 566.699 434.67 566.885 434.481C567.074 434.289 567.216 434.078 567.312 433.85L568.152 434.123C568.036 434.445 567.846 434.741 567.581 435.013C567.319 435.285 566.991 435.504 566.596 435.669C566.205 435.832 565.754 435.913 565.244 435.913ZM569.551 428.953V428.118H575.517V428.953H572.991V435.754H572.106V428.953H569.551ZM580.078 435.913C579.365 435.913 578.749 435.747 578.229 435.416C577.708 435.081 577.305 434.619 577.02 434.029C576.739 433.435 576.598 432.753 576.598 431.98C576.598 431.212 576.739 430.529 577.02 429.932C577.305 429.332 577.698 428.863 578.199 428.525C578.702 428.184 579.284 428.013 579.944 428.013C580.358 428.013 580.757 428.089 581.142 428.242C581.526 428.391 581.871 428.621 582.176 428.933C582.484 429.241 582.728 429.631 582.907 430.101C583.086 430.569 583.175 431.122 583.175 431.762V432.199H577.209V431.419H582.27C582.27 430.928 582.171 430.487 581.972 430.096C581.777 429.702 581.503 429.39 581.152 429.162C580.804 428.933 580.401 428.819 579.944 428.819C579.46 428.819 579.034 428.948 578.666 429.206C578.298 429.465 578.01 429.806 577.801 430.23C577.595 430.655 577.491 431.119 577.488 431.623V432.09C577.488 432.696 577.592 433.227 577.801 433.681C578.013 434.132 578.313 434.481 578.701 434.73C579.089 434.978 579.548 435.103 580.078 435.103C580.439 435.103 580.756 435.046 581.028 434.934C581.303 434.821 581.533 434.67 581.719 434.481C581.907 434.289 582.05 434.078 582.146 433.85L582.986 434.123C582.87 434.445 582.68 434.741 582.415 435.013C582.153 435.285 581.825 435.504 581.43 435.669C581.039 435.832 580.588 435.913 580.078 435.913ZM589.073 435.754V428.118H594.855V435.754H593.965V428.953H589.963V435.754H589.073ZM600.166 435.913C599.506 435.913 598.923 435.746 598.416 435.411C597.912 435.076 597.517 434.614 597.232 434.024C596.947 433.431 596.805 432.746 596.805 431.971C596.805 431.188 596.947 430.501 597.232 429.907C597.517 429.311 597.912 428.847 598.416 428.515C598.923 428.181 599.506 428.013 600.166 428.013C600.825 428.013 601.407 428.181 601.911 428.515C602.414 428.85 602.809 429.314 603.094 429.907C603.382 430.501 603.526 431.188 603.526 431.971C603.526 432.746 603.384 433.431 603.099 434.024C602.814 434.614 602.418 435.076 601.911 435.411C601.407 435.746 600.825 435.913 600.166 435.913ZM600.166 435.103C600.696 435.103 601.145 434.96 601.513 434.675C601.881 434.39 602.159 434.011 602.348 433.537C602.54 433.063 602.637 432.541 602.637 431.971C602.637 431.4 602.54 430.877 602.348 430.4C602.159 429.922 601.881 429.539 601.513 429.251C601.145 428.963 600.696 428.819 600.166 428.819C599.639 428.819 599.19 428.963 598.818 429.251C598.45 429.539 598.17 429.922 597.978 430.4C597.789 430.877 597.695 431.4 597.695 431.971C597.695 432.541 597.789 433.063 597.978 433.537C598.17 434.011 598.45 434.39 598.818 434.675C599.186 434.96 599.635 435.103 600.166 435.103ZM605.469 435.754V428.118H608.477C609.289 428.118 609.929 428.293 610.396 428.645C610.867 428.996 611.102 429.47 611.102 430.066C611.102 430.52 610.971 430.883 610.709 431.155C610.447 431.427 610.096 431.619 609.655 431.732C609.95 431.782 610.224 431.889 610.475 432.055C610.731 432.221 610.938 432.44 611.097 432.711C611.256 432.983 611.336 433.308 611.336 433.686C611.336 434.083 611.236 434.438 611.037 434.75C610.838 435.061 610.558 435.306 610.197 435.485C609.836 435.664 609.408 435.754 608.914 435.754H605.469ZM606.314 434.934H608.914C609.382 434.934 609.751 434.814 610.023 434.576C610.295 434.334 610.431 434.012 610.431 433.611C610.431 433.184 610.301 432.842 610.043 432.587C609.788 432.328 609.445 432.199 609.014 432.199H606.314V434.934ZM606.314 431.414H608.532C608.876 431.414 609.175 431.361 609.426 431.255C609.678 431.149 609.872 430.999 610.008 430.807C610.147 430.612 610.215 430.383 610.212 430.121C610.212 429.747 610.06 429.457 609.755 429.251C609.45 429.042 609.024 428.938 608.477 428.938H606.314V431.414ZM612.808 428.953V428.118H618.774V428.953H616.249V435.754H615.364V428.953H612.808ZM623.216 435.913C622.557 435.913 621.974 435.746 621.466 435.411C620.963 435.076 620.568 434.614 620.283 434.024C619.998 433.431 619.856 432.746 619.856 431.971C619.856 431.188 619.998 430.501 620.283 429.907C620.568 429.311 620.963 428.847 621.466 428.515C621.974 428.181 622.557 428.013 623.216 428.013C623.876 428.013 624.458 428.181 624.961 428.515C625.465 428.85 625.86 429.314 626.145 429.907C626.433 430.501 626.577 431.188 626.577 431.971C626.577 432.746 626.435 433.431 626.15 434.024C625.865 434.614 625.469 435.076 624.961 435.411C624.458 435.746 623.876 435.913 623.216 435.913ZM623.216 435.103C623.747 435.103 624.196 434.96 624.564 434.675C624.932 434.39 625.21 434.011 625.399 433.537C625.591 433.063 625.687 432.541 625.687 431.971C625.687 431.4 625.591 430.877 625.399 430.4C625.21 429.922 624.932 429.539 624.564 429.251C624.196 428.963 623.747 428.819 623.216 428.819C622.689 428.819 622.24 428.963 621.869 429.251C621.501 429.539 621.221 429.922 621.029 430.4C620.84 430.877 620.746 431.4 620.746 431.971C620.746 432.541 620.84 433.063 621.029 433.537C621.221 434.011 621.501 434.39 621.869 434.675C622.237 434.96 622.686 435.103 623.216 435.103ZM628.52 438.618V428.118H629.38V429.574H629.484C629.59 429.346 629.736 429.112 629.922 428.873C630.107 428.631 630.353 428.427 630.658 428.262C630.966 428.096 631.354 428.013 631.821 428.013C632.451 428.013 633.001 428.179 633.472 428.51C633.946 428.838 634.313 429.299 634.575 429.892C634.84 430.482 634.973 431.17 634.973 431.956C634.973 432.744 634.84 433.435 634.575 434.029C634.313 434.622 633.946 435.084 633.472 435.416C633.001 435.747 632.454 435.913 631.831 435.913C631.37 435.913 630.984 435.83 630.673 435.664C630.364 435.499 630.114 435.295 629.922 435.053C629.733 434.808 629.587 434.569 629.484 434.337H629.405V438.618H628.52ZM629.395 431.941C629.395 432.557 629.486 433.104 629.668 433.581C629.854 434.055 630.119 434.428 630.464 434.7C630.812 434.968 631.233 435.103 631.727 435.103C632.234 435.103 632.661 434.963 633.009 434.685C633.361 434.403 633.627 434.024 633.81 433.547C633.995 433.069 634.088 432.534 634.088 431.941C634.088 431.354 633.997 430.825 633.815 430.355C633.636 429.884 633.371 429.511 633.019 429.236C632.668 428.958 632.237 428.819 631.727 428.819C631.229 428.819 630.807 428.953 630.459 429.221C630.111 429.486 629.846 429.854 629.663 430.325C629.484 430.792 629.395 431.331 629.395 431.941ZM637.799 434.496L641.831 428.118H642.89V435.754H642.005V429.375L637.988 435.754H636.914V428.118H637.799V434.496ZM644.158 428.953V428.118H650.124V428.953H647.598V435.754H646.713V428.953H644.158ZM652.73 431.066H654.963C655.821 431.066 656.484 431.275 656.951 431.692C657.419 432.11 657.652 432.675 657.652 433.387C657.652 433.861 657.548 434.276 657.339 434.63C657.13 434.985 656.825 435.262 656.424 435.461C656.023 435.656 655.536 435.754 654.963 435.754H651.994V428.118H652.879V434.919H654.963C655.503 434.919 655.939 434.789 656.27 434.531C656.602 434.272 656.767 433.904 656.767 433.427C656.767 432.94 656.602 432.564 656.27 432.299C655.939 432.033 655.503 431.901 654.963 431.901H652.73V431.066ZM463.045 452.754V445.118H468.827V452.754H467.938V445.953H463.935V452.754H463.045ZM474.138 452.913C473.479 452.913 472.895 452.746 472.388 452.411C471.885 452.076 471.49 451.614 471.205 451.024C470.92 450.431 470.778 449.746 470.778 448.971C470.778 448.188 470.92 447.501 471.205 446.907C471.49 446.311 471.885 445.847 472.388 445.515C472.895 445.181 473.479 445.013 474.138 445.013C474.798 445.013 475.38 445.181 475.883 445.515C476.387 445.85 476.782 446.314 477.067 446.907C477.355 447.501 477.499 448.188 477.499 448.971C477.499 449.746 477.357 450.431 477.072 451.024C476.787 451.614 476.39 452.076 475.883 452.411C475.38 452.746 474.798 452.913 474.138 452.913ZM474.138 452.103C474.669 452.103 475.118 451.96 475.486 451.675C475.854 451.39 476.132 451.011 476.321 450.537C476.513 450.063 476.609 449.541 476.609 448.971C476.609 448.4 476.513 447.877 476.321 447.4C476.132 446.922 475.854 446.539 475.486 446.251C475.118 445.963 474.669 445.819 474.138 445.819C473.611 445.819 473.162 445.963 472.791 446.251C472.423 446.539 472.143 446.922 471.951 447.4C471.762 447.877 471.667 448.4 471.667 448.971C471.667 449.541 471.762 450.063 471.951 450.537C472.143 451.011 472.423 451.39 472.791 451.675C473.159 451.96 473.608 452.103 474.138 452.103ZM480.327 451.496L484.359 445.118H485.418V452.754H484.533V446.375L480.516 452.754H479.442V445.118H480.327V451.496ZM490.737 452.913C490.054 452.913 489.46 452.742 488.952 452.401C488.449 452.06 488.058 451.592 487.779 450.999C487.501 450.406 487.362 449.73 487.362 448.971C487.362 448.205 487.502 447.524 487.784 446.927C488.069 446.331 488.464 445.863 488.967 445.525C489.471 445.184 490.056 445.013 490.722 445.013C491.233 445.013 491.695 445.113 492.109 445.311C492.524 445.507 492.865 445.784 493.134 446.142C493.405 446.496 493.576 446.911 493.646 447.385H492.751C492.658 446.954 492.434 446.586 492.08 446.281C491.728 445.973 491.281 445.819 490.737 445.819C490.25 445.819 489.819 445.951 489.445 446.216C489.07 446.478 488.777 446.844 488.565 447.315C488.356 447.782 488.251 448.324 488.251 448.941C488.251 449.56 488.354 450.109 488.56 450.586C488.765 451.06 489.054 451.431 489.425 451.7C489.799 451.968 490.237 452.103 490.737 452.103C491.075 452.103 491.384 452.04 491.662 451.914C491.944 451.784 492.179 451.602 492.368 451.367C492.56 451.132 492.689 450.851 492.756 450.527H493.651C493.584 450.987 493.42 451.398 493.158 451.76C492.9 452.118 492.563 452.399 492.149 452.605C491.738 452.81 491.268 452.913 490.737 452.913ZM495.547 452.754V445.118H496.432V448.553H497.262L500.101 445.118H501.245L498.182 448.792L501.314 452.754H500.171L497.536 449.388H496.432V452.754H495.547ZM509.686 452.913C509.004 452.913 508.409 452.742 507.902 452.401C507.398 452.06 507.007 451.592 506.728 450.999C506.45 450.406 506.311 449.73 506.311 448.971C506.311 448.205 506.452 447.524 506.733 446.927C507.018 446.331 507.413 445.863 507.917 445.525C508.42 445.184 509.005 445.013 509.672 445.013C510.182 445.013 510.644 445.113 511.059 445.311C511.473 445.507 511.814 445.784 512.083 446.142C512.355 446.496 512.525 446.911 512.595 447.385H511.7C511.607 446.954 511.383 446.586 511.029 446.281C510.677 445.973 510.23 445.819 509.686 445.819C509.199 445.819 508.768 445.951 508.394 446.216C508.019 446.478 507.726 446.844 507.514 447.315C507.305 447.782 507.201 448.324 507.201 448.941C507.201 449.56 507.303 450.109 507.509 450.586C507.714 451.06 508.003 451.431 508.374 451.7C508.748 451.968 509.186 452.103 509.686 452.103C510.025 452.103 510.333 452.04 510.611 451.914C510.893 451.784 511.128 451.602 511.317 451.367C511.509 451.132 511.639 450.851 511.705 450.527H512.6C512.533 450.987 512.369 451.398 512.108 451.76C511.849 452.118 511.513 452.399 511.098 452.605C510.687 452.81 510.217 452.913 509.686 452.913ZM517.529 454.926V451.919H518.19C518.356 451.733 518.5 451.533 518.623 451.317C518.746 451.102 518.852 450.856 518.941 450.581C519.034 450.303 519.112 449.98 519.175 449.612C519.238 449.241 519.291 448.808 519.334 448.314L519.612 445.118H524.131V451.919H525.265V454.926H524.38V452.754H518.419V454.926H517.529ZM519.21 451.919H523.246V445.953H520.438L520.209 448.314C520.129 449.116 520.017 449.816 519.871 450.412C519.725 451.009 519.504 451.511 519.21 451.919ZM526.952 455.618V445.118H527.812V446.574H527.916C528.022 446.346 528.168 446.112 528.354 445.873C528.539 445.631 528.784 445.427 529.089 445.262C529.398 445.096 529.785 445.013 530.253 445.013C530.882 445.013 531.433 445.179 531.903 445.51C532.377 445.838 532.745 446.299 533.007 446.892C533.272 447.482 533.405 448.17 533.405 448.956C533.405 449.744 533.272 450.435 533.007 451.029C532.745 451.622 532.377 452.084 531.903 452.416C531.433 452.747 530.886 452.913 530.263 452.913C529.802 452.913 529.416 452.83 529.104 452.664C528.796 452.499 528.546 452.295 528.354 452.053C528.165 451.808 528.019 451.569 527.916 451.337H527.836V455.618H526.952ZM527.827 448.941C527.827 449.557 527.918 450.104 528.1 450.581C528.286 451.055 528.551 451.428 528.895 451.7C529.243 451.968 529.664 452.103 530.158 452.103C530.665 452.103 531.093 451.963 531.441 451.685C531.792 451.403 532.059 451.024 532.241 450.547C532.427 450.069 532.52 449.534 532.52 448.941C532.52 448.354 532.429 447.825 532.246 447.355C532.067 446.884 531.802 446.511 531.451 446.236C531.099 445.958 530.669 445.819 530.158 445.819C529.661 445.819 529.238 445.953 528.89 446.221C528.542 446.486 528.277 446.854 528.095 447.325C527.916 447.792 527.827 448.331 527.827 448.941ZM535.689 455.618C535.513 455.618 535.349 455.601 535.197 455.568C535.044 455.535 534.923 455.498 534.834 455.458L535.073 454.678C535.374 454.771 535.643 454.804 535.878 454.777C536.113 454.754 536.322 454.648 536.504 454.459C536.687 454.274 536.849 453.989 536.992 453.604L537.27 452.828L534.461 445.118H535.421L537.688 451.586H537.757L540.024 445.118H540.984L537.752 453.962C537.616 454.33 537.449 454.636 537.25 454.882C537.051 455.13 536.821 455.314 536.559 455.434C536.301 455.556 536.011 455.618 535.689 455.618ZM547.254 445.118V445.953H543.6V452.754H542.715V445.118H547.254ZM549.999 451.496L554.031 445.118H555.089V452.754H554.205V446.375L550.188 452.754H549.114V445.118H549.999V451.496ZM561.418 451.516L564.287 445.118H565.147L561.771 452.754H561.065L557.729 445.118H558.575L561.418 451.516ZM558.311 445.118V452.754H557.426V445.118H558.311ZM564.526 452.754V445.118H565.411V452.754H564.526ZM568.647 451.496L572.679 445.118H573.738V452.754H572.853V446.375L568.836 452.754H567.762V445.118H568.647V451.496ZM582.995 452.913C582.312 452.913 581.717 452.742 581.21 452.401C580.706 452.06 580.315 451.592 580.037 450.999C579.759 450.406 579.619 449.73 579.619 448.971C579.619 448.205 579.76 447.524 580.042 446.927C580.327 446.331 580.721 445.863 581.225 445.525C581.729 445.184 582.314 445.013 582.98 445.013C583.491 445.013 583.953 445.113 584.367 445.311C584.781 445.507 585.123 445.784 585.391 446.142C585.663 446.496 585.834 446.911 585.903 447.385H585.009C584.916 446.954 584.692 446.586 584.337 446.281C583.986 445.973 583.539 445.819 582.995 445.819C582.508 445.819 582.077 445.951 581.702 446.216C581.328 446.478 581.035 446.844 580.822 447.315C580.614 447.782 580.509 448.324 580.509 448.941C580.509 449.56 580.612 450.109 580.817 450.586C581.023 451.06 581.311 451.431 581.683 451.7C582.057 451.968 582.495 452.103 582.995 452.103C583.333 452.103 583.641 452.04 583.92 451.914C584.201 451.784 584.437 451.602 584.626 451.367C584.818 451.132 584.947 450.851 585.013 450.527H585.908C585.842 450.987 585.678 451.398 585.416 451.76C585.158 452.118 584.821 452.399 584.407 452.605C583.996 452.81 583.525 452.913 582.995 452.913ZM587.054 452.754V451.919H587.293C587.565 451.919 587.783 451.869 587.949 451.77C588.118 451.667 588.249 451.494 588.342 451.252C588.435 451.011 588.504 450.681 588.551 450.263C588.597 449.846 588.634 449.322 588.66 448.692L588.824 445.118H593.676V452.754H592.787V445.953H589.664L589.52 448.99C589.49 449.61 589.441 450.155 589.371 450.626C589.305 451.097 589.195 451.489 589.043 451.804C588.894 452.119 588.685 452.356 588.417 452.515C588.151 452.674 587.803 452.754 587.373 452.754H587.054ZM598.99 452.913C598.33 452.913 597.747 452.746 597.24 452.411C596.736 452.076 596.342 451.614 596.057 451.024C595.772 450.431 595.629 449.746 595.629 448.971C595.629 448.188 595.772 447.501 596.057 446.907C596.342 446.311 596.736 445.847 597.24 445.515C597.747 445.181 598.33 445.013 598.99 445.013C599.649 445.013 600.231 445.181 600.735 445.515C601.239 445.85 601.633 446.314 601.918 446.907C602.206 447.501 602.351 448.188 602.351 448.971C602.351 449.746 602.208 450.431 601.923 451.024C601.638 451.614 601.242 452.076 600.735 452.411C600.231 452.746 599.649 452.913 598.99 452.913ZM598.99 452.103C599.52 452.103 599.969 451.96 600.337 451.675C600.705 451.39 600.983 451.011 601.172 450.537C601.365 450.063 601.461 449.541 601.461 448.971C601.461 448.4 601.365 447.877 601.172 447.4C600.983 446.922 600.705 446.539 600.337 446.251C599.969 445.963 599.52 445.819 598.99 445.819C598.463 445.819 598.014 445.963 597.643 446.251C597.275 446.539 596.995 446.922 596.802 447.4C596.613 447.877 596.519 448.4 596.519 448.971C596.519 449.541 596.613 450.063 596.802 450.537C596.995 451.011 597.275 451.39 597.643 451.675C598.01 451.96 598.46 452.103 598.99 452.103ZM604.293 452.754V445.118H607.301C608.113 445.118 608.753 445.293 609.22 445.645C609.691 445.996 609.926 446.47 609.926 447.066C609.926 447.52 609.795 447.883 609.533 448.155C609.272 448.427 608.92 448.619 608.479 448.732C608.774 448.782 609.048 448.889 609.3 449.055C609.555 449.221 609.762 449.44 609.921 449.711C610.08 449.983 610.16 450.308 610.16 450.686C610.16 451.083 610.06 451.438 609.862 451.75C609.663 452.061 609.383 452.306 609.021 452.485C608.66 452.664 608.232 452.754 607.739 452.754H604.293ZM605.138 451.934H607.739C608.206 451.934 608.576 451.814 608.847 451.576C609.119 451.334 609.255 451.012 609.255 450.611C609.255 450.184 609.126 449.842 608.867 449.587C608.612 449.328 608.269 449.199 607.838 449.199H605.138V451.934ZM605.138 448.414H607.356C607.701 448.414 607.999 448.361 608.251 448.255C608.503 448.149 608.696 447.999 608.832 447.807C608.972 447.612 609.04 447.383 609.036 447.121C609.036 446.747 608.884 446.457 608.579 446.251C608.274 446.042 607.848 445.938 607.301 445.938H605.138V448.414ZM614.233 452.928C613.772 452.928 613.351 452.838 612.97 452.659C612.589 452.477 612.286 452.215 612.06 451.874C611.835 451.529 611.722 451.112 611.722 450.621C611.722 450.243 611.793 449.925 611.936 449.667C612.078 449.408 612.281 449.196 612.542 449.03C612.804 448.864 613.114 448.734 613.472 448.637C613.83 448.541 614.224 448.467 614.655 448.414C615.083 448.361 615.444 448.314 615.739 448.275C616.037 448.235 616.265 448.172 616.42 448.086C616.576 447.999 616.654 447.86 616.654 447.668V447.489C616.654 446.969 616.498 446.559 616.187 446.261C615.878 445.959 615.434 445.809 614.854 445.809C614.304 445.809 613.855 445.93 613.507 446.172C613.162 446.413 612.92 446.699 612.781 447.027L611.941 446.723C612.113 446.306 612.352 445.973 612.657 445.724C612.962 445.472 613.303 445.292 613.681 445.182C614.059 445.069 614.442 445.013 614.829 445.013C615.121 445.013 615.424 445.051 615.739 445.127C616.057 445.204 616.352 445.336 616.624 445.525C616.896 445.711 617.116 445.971 617.285 446.306C617.454 446.637 617.539 447.058 617.539 447.569V452.754H616.654V451.546H616.599C616.493 451.771 616.336 451.99 616.127 452.202C615.918 452.414 615.656 452.588 615.341 452.724C615.027 452.86 614.657 452.928 614.233 452.928ZM614.352 452.118C614.823 452.118 615.23 452.013 615.575 451.804C615.92 451.596 616.185 451.319 616.371 450.974C616.559 450.626 616.654 450.243 616.654 449.826V448.722C616.588 448.785 616.477 448.841 616.321 448.891C616.168 448.941 615.991 448.985 615.789 449.025C615.59 449.062 615.391 449.093 615.192 449.12C614.993 449.146 614.814 449.169 614.655 449.189C614.224 449.242 613.857 449.325 613.552 449.438C613.247 449.551 613.013 449.706 612.851 449.905C612.688 450.101 612.607 450.353 612.607 450.661C612.607 451.125 612.773 451.484 613.104 451.74C613.436 451.992 613.852 452.118 614.352 452.118ZM623.885 451.516L626.754 445.118H627.614L624.238 452.754H623.532L620.196 445.118H621.041L623.885 451.516ZM620.778 445.118V452.754H619.893V445.118H620.778ZM626.992 452.754V445.118H627.877V452.754H626.992ZM631.114 451.496L635.146 445.118H636.205V452.754H635.32V446.375L631.303 452.754H630.229V445.118H631.114V451.496ZM639.247 452.828C639.052 452.828 638.883 452.759 638.74 452.62C638.601 452.477 638.531 452.308 638.531 452.113C638.531 451.914 638.601 451.745 638.74 451.605C638.883 451.466 639.052 451.397 639.247 451.397C639.446 451.397 639.615 451.466 639.754 451.605C639.894 451.745 639.963 451.914 639.963 452.113C639.963 452.242 639.93 452.361 639.864 452.471C639.801 452.58 639.715 452.668 639.605 452.734C639.499 452.797 639.38 452.828 639.247 452.828Z" fill="black"/>
</svg>
