<svg width="15" height="12" viewBox="0 0 15 12" fill="none" xmlns="http://www.w3.org/2000/svg">
<path d="M2.90625 0.5625C3.26172 0.5625 3.5625 0.863281 3.5625 1.21875V2.53125C3.5625 2.91406 3.26172 3.1875 2.90625 3.1875H1.59375C1.21094 3.1875 0.9375 2.91406 0.9375 2.53125V1.21875C0.9375 0.863281 1.21094 0.5625 1.59375 0.5625H2.90625ZM13.625 1C14.0898 1 14.5 1.41016 14.5 1.875C14.5 2.36719 14.0898 2.75 13.625 2.75H5.75C5.25781 2.75 4.875 2.36719 4.875 1.875C4.875 1.41016 5.25781 1 5.75 1H13.625ZM13.625 5.375C14.0898 5.375 14.5 5.78516 14.5 6.25C14.5 6.74219 14.0898 7.125 13.625 7.125H5.75C5.25781 7.125 4.875 6.74219 4.875 6.25C4.875 5.78516 5.25781 5.375 5.75 5.375H13.625ZM13.625 9.75C14.0898 9.75 14.5 10.1602 14.5 10.625C14.5 11.1172 14.0898 11.5 13.625 11.5H5.75C5.25781 11.5 4.875 11.1172 4.875 10.625C4.875 10.1602 5.25781 9.75 5.75 9.75H13.625ZM0.9375 5.59375C0.9375 5.23828 1.21094 4.9375 1.59375 4.9375H2.90625C3.26172 4.9375 3.5625 5.23828 3.5625 5.59375V6.90625C3.5625 7.28906 3.26172 7.5625 2.90625 7.5625H1.59375C1.21094 7.5625 0.9375 7.28906 0.9375 6.90625V5.59375ZM2.90625 9.3125C3.26172 9.3125 3.5625 9.61328 3.5625 9.96875V11.2812C3.5625 11.6641 3.26172 11.9375 2.90625 11.9375H1.59375C1.21094 11.9375 0.9375 11.6641 0.9375 11.2812V9.96875C0.9375 9.61328 1.21094 9.3125 1.59375 9.3125H2.90625Z" fill="white"/>
</svg>
