<svg width="152" height="50" viewBox="0 0 152 50" fill="none" xmlns="http://www.w3.org/2000/svg">
<rect x="0.0936267" y="0.100402" width="50.4016" height="49.7992" rx="15.9639" stroke="#E0E0E0" stroke-width="0.200803"/>
<path d="M10.936 15.2611H9.0284L8.22519 14.5583C8.54647 10.3816 13.2453 8.4673 15.5545 8.03223H23.4862C29.0284 8.59448 31.2841 13.4204 31.7192 15.7631V17.1688H28.4059C28.5665 12.9117 25.4608 11.5128 23.8878 11.3455H15.9561C13.6268 11.1848 11.6388 13.889 10.936 15.2611Z" fill="white"/>
<path d="M18.8678 21.2852L21.7794 18.5744L16.4581 18.474L15.9561 19.0764V20.7832L16.4581 21.2852H18.8678Z" fill="white"/>
<path d="M31.7192 22.7913H28.4059C28.4059 26.6467 25.5277 28.146 24.0886 28.4138H15.6549C12.7633 27.8515 11.3042 25.636 10.936 24.5985H8.62679L8.02438 25.2009C9.14888 30.1005 13.1783 31.4593 15.0525 31.5262H24.3898C30.4943 31.1246 31.8196 25.5356 31.7192 22.7913Z" fill="white"/>
<path d="M10.936 15.2611H9.0284L8.22519 14.5583C8.54647 10.3816 13.2453 8.4673 15.5545 8.03223H23.4862C29.0284 8.59448 31.2841 13.4204 31.7192 15.7631V17.1688H28.4059C28.5665 12.9117 25.4608 11.5128 23.8878 11.3455H15.9561C13.6268 11.1848 11.6388 13.889 10.936 15.2611Z" stroke="#1B1B1B" stroke-width="0.200803"/>
<path d="M18.8678 21.2852L21.7794 18.5744L16.4581 18.474L15.9561 19.0764V20.7832L16.4581 21.2852H18.8678Z" stroke="#1B1B1B" stroke-width="0.200803"/>
<path d="M31.7192 22.7913H28.4059C28.4059 26.6467 25.5277 28.146 24.0886 28.4138H15.6549C12.7633 27.8515 11.3042 25.636 10.936 24.5985H8.62679L8.02438 25.2009C9.14888 30.1005 13.1783 31.4593 15.0525 31.5262H24.3898C30.4943 31.1246 31.8196 25.5356 31.7192 22.7913Z" stroke="#1B1B1B" stroke-width="0.200803"/>
<path d="M41.358 25.5027H38.7475C37.7033 22.7718 35.2335 21.7544 34.129 21.5871H26.1973C23.3058 22.069 21.8466 24.7999 21.4784 26.1051V27.5108H18.366V25.6031C19.0889 20.4626 23.3526 18.7089 25.3941 18.4746H34.7315C39.0688 19.1975 41.291 22.9257 41.86 24.6995L41.358 25.5027Z" fill="#EE5922"/>
<path d="M21.4784 32.832H18.2656V34.9405C19.4704 40.2417 23.7207 41.9017 25.6953 42.069H34.6311C39.2897 41.5871 41.2576 37.9191 41.6592 36.1453V35.6433L41.0568 35.0409H38.8479C37.0809 38.1734 35.2335 38.8896 34.5307 38.8561H26.0969C22.8841 38.2939 21.6792 35.6768 21.4784 34.4385V32.832Z" fill="#EE5922"/>
<path d="M41.358 25.5027H38.7475C37.7033 22.7718 35.2335 21.7544 34.129 21.5871H26.1973C23.3058 22.069 21.8466 24.7999 21.4784 26.1051V27.5108H18.366V25.6031C19.0889 20.4626 23.3526 18.7089 25.3941 18.4746H34.7315C39.0688 19.1975 41.291 22.9257 41.86 24.6995L41.358 25.5027Z" stroke="#1B1B1B" stroke-width="0.200803"/>
<path d="M21.4784 32.832H18.2656V34.9405C19.4704 40.2417 23.7207 41.9017 25.6953 42.069H34.6311C39.2897 41.5871 41.2576 37.9191 41.6592 36.1453V35.6433L41.0568 35.0409H38.8479C37.0809 38.1734 35.2335 38.8896 34.5307 38.8561H26.0969C22.8841 38.2939 21.6792 35.6768 21.4784 34.4385V32.832Z" stroke="#1B1B1B" stroke-width="0.200803"/>
<path fill-rule="evenodd" clip-rule="evenodd" d="M57.785 9.3082C56.9334 9.49173 55.8773 10.052 55.8773 10.32C55.8773 10.4743 56.0129 10.8626 56.1783 11.1829C56.4745 11.7556 56.491 11.7602 57.1759 11.4741C58.0016 11.1291 58.8514 11.1026 59.6293 11.3974C60.2322 11.6257 61.0982 12.3488 61.0982 12.6237C61.0982 12.7148 60.3301 12.7895 59.3914 12.7895H57.6846V13.6931V14.5968H59.3914C61.2972 14.5968 61.4807 14.7618 60.5785 15.6642C60.2526 15.9899 59.7305 16.2331 59.1791 16.3158C58.3896 16.4341 57.9583 16.3584 56.8438 15.9058C56.5868 15.8016 56.4044 15.9652 56.0894 16.5827L55.6739 17.397L56.1271 17.6925C57.6902 18.7122 60.686 18.4373 62.0689 17.1474C63.3902 15.9148 63.7994 13.3371 62.9408 11.654C62.0113 9.8321 59.8713 8.8584 57.785 9.3082ZM107.91 9.36483C105.216 10.0468 103.812 13.2945 105.08 15.9134C106.405 18.6518 110.595 19.1779 112.732 16.8743C113.705 15.8249 113.957 15.0765 113.877 13.4755C113.814 12.2421 113.708 11.8769 113.202 11.1566C112.164 9.67969 109.812 8.8835 107.91 9.36483ZM65.8386 9.69354C65.7715 9.86824 65.7135 10.4781 65.7097 11.049C65.7012 12.3078 65.2408 14.9891 64.9352 15.5604C64.8131 15.7885 64.5324 16.0325 64.3113 16.1028C63.9809 16.2076 63.9095 16.4064 63.9095 17.2207V18.2112H64.6193C65.5392 18.2112 66.2468 17.7345 66.7285 16.7901C67.1117 16.0391 67.7247 13.0668 67.7247 11.96C67.7247 11.4026 67.7573 11.3839 68.7287 11.3839H69.7328V14.7976V18.2112H70.7368H71.7408V13.7935V9.37587H68.8506C66.4004 9.37587 65.942 9.42427 65.8386 9.69354ZM73.9496 13.7935V18.2112H76.6605H79.3713V17.2072V16.2032H77.6645H75.9577V15.5004V14.7976H77.3633H78.7689V13.7935V12.7895H77.3633H75.9577V12.0867V11.3839H77.5641H79.1705V10.3799V9.37587H76.5601H73.9496V13.7935ZM81.1785 13.7935V18.2112H82.1755H83.1725L83.2297 16.2002L83.287 14.1889L84.6946 16.15L86.1022 18.1108L87.3552 18.1707C88.0444 18.2034 88.6083 18.1662 88.6083 18.0877C88.6083 18.0092 87.8474 16.9321 86.9175 15.6939L85.2267 13.4429L86.8171 11.4893C87.6918 10.415 88.4075 9.49977 88.4075 9.45579C88.4075 9.41181 87.8731 9.37587 87.2199 9.37587H86.0325L84.6597 11.1839L83.287 12.9919L83.2291 11.1839L83.1715 9.37587H82.1749H81.1785V13.7935ZM88.8091 10.3799V11.3839H90.1143H91.4195V14.808V18.2323L92.4737 18.1715L93.5279 18.1108L93.583 14.7568L93.638 11.4028L94.8882 11.3431L96.1384 11.2835L96.1996 10.3297L96.2609 9.37587H92.535H88.8091V10.3799ZM97.289 13.7433L97.3432 18.1108L98.3974 18.1715L99.4516 18.2323V16.7156V15.1992H100.375C102.322 15.1992 103.568 14.049 103.568 12.252C103.568 11.0355 103.105 10.2666 102.048 9.72768C101.525 9.46081 100.863 9.37647 99.297 9.37627L97.235 9.37587L97.289 13.7433ZM115.516 13.7935V18.2323L116.57 18.1715L117.624 18.1108L117.682 16.3538L117.74 14.5968H119.239H120.737V16.404V18.2112H121.741H122.745V13.7935V9.37587H121.741H120.737V11.0827V12.7895H119.239H117.741L117.683 11.1329L117.624 9.47627L116.57 9.41563L115.516 9.35479V13.7935ZM124.954 13.7935V18.2112L125.907 18.2028L126.861 18.1945L128.719 15.5568L130.576 12.919V15.565V18.2112H131.681H132.785V13.7935V9.37587L131.831 9.37969L130.877 9.3835L129.07 11.9373L127.263 14.4911L127.207 11.9335L127.15 9.37587H126.052H124.954V13.7935ZM134.994 13.7935V18.2112H135.998H137.002V16.1747V14.1381L138.458 16.1719L139.913 18.2054L142.231 18.2084L144.549 18.2112L144.86 17.3578L145.171 16.5044L146.913 16.4464L148.656 16.3883L149.047 17.2998L149.437 18.2112H150.538H151.64L150.531 15.5506C149.921 14.0873 149.097 12.0994 148.7 11.1329L147.977 9.37587H147.039H146.1L144.332 13.6429C143.36 15.9899 142.54 17.9403 142.51 17.9775C142.48 18.0146 141.674 17.004 140.718 15.7315L138.98 13.4178L140.608 11.447L142.236 9.47627L141.199 9.41463C140.629 9.38069 140.045 9.39816 139.901 9.45318C139.758 9.5082 139.047 10.3403 138.321 11.3024L137.002 13.0516V11.2136V9.37587H135.998H134.994V13.7935ZM110.502 11.4877C112.166 12.3482 112.091 15.4072 110.389 16.1186C109.516 16.4831 109.007 16.4787 108.208 16.0996C107.052 15.551 106.539 13.9176 107.077 12.5016C107.502 11.3829 109.281 10.8564 110.502 11.4877ZM101.328 11.82C101.477 12.0578 101.469 12.3072 101.302 12.6735C101.106 13.105 100.932 13.1911 100.259 13.1911H99.4516V12.2761V11.3608L100.285 11.4227C100.793 11.4602 101.2 11.6152 101.328 11.82ZM147.773 14.3341C147.725 14.3819 147.327 14.3929 146.889 14.3584L146.091 14.2955L146.507 13.2032L146.924 12.111L147.392 13.1791C147.649 13.7664 147.821 14.2863 147.773 14.3341ZM63.2066 23.703C59.8185 24.5859 57.5683 27.1755 57.0687 30.766C56.4876 34.9447 58.2838 38.4694 61.8567 40.162C63.1591 40.7791 63.2988 40.8016 65.8217 40.8016C68.3816 40.8016 68.4653 40.7875 69.8012 40.1297C70.5518 39.76 71.2179 39.3218 71.2816 39.1558C71.3994 38.8492 70.1454 36.0231 69.9434 36.1399C68.1191 37.1945 66.3269 37.4943 64.6976 37.0176C62.444 36.3582 61.2127 34.6427 61.2109 32.1598C61.2079 28.1329 64.5171 26.0767 68.385 27.7024C69.4932 28.1682 69.4117 28.2231 70.4356 26.3227L71.038 25.2046L70.4356 24.7221C70.1042 24.4566 69.4265 24.0941 68.9295 23.9164C67.7281 23.4871 64.4976 23.3664 63.2066 23.703ZM142.323 23.703C137.982 24.8345 135.515 28.8506 136.199 33.6737C136.62 36.6482 138.261 38.8771 140.973 40.162C142.276 40.7791 142.415 40.8016 144.938 40.8016C147.498 40.8016 147.582 40.7875 148.918 40.1297C149.668 39.76 150.334 39.3218 150.398 39.1558C150.516 38.8492 149.262 36.0231 149.06 36.1399C144.774 38.6178 140.347 36.657 140.332 32.2731C140.324 30.0323 141.167 28.502 142.906 27.601C144.047 27.01 145.968 27.0305 147.401 27.6486C148.626 28.1771 148.551 28.2241 149.586 26.2807L150.154 25.2136L149.552 24.7265C149.221 24.4588 148.543 24.0941 148.046 23.9164C146.845 23.4871 143.614 23.3664 142.323 23.703ZM74.0414 23.8841C73.9884 24.0223 73.9687 27.8401 73.9976 32.368L74.05 40.6008L79.2207 40.6544L84.3914 40.708V38.797V36.8859H81.1785H77.9657V35.4803V34.0747H80.6765H83.3874V32.167V30.2594H80.6765H77.9657V28.8538V27.4482H81.0781H84.1906V25.5405V23.6329H79.1643C75.3263 23.6329 74.1151 23.6923 74.0414 23.8841ZM88.0058 32.167V40.7012H90.0139H92.0219L92.0235 37.8397L92.0251 34.9783L93.7838 34.9584C96.5922 34.9265 98.3892 33.9287 99.4456 31.8146C100.779 29.1466 99.9079 25.8933 97.5135 24.5966C96.1532 23.8598 94.6386 23.6329 91.0813 23.6329H88.0058V32.167ZM103.267 32.1482V40.7012H106.544C110.199 40.7012 111.306 40.4863 112.644 39.5174C113.905 38.6036 114.366 37.6887 114.47 35.8901C114.574 34.0899 114.176 33.0588 113.019 32.1359L112.329 31.5849L113.008 30.8331C114.865 28.7773 114.267 25.5136 111.801 24.252C110.849 23.7644 110.603 23.7343 107.032 23.6666L103.267 23.5953V32.1482ZM118.126 32.167V40.7012L119.883 40.6919L121.64 40.6827L125.255 35.5885L128.869 30.4943L128.923 35.5978L128.977 40.7012H130.981H132.986V32.167V23.6329H131.287H129.589L125.916 28.7739L122.243 33.9148L122.189 28.7739L122.136 23.6329H120.131H118.126V32.167ZM109.19 27.5353C109.967 27.8602 110.266 28.5859 109.969 29.4299C109.736 30.0917 109.02 30.4536 107.936 30.4572L107.082 30.4602V28.9688C107.082 27.7174 107.139 27.4628 107.434 27.3857C108.095 27.213 108.501 27.2476 109.19 27.5353ZM95.3442 27.9411C95.7177 28.3144 95.8356 28.6429 95.8307 29.2966C95.8201 30.7391 95.0956 31.2634 93.1133 31.2634H92.0219V29.3558V27.4482H93.4366C94.6709 27.4482 94.9143 27.511 95.3442 27.9411ZM110.234 34.3293C110.73 34.8253 110.675 35.9923 110.131 36.5371C109.766 36.9016 109.457 36.9831 108.434 36.9845L107.183 36.9863L107.124 35.407L107.064 33.8275L108.478 33.9074C109.46 33.9628 109.997 34.0919 110.234 34.3293Z" fill="white"/>
</svg>
