<svg width="152" height="50" viewBox="0 0 152 50" fill="none" xmlns="http://www.w3.org/2000/svg">
<rect x="-0.00683594" width="50.6024" height="50" rx="16.0643" fill="#1B1B1B"/>
<path d="M10.9361 15.2611H9.02843L8.22522 14.5583C8.5465 10.3816 13.2453 8.4673 15.5545 8.03223H23.4863C29.0284 8.59448 31.2841 13.4204 31.7192 15.7631V17.1688H28.4059C28.5666 12.9117 25.4608 11.5128 23.8879 11.3455H15.9561C13.6268 11.1848 11.6389 13.889 10.9361 15.2611Z" fill="white"/>
<path d="M18.8678 21.2852L21.7794 18.5744L16.4581 18.474L15.9561 19.0764V20.7832L16.4581 21.2852H18.8678Z" fill="white"/>
<path d="M31.7192 22.7913H28.4059C28.4059 26.6467 25.5278 28.146 24.0887 28.4138H15.6549C12.7634 27.8515 11.3042 25.636 10.9361 24.5985H8.62682L8.02441 25.2009C9.14891 30.1005 13.1784 31.4593 15.0525 31.5262H24.3899C30.4943 31.1246 31.8196 25.5356 31.7192 22.7913Z" fill="white"/>
<path d="M10.9361 15.2611H9.02843L8.22522 14.5583C8.5465 10.3816 13.2453 8.4673 15.5545 8.03223H23.4863C29.0284 8.59448 31.2841 13.4204 31.7192 15.7631V17.1688H28.4059C28.5666 12.9117 25.4608 11.5128 23.8879 11.3455H15.9561C13.6268 11.1848 11.6389 13.889 10.9361 15.2611Z" stroke="#1B1B1B" stroke-width="0.200803"/>
<path d="M18.8678 21.2852L21.7794 18.5744L16.4581 18.474L15.9561 19.0764V20.7832L16.4581 21.2852H18.8678Z" stroke="#1B1B1B" stroke-width="0.200803"/>
<path d="M31.7192 22.7913H28.4059C28.4059 26.6467 25.5278 28.146 24.0887 28.4138H15.6549C12.7634 27.8515 11.3042 25.636 10.9361 24.5985H8.62682L8.02441 25.2009C9.14891 30.1005 13.1784 31.4593 15.0525 31.5262H24.3899C30.4943 31.1246 31.8196 25.5356 31.7192 22.7913Z" stroke="#1B1B1B" stroke-width="0.200803"/>
<path d="M41.358 25.5027H38.7476C37.7034 22.7718 35.2335 21.7544 34.1291 21.5871H26.1974C23.3058 22.069 21.8466 24.7999 21.4785 26.1051V27.5108H18.366V25.6031C19.0889 20.4626 23.3526 18.7089 25.3941 18.4746H34.7315C39.0688 19.1975 41.2911 22.9257 41.86 24.6995L41.358 25.5027Z" fill="#EE5922"/>
<path d="M21.4785 32.832H18.2656V34.9405C19.4704 40.2417 23.7208 41.9017 25.6953 42.069H34.6311C39.2897 41.5871 41.2576 37.9191 41.6592 36.1453V35.6433L41.0568 35.0409H38.848C37.0809 38.1734 35.2335 38.8896 34.5307 38.8561H26.097C22.8841 38.2939 21.6793 35.6768 21.4785 34.4385V32.832Z" fill="#EE5922"/>
<path d="M41.358 25.5027H38.7476C37.7034 22.7718 35.2335 21.7544 34.1291 21.5871H26.1974C23.3058 22.069 21.8466 24.7999 21.4785 26.1051V27.5108H18.366V25.6031C19.0889 20.4626 23.3526 18.7089 25.3941 18.4746H34.7315C39.0688 19.1975 41.2911 22.9257 41.86 24.6995L41.358 25.5027Z" stroke="#1B1B1B" stroke-width="0.200803"/>
<path d="M21.4785 32.832H18.2656V34.9405C19.4704 40.2417 23.7208 41.9017 25.6953 42.069H34.6311C39.2897 41.5871 41.2576 37.9191 41.6592 36.1453V35.6433L41.0568 35.0409H38.848C37.0809 38.1734 35.2335 38.8896 34.5307 38.8561H26.097C22.8841 38.2939 21.6793 35.6768 21.4785 34.4385V32.832Z" stroke="#1B1B1B" stroke-width="0.200803"/>
<path fill-rule="evenodd" clip-rule="evenodd" d="M57.7849 9.3082C56.9333 9.49173 55.8772 10.052 55.8772 10.32C55.8772 10.4743 56.0128 10.8626 56.1782 11.1829C56.4744 11.7556 56.4909 11.7602 57.1758 11.4741C58.0015 11.1291 58.8513 11.1026 59.6292 11.3974C60.2321 11.6257 61.0981 12.3488 61.0981 12.6237C61.0981 12.7148 60.3301 12.7895 59.3913 12.7895H57.6845V13.6931V14.5968H59.3913C61.2971 14.5968 61.4807 14.7618 60.5784 15.6642C60.2525 15.9899 59.7305 16.2331 59.179 16.3158C58.3895 16.4341 57.9582 16.3584 56.8437 15.9058C56.5867 15.8016 56.4044 15.9652 56.0893 16.5827L55.6738 17.397L56.127 17.6925C57.6901 18.7122 60.6859 18.4373 62.0688 17.1474C63.3901 15.9148 63.7993 13.3371 62.9407 11.654C62.0112 9.8321 59.8712 8.8584 57.7849 9.3082ZM107.91 9.36483C105.216 10.0468 103.812 13.2945 105.08 15.9134C106.405 18.6518 110.595 19.1779 112.732 16.8743C113.705 15.8249 113.957 15.0765 113.876 13.4755C113.814 12.2421 113.708 11.8769 113.202 11.1566C112.164 9.67969 109.812 8.8835 107.91 9.36483ZM65.8385 9.69354C65.7714 9.86824 65.7134 10.4781 65.7096 11.049C65.7011 12.3078 65.2407 14.9891 64.9351 15.5604C64.813 15.7885 64.5323 16.0325 64.3112 16.1028C63.9809 16.2076 63.9094 16.4064 63.9094 17.2207V18.2112H64.6192C65.5391 18.2112 66.2467 17.7345 66.7284 16.7901C67.1116 16.0391 67.7246 13.0668 67.7246 11.96C67.7246 11.4026 67.7572 11.3839 68.7286 11.3839H69.7327V14.7976V18.2112H70.7367H71.7407V13.7935V9.37587H68.8505C66.4003 9.37587 65.9419 9.42427 65.8385 9.69354ZM73.9495 13.7935V18.2112H76.6604H79.3712V17.2072V16.2032H77.6644H75.9576V15.5004V14.7976H77.3632H78.7688V13.7935V12.7895H77.3632H75.9576V12.0867V11.3839H77.564H79.1704V10.3799V9.37587H76.56H73.9495V13.7935ZM81.1784 13.7935V18.2112H82.1754H83.1724L83.2296 16.2002L83.2869 14.1889L84.6945 16.15L86.1021 18.1108L87.3552 18.1707C88.0443 18.2034 88.6082 18.1662 88.6082 18.0877C88.6082 18.0092 87.8473 16.9321 86.9174 15.6939L85.2266 13.4429L86.817 11.4893C87.6917 10.415 88.4074 9.49977 88.4074 9.45579C88.4074 9.41181 87.873 9.37587 87.2198 9.37587H86.0325L84.6596 11.1839L83.2869 12.9919L83.229 11.1839L83.1714 9.37587H82.1748H81.1784V13.7935ZM88.809 10.3799V11.3839H90.1142H91.4194V14.808V18.2323L92.4736 18.1715L93.5278 18.1108L93.5829 14.7568L93.6379 11.4028L94.8881 11.3431L96.1383 11.2835L96.1995 10.3297L96.2608 9.37587H92.5349H88.809V10.3799ZM97.2889 13.7433L97.3431 18.1108L98.3973 18.1715L99.4515 18.2323V16.7156V15.1992H100.375C102.322 15.1992 103.568 14.049 103.568 12.252C103.568 11.0355 103.105 10.2666 102.048 9.72768C101.525 9.46081 100.863 9.37647 99.2969 9.37627L97.2349 9.37587L97.2889 13.7433ZM115.516 13.7935V18.2323L116.57 18.1715L117.624 18.1108L117.682 16.3538L117.74 14.5968H119.238H120.737V16.404V18.2112H121.741H122.745V13.7935V9.37587H121.741H120.737V11.0827V12.7895H119.239H117.741L117.682 11.1329L117.624 9.47627L116.57 9.41563L115.516 9.35479V13.7935ZM124.954 13.7935V18.2112L125.907 18.2028L126.861 18.1945L128.719 15.5568L130.576 12.919V15.565V18.2112H131.68H132.785V13.7935V9.37587L131.831 9.37969L130.877 9.3835L129.07 11.9373L127.263 14.4911L127.207 11.9335L127.15 9.37587H126.052H124.954V13.7935ZM134.994 13.7935V18.2112H135.998H137.002V16.1747V14.1381L138.458 16.1719L139.913 18.2054L142.231 18.2084L144.549 18.2112L144.86 17.3578L145.171 16.5044L146.913 16.4464L148.656 16.3883L149.046 17.2998L149.437 18.2112H150.538H151.639L150.531 15.5506C149.921 14.0873 149.097 12.0994 148.7 11.1329L147.977 9.37587H147.038H146.1L144.332 13.6429C143.36 15.9899 142.54 17.9403 142.51 17.9775C142.48 18.0146 141.674 17.004 140.718 15.7315L138.98 13.4178L140.608 11.447L142.235 9.47627L141.199 9.41463C140.629 9.38069 140.045 9.39816 139.901 9.45318C139.758 9.5082 139.047 10.3403 138.321 11.3024L137.002 13.0516V11.2136V9.37587H135.998H134.994V13.7935ZM110.502 11.4877C112.166 12.3482 112.091 15.4072 110.388 16.1186C109.516 16.4831 109.007 16.4787 108.208 16.0996C107.052 15.551 106.539 13.9176 107.077 12.5016C107.502 11.3829 109.281 10.8564 110.502 11.4877ZM101.328 11.82C101.477 12.0578 101.469 12.3072 101.302 12.6735C101.106 13.105 100.932 13.1911 100.259 13.1911H99.4515V12.2761V11.3608L100.284 11.4227C100.793 11.4602 101.2 11.6152 101.328 11.82ZM147.773 14.3341C147.725 14.3819 147.327 14.3929 146.889 14.3584L146.091 14.2955L146.507 13.2032L146.924 12.111L147.392 13.1791C147.649 13.7664 147.821 14.2863 147.773 14.3341ZM63.2066 23.703C59.8184 24.5859 57.5682 27.1755 57.0686 30.766C56.4875 34.9447 58.2837 38.4694 61.8566 40.162C63.159 40.7791 63.2987 40.8016 65.8216 40.8016C68.3815 40.8016 68.4652 40.7875 69.8011 40.1297C70.5517 39.76 71.2178 39.3218 71.2815 39.1558C71.3993 38.8492 70.1453 36.0231 69.9433 36.1399C68.119 37.1945 66.3268 37.4943 64.6975 37.0176C62.4439 36.3582 61.2126 34.6427 61.2108 32.1598C61.2078 28.1329 64.517 26.0767 68.3849 27.7024C69.4931 28.1682 69.4116 28.2231 70.4355 26.3227L71.0379 25.2046L70.4355 24.7221C70.1041 24.4566 69.4264 24.0941 68.9294 23.9164C67.728 23.4871 64.4975 23.3664 63.2066 23.703ZM142.323 23.703C137.981 24.8345 135.515 28.8506 136.199 33.6737C136.62 36.6482 138.261 38.8771 140.973 40.162C142.275 40.7791 142.415 40.8016 144.938 40.8016C147.498 40.8016 147.582 40.7875 148.918 40.1297C149.668 39.76 150.334 39.3218 150.398 39.1558C150.516 38.8492 149.262 36.0231 149.06 36.1399C144.773 38.6178 140.347 36.657 140.332 32.2731C140.324 30.0323 141.167 28.502 142.906 27.601C144.047 27.01 145.968 27.0305 147.401 27.6486C148.626 28.1771 148.551 28.2241 149.586 26.2807L150.154 25.2136L149.552 24.7265C149.221 24.4588 148.543 24.0941 148.046 23.9164C146.844 23.4871 143.614 23.3664 142.323 23.703ZM74.0413 23.8841C73.9883 24.0223 73.9686 27.8401 73.9975 32.368L74.0499 40.6008L79.2206 40.6544L84.3913 40.708V38.797V36.8859H81.1784H77.9656V35.4803V34.0747H80.6764H83.3873V32.167V30.2594H80.6764H77.9656V28.8538V27.4482H81.078H84.1905V25.5405V23.6329H79.1642C75.3262 23.6329 74.115 23.6923 74.0413 23.8841ZM88.0058 32.167V40.7012H90.0138H92.0218L92.0234 37.8397L92.025 34.9783L93.7837 34.9584C96.5921 34.9265 98.3891 33.9287 99.4455 31.8146C100.779 29.1466 99.9078 25.8933 97.5134 24.5966C96.1531 23.8598 94.6385 23.6329 91.0812 23.6329H88.0058V32.167ZM103.267 32.1482V40.7012H106.543C110.199 40.7012 111.306 40.4863 112.643 39.5174C113.905 38.6036 114.366 37.6887 114.47 35.8901C114.574 34.0899 114.176 33.0588 113.019 32.1359L112.328 31.5849L113.008 30.8331C114.865 28.7773 114.267 25.5136 111.801 24.252C110.849 23.7644 110.603 23.7343 107.032 23.6666L103.267 23.5953V32.1482ZM118.126 32.167V40.7012L119.883 40.6919L121.64 40.6827L125.255 35.5885L128.869 30.4943L128.923 35.5978L128.976 40.7012H130.981H132.986V32.167V23.6329H131.287H129.589L125.916 28.7739L122.243 33.9148L122.189 28.7739L122.135 23.6329H120.131H118.126V32.167ZM109.19 27.5353C109.967 27.8602 110.266 28.5859 109.969 29.4299C109.736 30.0917 109.02 30.4536 107.935 30.4572L107.082 30.4602V28.9688C107.082 27.7174 107.138 27.4628 107.433 27.3857C108.095 27.213 108.501 27.2476 109.19 27.5353ZM95.3441 27.9411C95.7176 28.3144 95.8355 28.6429 95.8307 29.2966C95.82 30.7391 95.0955 31.2634 93.1132 31.2634H92.0218V29.3558V27.4482H93.4365C94.6708 27.4482 94.9142 27.511 95.3441 27.9411ZM110.234 34.3293C110.73 34.8253 110.675 35.9923 110.13 36.5371C109.766 36.9016 109.457 36.9831 108.434 36.9845L107.182 36.9863L107.123 35.407L107.064 33.8275L108.478 33.9074C109.46 33.9628 109.997 34.0919 110.234 34.3293Z" fill="#EFEFEF"/>
</svg>
