<svg width="30" height="31" viewBox="0 0 30 31" fill="none" xmlns="http://www.w3.org/2000/svg">
<path d="M17 16C17 17.125 16.0625 18 15 18C13.875 18 13 17.125 13 16V2C13 0.9375 13.875 0 15 0C16.0625 0 17 0.9375 17 2V16ZM4 16C4 22.125 8.875 27 15 27C21.0625 27 26 22.125 26 16C26 12.625 24.4375 9.5625 22 7.5625C21.125 6.875 21.0625 5.625 21.75 4.75C22.4375 3.875 23.6875 3.8125 24.5625 4.5C27.875 7.25 30 11.375 30 16C30 24.3125 23.25 31 15 31C6.6875 31 0 24.3125 0 16C0 11.375 2.0625 7.25 5.375 4.5C6.25 3.8125 7.5 3.875 8.1875 4.75C8.875 5.625 8.8125 6.875 7.9375 7.5625C5.5 9.5625 4 12.625 4 16Z" fill="#E32967"/>
</svg>
