<svg width="24" height="19" viewBox="0 0 24 19" fill="none" xmlns="http://www.w3.org/2000/svg">
<path d="M23.8125 7.98438V8.64062C23.8125 8.91406 23.7168 9.14648 23.5254 9.33789C23.334 9.5293 23.1016 9.625 22.8281 9.625H22.5L21.4336 17.1309C21.3789 17.4316 21.2559 17.7051 21.0645 17.9512C20.9004 18.2246 20.668 18.4297 20.3672 18.5664C20.0938 18.7305 19.793 18.8125 19.4648 18.8125H4.53516C4.04297 18.8125 3.60547 18.6484 3.22266 18.3203C2.86719 18.0195 2.64844 17.623 2.56641 17.1309L1.5 9.625H1.17188C0.898438 9.625 0.666016 9.5293 0.474609 9.33789C0.283203 9.14648 0.1875 8.91406 0.1875 8.64062V7.98438C0.1875 7.71094 0.283203 7.47852 0.474609 7.28711C0.666016 7.0957 0.898438 7 1.17188 7H3.91992L8.30859 0.970703C8.52734 0.669922 8.81445 0.492187 9.16992 0.4375C9.52539 0.382813 9.85352 0.464844 10.1543 0.683594C10.4551 0.902344 10.6328 1.18945 10.6875 1.54492C10.7422 1.90039 10.6602 2.22852 10.4414 2.5293L7.16016 7H16.8398L13.5586 2.5293C13.3398 2.22852 13.2578 1.90039 13.3125 1.54492C13.3672 1.18945 13.5449 0.902344 13.8457 0.683594C14.1465 0.464844 14.4746 0.382813 14.8301 0.4375C15.1855 0.492187 15.4727 0.669922 15.6914 0.970703L20.0801 7H22.8281C23.1016 7 23.334 7.0957 23.5254 7.28711C23.7168 7.47852 23.8125 7.71094 23.8125 7.98438ZM12.9844 15.2031V10.6094C12.9844 10.3359 12.8887 10.1035 12.6973 9.91211C12.5059 9.7207 12.2734 9.625 12 9.625C11.7266 9.625 11.4941 9.7207 11.3027 9.91211C11.1113 10.1035 11.0156 10.3359 11.0156 10.6094V15.2031C11.0156 15.4766 11.1113 15.709 11.3027 15.9004C11.4941 16.0918 11.7266 16.1875 12 16.1875C12.2734 16.1875 12.5059 16.0918 12.6973 15.9004C12.8887 15.709 12.9844 15.4766 12.9844 15.2031ZM17.5781 15.2031V10.6094C17.5781 10.3359 17.4824 10.1035 17.291 9.91211C17.0996 9.7207 16.8672 9.625 16.5938 9.625C16.3203 9.625 16.0879 9.7207 15.8965 9.91211C15.7051 10.1035 15.6094 10.3359 15.6094 10.6094V15.2031C15.6094 15.4766 15.7051 15.709 15.8965 15.9004C16.0879 16.0918 16.3203 16.1875 16.5938 16.1875C16.8672 16.1875 17.0996 16.0918 17.291 15.9004C17.4824 15.709 17.5781 15.4766 17.5781 15.2031ZM8.39062 15.2031V10.6094C8.39062 10.3359 8.29492 10.1035 8.10352 9.91211C7.91211 9.7207 7.67969 9.625 7.40625 9.625C7.13281 9.625 6.90039 9.7207 6.70898 9.91211C6.51758 10.1035 6.42188 10.3359 6.42188 10.6094V15.2031C6.42188 15.4766 6.51758 15.709 6.70898 15.9004C6.90039 16.0918 7.13281 16.1875 7.40625 16.1875C7.67969 16.1875 7.91211 16.0918 8.10352 15.9004C8.29492 15.709 8.39062 15.4766 8.39062 15.2031Z" fill="white"/>
</svg>
