<svg width="12" height="15" viewBox="0 0 12 15" fill="none" xmlns="http://www.w3.org/2000/svg">
<path d="M6 2.875C4.55078 2.875 3.375 4.07812 3.375 5.5C3.375 6.94922 4.55078 8.125 6 8.125C7.42188 8.125 8.625 6.94922 8.625 5.5C8.625 4.07812 7.42188 2.875 6 2.875ZM6 7.25C5.01562 7.25 4.25 6.48438 4.25 5.5C4.25 4.54297 5.01562 3.75 6 3.75C6.95703 3.75 7.75 4.54297 7.75 5.5C7.75 6.48438 6.95703 7.25 6 7.25ZM6 0.25C3.07422 0.25 0.75 2.60156 0.75 5.5C0.75 7.63281 1.46094 8.23438 5.45312 13.9766C5.69922 14.3594 6.27344 14.3594 6.51953 13.9766C10.5117 8.23438 11.25 7.63281 11.25 5.5C11.25 2.60156 8.89844 0.25 6 0.25ZM6 13.2109C2.17188 7.71484 1.625 7.27734 1.625 5.5C1.625 4.35156 2.0625 3.25781 2.88281 2.41016C3.73047 1.58984 4.82422 1.125 6 1.125C7.14844 1.125 8.24219 1.58984 9.08984 2.41016C9.91016 3.25781 10.375 4.35156 10.375 5.5C10.375 7.27734 9.80078 7.71484 6 13.2109Z" fill="#323232"/>
</svg>
