<svg width="20" height="21" viewBox="0 0 20 21" fill="none" xmlns="http://www.w3.org/2000/svg">
<path d="M17.1902 13.8324C17.1254 13.7543 17.0617 13.6762 16.9992 13.6008C16.1398 12.5613 15.6199 11.934 15.6199 8.99141C15.6199 7.46797 15.2554 6.21797 14.5371 5.28047C14.0074 4.58789 13.2914 4.0625 12.3476 3.67422C12.3355 3.66746 12.3246 3.6586 12.3156 3.64805C11.9761 2.51133 11.0472 1.75 9.99959 1.75C8.95193 1.75 8.02342 2.51133 7.68396 3.64687C7.6749 3.65704 7.66421 3.66562 7.65232 3.67227C5.44998 4.57891 4.37967 6.31836 4.37967 8.99023C4.37967 11.934 3.86052 12.5613 3.00037 13.5996C2.93787 13.675 2.8742 13.7516 2.80935 13.8313C2.64185 14.0333 2.53573 14.279 2.50354 14.5394C2.47135 14.7999 2.51444 15.0641 2.62771 15.3008C2.86873 15.8086 3.3824 16.1238 3.96873 16.1238H16.0347C16.6183 16.1238 17.1285 15.809 17.3703 15.3035C17.4841 15.0668 17.5276 14.8023 17.4956 14.5416C17.4637 14.2809 17.3577 14.0348 17.1902 13.8324ZM9.99959 19.25C10.5641 19.2495 11.1179 19.0963 11.6023 18.8066C12.0867 18.5168 12.4837 18.1014 12.7512 17.6043C12.7637 17.5805 12.77 17.5538 12.7692 17.5269C12.7685 17.4999 12.7607 17.4736 12.7468 17.4506C12.7329 17.4275 12.7133 17.4084 12.6898 17.3952C12.6663 17.3819 12.6398 17.375 12.6129 17.375H7.38709C7.36011 17.3749 7.33356 17.3818 7.31003 17.395C7.2865 17.4082 7.2668 17.4273 7.25284 17.4504C7.23887 17.4735 7.23113 17.4998 7.23035 17.5268C7.22958 17.5537 7.2358 17.5804 7.24842 17.6043C7.51581 18.1013 7.91273 18.5167 8.39709 18.8065C8.88145 19.0962 9.43519 19.2495 9.99959 19.25Z" fill="#282B3D"/>
</svg>
