<svg width="222" height="154" viewBox="0 0 222 154" fill="none" xmlns="http://www.w3.org/2000/svg">
<path d="M209.963 38.7983C209.937 38.8653 142.293 39.3475 136.078 39.4144C130.104 39.468 124.184 39.6689 118.21 39.4412C117.071 39.401 115.692 39.2135 115.29 38.4098C115.169 38.1687 115.169 37.9008 115.156 37.6463C115.089 34.6593 115.089 31.6857 115.049 28.6987C115.035 28.0557 114.928 20.8226 114.982 20.8226C117.286 20.8092 119.603 20.7824 121.893 20.769C124.532 20.7422 127.171 20.7021 129.81 20.6753C136.628 20.5949 143.445 20.5011 150.263 20.4074C160.885 20.2734 171.534 20.0323 182.156 20.1529C187.809 20.2199 193.461 20.3002 199.114 20.394C201.364 20.4342 209.16 19.952 210.057 21.4388C210.218 21.7067 210.285 22.0147 210.312 22.3094C210.553 24.3722 210.459 26.4484 210.446 28.5112C210.432 30.5472 210.419 32.5831 210.405 34.6191C210.392 35.5702 210.258 37.874 209.963 38.7983Z" fill="#F5F6F8"/>
<path d="M115.504 21.3452C115.504 22.3766 115.531 25.0019 115.585 28.6185V28.6855C115.598 29.8642 115.611 31.0697 115.625 32.2217C115.638 33.9898 115.652 35.8248 115.692 37.6197C115.692 37.8206 115.705 38.0216 115.772 38.1555C115.919 38.4502 116.469 38.8252 118.237 38.8922C122.657 39.053 127.144 38.986 131.471 38.919C132.971 38.8922 134.538 38.8654 136.078 38.852C137.806 38.8386 144.356 38.7851 152.661 38.7181C172.726 38.5707 205.65 38.3162 209.562 38.2493C209.776 37.2581 209.883 35.4364 209.883 34.5925V34.5523L209.923 28.4845C209.923 28.0827 209.937 27.6809 209.937 27.2924C209.964 25.6583 209.99 23.9839 209.803 22.3498C209.776 22.1355 209.736 21.881 209.615 21.6934C209.562 21.5997 209.146 21.1309 206.334 20.9433C204.539 20.8228 202.409 20.863 200.855 20.8898C200.159 20.9032 199.542 20.9165 199.127 20.9032C193.582 20.8228 187.836 20.729 182.183 20.6621C174.026 20.5683 165.721 20.7022 157.697 20.8228C155.233 20.863 152.768 20.9032 150.317 20.9299C146.834 20.9701 143.352 21.0237 139.869 21.0639C136.534 21.1041 133.199 21.1577 129.863 21.1978C127.225 21.238 124.586 21.2648 121.947 21.2916H121.8C119.71 21.3184 117.594 21.3318 115.504 21.3452ZM124.318 40.071C122.269 40.071 120.219 40.0442 118.183 39.9638C116.991 39.9236 115.343 39.7361 114.808 38.6243C114.634 38.2761 114.634 37.9278 114.62 37.6465C114.58 35.8382 114.567 34.0032 114.553 32.2351C114.54 31.0697 114.54 29.8776 114.513 28.6989V28.6319C114.5 28.1497 114.473 26.2075 114.459 24.3858C114.446 23.341 114.446 22.5105 114.433 21.9212C114.433 20.6085 114.433 20.6085 114.593 20.4343C114.701 20.3272 114.834 20.2736 114.968 20.2736C117.232 20.2602 119.523 20.2468 121.733 20.22H121.88C124.519 20.1932 127.158 20.1531 129.796 20.1263C133.132 20.0861 136.467 20.0459 139.802 19.9923C143.285 19.9521 146.767 19.8986 150.25 19.8584C152.715 19.8316 155.166 19.7914 157.63 19.7512C165.667 19.6307 173.985 19.5101 182.156 19.5905C187.822 19.6574 193.555 19.7378 199.114 19.8316C199.516 19.8316 200.118 19.8316 200.802 19.8182C206.521 19.711 209.749 19.8986 210.499 21.1443C210.727 21.5193 210.794 21.9212 210.834 22.2292C211.035 23.9304 211.008 25.6583 210.982 27.3192C210.982 27.7211 210.968 28.1095 210.968 28.5113L210.928 34.6193C210.928 35.5971 210.794 37.968 210.473 38.9592C210.352 39.3342 210.097 39.3342 209.562 39.3476C209.294 39.3476 208.905 39.361 208.396 39.361C207.378 39.3744 205.918 39.3878 204.083 39.4012C200.721 39.428 195.832 39.4816 189.523 39.5218C177.937 39.6155 163.323 39.7227 152.648 39.8031C144.343 39.87 137.793 39.9102 136.065 39.937C134.525 39.9504 132.971 39.9772 131.471 40.004C129.127 40.0442 126.729 40.071 124.318 40.071Z" fill="#151515"/>
<path d="M114.981 13.6964C114.539 13.6964 114.178 13.3348 114.178 12.8927C114.178 12.4507 114.539 12.0891 114.981 12.0891C117.245 12.0757 142.534 11.7676 150.263 11.6738C150.705 11.6738 151.067 12.0221 151.08 12.4641C151.08 12.9061 150.732 13.2678 150.29 13.2812C144.624 13.3482 117.379 13.683 114.981 13.6964Z" fill="#EE5922"/>
<path d="M209.963 74.3207C209.937 74.3877 142.293 74.8699 136.078 74.9369C130.104 74.9905 124.184 75.1914 118.21 74.9637C117.071 74.9235 115.692 74.736 115.29 73.9323C115.169 73.6912 115.169 73.4233 115.156 73.1688C115.089 70.1818 115.089 67.2082 115.049 64.2212C115.035 63.5782 114.928 56.3451 114.982 56.3451C117.286 56.3317 119.603 56.3049 121.893 56.2915C124.532 56.2647 127.171 56.2245 129.81 56.1977C136.628 56.1174 143.445 56.0236 150.263 55.9298C160.885 55.7959 171.534 55.5548 182.156 55.6753C187.809 55.7423 193.461 55.8227 199.114 55.9164C201.364 55.9566 209.16 55.4744 210.057 56.9612C210.218 57.2291 210.285 57.5372 210.312 57.8319C210.553 59.8947 210.459 61.9708 210.446 64.0336C210.432 66.0696 210.419 68.1056 210.405 70.1416C210.392 71.0926 210.258 73.3965 209.963 74.3207Z" fill="#F5F6F8"/>
<path d="M115.504 56.8676C115.504 57.899 115.531 60.5244 115.585 64.141V64.2079C115.598 65.3867 115.611 66.5922 115.625 67.7441C115.638 69.5122 115.652 71.3473 115.692 73.1422C115.692 73.3431 115.705 73.544 115.772 73.678C115.919 73.9727 116.469 74.3477 118.237 74.4147C122.657 74.5754 127.144 74.5084 131.484 74.4415C132.984 74.4147 134.551 74.3879 136.078 74.3745C137.793 74.3611 144.316 74.3075 152.554 74.2539C172.659 74.1066 205.637 73.8521 209.548 73.7851C209.763 72.7939 209.87 70.9722 209.87 70.1284V70.0882L209.91 64.0204C209.91 63.6186 209.923 63.2167 209.923 62.8283C209.95 61.2075 209.977 59.5198 209.789 57.8856C209.763 57.6713 209.722 57.4168 209.602 57.2293C209.548 57.1355 209.133 56.6667 206.32 56.4792C204.525 56.3586 202.396 56.3988 200.842 56.4256C200.145 56.439 199.529 56.4524 199.114 56.439C193.555 56.3586 187.809 56.2649 182.17 56.1979C174.012 56.1041 165.707 56.2381 157.684 56.3586C155.219 56.3988 152.755 56.439 150.304 56.4658C146.821 56.506 143.338 56.5596 139.856 56.5997C136.52 56.6399 133.185 56.6935 129.85 56.7337C127.211 56.7605 124.572 56.8007 121.934 56.8275H121.826C119.724 56.8408 117.607 56.8542 115.504 56.8676ZM124.318 75.5934C122.269 75.5934 120.219 75.5666 118.183 75.4863C116.991 75.4461 115.343 75.2585 114.808 74.1468C114.634 73.7985 114.634 73.4503 114.62 73.169C114.58 71.3607 114.567 69.5256 114.553 67.7575C114.54 66.5922 114.54 65.4001 114.513 64.2213V64.1544C114.5 63.6721 114.473 61.7299 114.459 59.9082C114.446 58.8634 114.446 58.033 114.433 57.4436C114.433 56.1309 114.433 56.1309 114.593 55.9568C114.701 55.8496 114.834 55.7961 114.968 55.7961C117.232 55.7827 119.536 55.7693 121.773 55.7425H121.88C124.519 55.7157 127.158 55.6755 129.796 55.6487C133.132 55.6085 136.467 55.5684 139.802 55.5148C143.285 55.4746 146.767 55.421 150.25 55.3808C152.715 55.354 155.166 55.3139 157.63 55.2737C165.667 55.1531 173.972 55.0326 182.143 55.1129C187.795 55.1799 193.528 55.2603 199.087 55.354C199.502 55.354 200.092 55.354 200.788 55.3406C206.494 55.2335 209.736 55.421 210.486 56.6667C210.714 57.0418 210.781 57.4436 210.821 57.7517C211.022 59.4528 210.995 61.1807 210.968 62.8417C210.968 63.2435 210.955 63.632 210.955 64.0338L210.915 70.1418C210.915 71.1196 210.781 73.4904 210.459 74.4817C210.339 74.8567 210.084 74.8567 209.548 74.8701C209.28 74.8701 208.892 74.8835 208.383 74.8835C207.365 74.8969 205.892 74.9103 204.056 74.9237C200.694 74.9505 195.779 75.004 189.47 75.0442C177.856 75.138 163.229 75.2451 152.541 75.3255C144.289 75.3925 137.78 75.4327 136.065 75.4461C134.538 75.4595 132.971 75.4863 131.471 75.513C129.127 75.5666 126.729 75.5934 124.318 75.5934Z" fill="#151515"/>
<path d="M114.981 49.2189C114.539 49.2189 114.178 48.8572 114.178 48.4152C114.178 47.9732 114.539 47.6115 114.981 47.6115C117.245 47.5981 142.534 47.2901 150.263 47.1963H150.276C150.718 47.1963 151.067 47.5446 151.08 47.9866C151.08 48.4286 150.732 48.7903 150.29 48.8037C144.624 48.8706 117.379 49.2055 114.981 49.2189Z" fill="#EE5922"/>
<path d="M209.963 109.83C209.937 109.897 142.293 110.379 136.078 110.446C130.104 110.5 124.184 110.701 118.21 110.487C117.071 110.446 115.692 110.259 115.29 109.455C115.169 109.214 115.169 108.946 115.156 108.692C115.089 105.705 115.089 102.731 115.049 99.7441C115.035 99.1012 114.928 91.868 114.982 91.868C117.286 91.8546 119.603 91.8278 121.893 91.8145C124.532 91.7877 127.171 91.7475 129.81 91.7207C136.628 91.6269 143.445 91.5466 150.263 91.4528C160.885 91.3189 171.534 91.0777 182.156 91.1849C187.809 91.2519 193.461 91.3322 199.114 91.426C201.364 91.4662 209.16 90.984 210.057 92.4708C210.218 92.7387 210.285 93.0468 210.312 93.3414C210.553 95.4042 210.459 97.4804 210.446 99.5432C210.432 101.579 210.419 103.615 210.405 105.651C210.392 106.616 210.258 108.919 209.963 109.83Z" fill="#F5F6F8"/>
<path d="M115.504 92.3901C115.504 93.4215 115.531 96.0469 115.585 99.6634V99.7304C115.598 100.909 115.611 102.115 115.625 103.267C115.638 105.035 115.652 106.87 115.692 108.665C115.692 108.866 115.705 109.066 115.772 109.2C115.919 109.495 116.469 109.87 118.237 109.937C122.657 110.098 127.144 110.031 131.471 109.964C132.971 109.937 134.538 109.924 136.078 109.897C137.793 109.884 144.316 109.83 152.554 109.776C172.659 109.629 205.637 109.375 209.548 109.308C209.763 108.316 209.87 106.495 209.87 105.651V105.611L209.91 99.5429C209.91 99.141 209.923 98.7526 209.923 98.3507C209.95 96.7166 209.977 95.0423 209.789 93.4081C209.763 93.1938 209.722 92.9393 209.602 92.7384C209.548 92.6446 209.133 92.1758 206.32 91.9883C204.525 91.8677 202.396 91.9079 200.842 91.9347C200.145 91.9481 199.529 91.9615 199.114 91.9481C193.555 91.8677 187.809 91.7739 182.17 91.707C174.012 91.6132 165.707 91.7472 157.684 91.8677C155.219 91.9079 152.755 91.9347 150.304 91.9749C146.821 92.015 143.338 92.0686 139.856 92.1088C136.52 92.149 133.185 92.2026 129.85 92.2428C127.211 92.2695 124.572 92.3097 121.934 92.3365H121.826C119.724 92.3499 117.607 92.3767 115.504 92.3901ZM124.318 111.116C122.282 111.116 120.219 111.089 118.183 111.009C116.991 110.969 115.343 110.781 114.808 109.669C114.634 109.321 114.634 108.973 114.62 108.691C114.58 106.883 114.567 105.048 114.553 103.28C114.54 102.128 114.54 100.923 114.513 99.7438V99.6768C114.5 99.1946 114.473 97.2524 114.459 95.4307C114.446 94.3859 114.446 93.5554 114.433 92.9661C114.433 91.6534 114.433 91.6534 114.593 91.4793C114.701 91.3721 114.834 91.3185 114.968 91.3185C117.232 91.3051 119.536 91.2917 121.773 91.2649H121.88C124.519 91.2382 127.158 91.2114 129.796 91.1712C133.132 91.131 136.467 91.0908 139.802 91.0372C143.285 90.9971 146.767 90.9435 150.25 90.9033C152.715 90.8765 155.166 90.8363 157.63 90.7961C165.667 90.6756 173.972 90.555 182.143 90.6354C187.795 90.7024 193.528 90.7827 199.087 90.8765C199.502 90.8899 200.092 90.8765 200.788 90.8631C206.494 90.756 209.736 90.9435 210.486 92.1892C210.714 92.5642 210.781 92.9661 210.821 93.2742C211.022 94.9753 210.995 96.7032 210.968 98.3641C210.968 98.766 210.955 99.1544 210.955 99.5563L210.928 105.664C210.928 106.642 210.794 109.013 210.473 110.004C210.352 110.379 210.097 110.379 209.562 110.393C209.294 110.393 208.905 110.406 208.396 110.406C207.378 110.419 205.905 110.433 204.07 110.446C200.708 110.473 195.792 110.513 189.483 110.567C177.87 110.66 163.243 110.768 152.554 110.848C144.303 110.915 137.793 110.955 136.078 110.982C134.538 110.995 132.984 111.022 131.484 111.049C129.127 111.076 126.729 111.116 124.318 111.116Z" fill="#151515"/>
<path d="M114.981 84.7423C114.539 84.7423 114.178 84.3807 114.178 83.9386C114.178 83.4966 114.539 83.135 114.981 83.135C117.245 83.1216 142.534 82.8135 150.263 82.7197H150.276C150.718 82.7197 151.067 83.068 151.08 83.51C151.08 83.952 150.732 84.3137 150.29 84.3271C144.624 84.3941 117.379 84.7289 114.981 84.7423Z" fill="#EE5922"/>
<path d="M210.419 149.023C210.392 149.117 142.093 149.693 135.81 149.773C129.783 149.84 123.795 150.081 117.768 149.813C116.616 149.76 115.223 149.546 114.821 148.541C114.7 148.246 114.687 147.925 114.687 147.617C114.62 143.973 114.62 140.33 114.58 136.687C114.567 135.896 114.459 127.056 114.513 127.056C116.844 127.042 119.174 127.016 121.492 126.989C124.157 126.949 126.823 126.908 129.488 126.868C136.373 126.761 143.258 126.654 150.143 126.547C160.872 126.386 171.614 126.091 182.344 126.225C188.05 126.306 193.756 126.413 199.462 126.52C201.739 126.56 209.615 125.984 210.513 127.806C210.673 128.141 210.74 128.502 210.767 128.878C211.008 131.409 210.915 133.927 210.901 136.459C210.888 138.95 210.874 141.442 210.861 143.933C210.861 145.085 210.714 147.898 210.419 149.023Z" fill="#EE5922"/>
<path d="M126.3 30.4001C126.059 30.6948 125.992 31.0966 126.26 31.5655C127.01 32.8379 129.756 31.619 128.845 30.3465C128.671 30.1054 128.403 29.9447 128.095 29.8643C127.492 29.717 126.675 29.9313 126.3 30.4001Z" fill="#151515"/>
<path d="M136.976 30.4001C136.734 30.6948 136.667 31.0966 136.949 31.5655C137.699 32.8379 140.445 31.619 139.534 30.3465C139.36 30.1054 139.092 29.9447 138.784 29.8643C138.181 29.717 137.364 29.9313 136.976 30.4001Z" fill="#151515"/>
<path d="M147.665 30.4001C147.424 30.6948 147.357 31.0966 147.638 31.5655C148.388 32.8379 151.134 31.619 150.223 30.3465C150.049 30.1054 149.781 29.9447 149.473 29.8643C148.857 29.717 148.04 29.9313 147.665 30.4001Z" fill="#151515"/>
<path d="M209.214 123.868C209.187 123.868 209.174 123.868 209.147 123.868C208.852 123.828 208.651 123.56 208.678 123.265C209.026 120.6 209.576 117.921 210.312 115.335C210.393 115.054 210.687 114.893 210.969 114.974C211.25 115.054 211.424 115.349 211.33 115.63C210.594 118.162 210.058 120.787 209.723 123.399C209.71 123.667 209.482 123.868 209.214 123.868Z" fill="#151515"/>
<path d="M212.642 125.247C212.468 125.247 212.307 125.167 212.2 125.019C212.026 124.778 212.093 124.443 212.334 124.269C215.201 122.26 218 120.117 220.626 117.88C220.853 117.693 221.188 117.719 221.376 117.947C221.563 118.175 221.536 118.51 221.309 118.697C218.657 120.947 215.844 123.117 212.937 125.153C212.857 125.22 212.749 125.247 212.642 125.247Z" fill="#151515"/>
<path d="M214.531 129.641C214.25 129.641 214.023 129.426 213.996 129.145C213.982 128.85 214.197 128.596 214.491 128.569C216.246 128.449 217.974 128.315 219.621 128.167C219.916 128.141 220.171 128.355 220.197 128.65C220.224 128.944 220.01 129.199 219.715 129.225C218.054 129.373 216.313 129.507 214.558 129.627C214.558 129.641 214.545 129.641 214.531 129.641Z" fill="#151515"/>
<path d="M83.9199 89.7923C81.549 88.8145 79.3389 87.2205 77.544 84.997C70.0832 75.768 66.2389 63.0833 63.6805 51.671C61.3633 41.2767 60.3587 29.2081 54.4784 20.0193C49.6965 12.5451 39.7442 8.19183 31.6538 13.2684C22.1972 19.2291 23.1348 34.7669 23.6572 44.6522C24.059 52.3809 25.1976 63.8735 21.2328 71.1067C13.6246 84.9568 3.0026 98.8069 1.2479 115.122C-0.372857 130.231 6.91385 147.872 22.6392 152.212C33.355 155.172 49.6161 151.769 56.5814 143.103L83.9199 89.7923Z" fill="#F5F6F8"/>
<path d="M18.1386 20.2868C14.8436 23.7694 12.2048 28.2968 12.1646 33.2127C12.1512 34.7396 12.3789 36.3068 13.1826 37.6061C13.9863 38.9054 15.4731 39.843 16.9867 39.6957C17.8975 39.6019 18.8218 39.1197 19.6924 39.4144C18.0985 42.5354 14.6292 48.3085 17.268 51.6973C25.7736 62.5738 43.7895 30.1051 45.6245 24.2784C44.7941 26.9171 46.6024 29.8774 48.9062 30.748C55.041 33.0653 68.7304 23.6221 65.8103 16.5363C65.1004 14.8351 63.3725 13.9377 61.725 13.9109C60.0774 13.8841 58.4834 14.594 56.9564 15.3575C59.997 14.3127 60.9615 9.1558 58.8585 6.46346C56.4608 3.38269 49.9912 3.8381 49.0402 8.21817C53.6212 -4.68092 34.9088 0.851089 30.2876 3.28892C25.8272 5.64639 18.2056 9.10222 17.7234 14.9155C17.6698 15.612 17.7368 16.3487 18.1119 16.9381C18.5807 17.6748 19.5317 18.0767 20.4023 17.8891C19.6389 18.6928 18.8887 19.4965 18.1386 20.2868Z" fill="#EE5922"/>
<path d="M48.5306 93.8366C48.4771 93.8366 48.4369 93.8365 48.3833 93.8098C48.102 93.7294 47.9279 93.4347 48.0216 93.14C49.1468 89.2154 49.696 82.7993 49.9639 79.7052C50.0175 79.1158 50.0576 78.647 50.0844 78.3121C50.138 77.7763 50.1782 77.3477 50.6604 77.3209C56.0451 76.9994 61.7646 74.0124 65.9705 69.3243C66.1714 69.11 66.5063 69.0832 66.7206 69.2841C66.9349 69.485 66.9617 69.8199 66.7608 70.0342C62.4879 74.8027 56.688 77.8969 51.1426 78.3523C51.1024 78.6872 51.0622 79.2229 51.0087 79.7855C50.7408 82.9065 50.1782 89.4029 49.0262 93.4213C48.9727 93.6892 48.7584 93.8366 48.5306 93.8366Z" fill="#151515"/>
<path d="M46.9773 79.2633C37.9627 79.2633 30.1134 76.9728 21.7551 71.9498C21.5006 71.8025 21.4202 71.4676 21.5676 71.2131C21.7149 70.9586 22.0498 70.8782 22.3043 71.0256C30.9572 76.2361 39.0342 78.4328 48.5043 78.1649H48.5177C48.8124 78.1649 49.0401 78.3927 49.0535 78.6873C49.0669 78.982 48.8258 79.2365 48.5311 79.2365C48.0221 79.2499 47.4997 79.2633 46.9773 79.2633Z" fill="#151515"/>
<path d="M47.446 50.3848C46.8432 50.3848 46.2539 50.1973 45.7181 49.8222C44.9412 49.2865 44.392 48.4158 44.2447 47.505C44.2045 47.2103 44.392 46.9424 44.6867 46.8888C44.9814 46.8352 45.2493 47.0361 45.3028 47.3308C45.3966 47.9604 45.7851 48.5631 46.3208 48.9248C46.7763 49.2329 47.2987 49.3534 47.7943 49.2597C48.4908 49.1123 49.6561 48.4292 49.549 45.4824C49.5356 45.1877 49.7633 44.9332 50.0714 44.9332C50.366 44.9198 50.6205 45.1475 50.6205 45.4556C50.7143 48.1881 49.7633 49.9696 48.0086 50.3312C47.821 50.3714 47.6335 50.3848 47.446 50.3848Z" fill="#151515"/>
<path d="M75.8959 152.479C75.9093 153.148 91.5275 119.648 97.6087 101.431C86.3035 100.119 72.7213 98.0962 61.4162 96.7969C55.4824 110.098 50.4861 123.265 43.896 136.258C41.9537 140.089 40.9893 142.446 38.5381 145.969C49.1467 148.889 65.1131 150.268 75.8959 152.479Z" fill="#F5F6F8"/>
<path d="M39.4086 145.648C45.5835 147.269 53.4328 148.407 61.0276 149.519C66.3319 150.296 71.3549 151.019 75.6546 151.89C77.3691 148.675 91.0853 119.033 96.8986 101.901C91.4068 101.258 85.339 100.441 79.4453 99.6506C73.4713 98.847 67.2963 98.0299 61.7509 97.3735C59.7685 101.847 57.8531 106.361 56.0046 110.728C52.4148 119.207 48.7045 127.98 44.378 136.499C43.9628 137.33 43.5877 138.08 43.2261 138.803C42.0339 141.214 41.0695 143.157 39.4086 145.648ZM75.9493 153.028C75.9091 153.028 75.8689 153.028 75.8287 153.015C75.7886 153.002 75.7484 153.002 75.7082 152.988C71.3683 152.104 66.2783 151.368 60.8803 150.577C52.9506 149.425 44.7531 148.233 38.404 146.492C38.2299 146.452 38.0959 146.318 38.0423 146.157C37.9888 145.996 38.0021 145.809 38.1093 145.661C39.998 142.929 41.0026 140.893 42.2751 138.321C42.6367 137.598 42.9984 136.848 43.427 136.017C47.7401 127.525 51.437 118.778 55.0268 110.313C56.9288 105.826 58.8979 101.178 60.9472 96.5833C61.041 96.3689 61.2687 96.2484 61.4964 96.2752C67.149 96.9315 73.4847 97.7754 79.606 98.5925C85.714 99.4095 92.0363 100.253 97.6889 100.91C97.8496 100.923 97.9969 101.017 98.0773 101.151C98.1577 101.285 98.1845 101.459 98.1309 101.606C94.742 111.759 88.5135 126.239 85.1113 133.968C82.2984 140.344 80.115 145.059 79.0703 147.296C78.3068 148.93 77.6504 150.309 77.1682 151.287C76.4449 152.72 76.2976 153.028 75.9493 153.028Z" fill="#151515"/>
<path d="M90.6438 102.37C85.9825 102.571 81.3479 101.271 76.7401 100.521C76.1642 100.428 67.7389 99.0613 67.7657 98.9675C68.0604 97.7486 68.3684 96.4761 69.1587 95.5117C70.1231 94.3329 71.6635 93.7704 73.1905 93.6632C73.8469 93.623 74.4764 93.7034 75.0926 93.8373C76.2311 94.0784 77.0884 93.7838 78.2001 93.9311C78.9369 92.2166 80.4371 90.8503 82.4061 90.8369C82.9017 90.8369 83.4241 90.9307 83.8125 91.2388C84.2947 91.6406 84.4555 92.2969 84.509 92.9131C84.5626 93.69 84.4689 94.4937 84.2144 95.2304C85.7414 95.592 87.2817 95.9403 88.8221 96.2886C89.4919 96.4359 90.175 96.61 90.7108 97.0521C91.4475 97.6682 91.702 98.713 91.5948 99.664C91.4609 100.615 91.0457 101.512 90.6438 102.37Z" fill="#F5F6F8"/>
<path d="M68.3951 98.5784C69.8953 98.8731 74.5701 99.6366 76.807 99.9982C78.0527 100.199 79.3252 100.44 80.5441 100.681C83.732 101.298 87.0405 101.94 90.282 101.847C90.6169 101.123 90.9384 100.373 91.0187 99.6098C91.0991 98.9133 90.9518 97.989 90.3222 97.4666C89.8802 97.105 89.2372 96.9576 88.6613 96.8237L84.0535 95.7655C83.9062 95.7387 83.7856 95.6316 83.7052 95.511C83.6249 95.3771 83.6115 95.2297 83.6651 95.0824C83.8928 94.4126 83.9731 93.6759 83.9329 92.966C83.8928 92.3365 83.7186 91.8944 83.4373 91.6667C83.2096 91.4792 82.848 91.3721 82.3792 91.3855C80.7986 91.3988 79.4055 92.4436 78.6554 94.1581C78.5617 94.3725 78.334 94.5064 78.0929 94.4796C77.6374 94.426 77.2356 94.4394 76.807 94.4662C76.2444 94.493 75.655 94.5332 74.9585 94.3859C74.4897 94.2787 73.8601 94.1715 73.1904 94.2251C71.65 94.3323 70.3105 94.935 69.5471 95.8727C68.9443 96.6094 68.6362 97.614 68.3951 98.5784ZM89.6659 102.932C86.5181 102.932 83.3972 102.329 80.3566 101.74C79.1376 101.498 77.8785 101.257 76.6462 101.056C76.6194 101.056 74.2888 100.681 71.9715 100.28C67.4977 99.5294 67.4843 99.5294 67.3101 99.2749C67.2298 99.1544 67.203 99.007 67.2298 98.8597C67.5245 97.6408 67.8459 96.2611 68.73 95.1761C69.6944 93.9974 71.3018 93.2473 73.1368 93.1268C73.9271 93.0732 74.6504 93.1937 75.1862 93.3143C75.7488 93.4348 76.2444 93.408 76.7668 93.3813C77.1151 93.3679 77.4633 93.3411 77.8518 93.3679C78.8028 91.4524 80.4771 90.3139 82.3792 90.3005C83.1159 90.2871 83.7052 90.4746 84.1339 90.8229C84.6563 91.2515 84.9509 91.948 85.0179 92.8856C85.0581 93.542 85.0045 94.2117 84.8572 94.8413L88.9158 95.7789C89.5721 95.9262 90.3892 96.1138 91.0187 96.6496C91.8358 97.3327 92.2376 98.4846 92.0903 99.7303C91.9698 100.775 91.5143 101.753 91.1259 102.61C91.0455 102.784 90.858 102.905 90.6705 102.918C90.3356 102.918 90.0007 102.932 89.6659 102.932Z" fill="#151515"/>
<path d="M31.0105 153.791C27.9833 153.791 25.0767 153.443 22.4915 152.72C15.0039 150.657 8.94948 145.54 4.95787 137.945C1.43506 131.195 -0.11872 122.863 0.725145 115.067C2.0914 102.316 8.80214 91.0909 15.2986 80.2411C17.147 77.1604 19.0491 73.9724 20.7636 70.8515C24.2864 64.4354 23.697 54.3358 23.255 46.9687C23.2148 46.1785 23.1612 45.415 23.1211 44.6783L23.1077 44.3166C22.5719 34.1768 21.7682 18.8667 31.3722 12.8123C35.2566 10.3745 39.918 9.87886 44.4856 11.4193C48.6513 12.8391 52.4688 15.8529 54.9334 19.724C59.501 26.8633 61.1486 35.6368 62.7292 44.1157C63.2114 46.7009 63.6668 49.1387 64.2026 51.5497C68.663 71.4944 74.1816 80 77.9589 84.6614C80.8923 88.278 85.1385 90.5015 89.6257 90.7426C93.8852 90.9837 97.9036 89.4567 100.958 86.4429C103.717 83.7104 105.083 79.5848 106.141 75.5396C107.735 69.445 108.432 63.0692 109.102 56.8942C109.195 56.0369 109.289 55.1797 109.383 54.3224C110.146 47.451 112.062 38.8784 120.085 33.641C120.326 33.4803 120.661 33.5473 120.822 33.8018C120.983 34.0563 120.916 34.3777 120.661 34.5385C113.013 39.5347 111.178 47.7992 110.428 54.443C110.334 55.3002 110.24 56.1575 110.146 57.0014C109.463 63.2165 108.767 69.646 107.159 75.8075C106.061 80 104.641 84.2863 101.694 87.193C98.426 90.4211 94.1129 92.0553 89.5453 91.8008C84.7634 91.5329 80.236 89.1754 77.115 85.3177C69.105 75.4191 65.3009 61.4216 63.1444 51.764C62.6086 49.3396 62.1398 46.8884 61.6576 44.3032C60.0904 35.9181 58.4696 27.2652 54.0092 20.2865C51.6651 16.6298 48.062 13.7633 44.1105 12.4239C39.851 10.9772 35.5245 11.4326 31.9214 13.7097C22.8398 19.4159 23.6301 34.3643 24.1525 44.2496L24.1658 44.6113C24.206 45.3346 24.2462 46.0981 24.2998 46.8884C24.7418 54.3894 25.3446 64.6631 21.6744 71.3471C19.9465 74.4814 18.0445 77.6828 16.196 80.7769C9.77995 91.5463 3.12279 102.664 1.78333 115.174C0.229542 129.641 7.06083 147.349 22.7862 151.688C27.9967 153.122 34.6003 153.055 40.8958 151.487C47.553 149.827 52.9778 146.732 56.1791 142.754C56.3667 142.526 56.7015 142.486 56.9292 142.674C57.157 142.861 57.1971 143.196 57.0096 143.424C53.6743 147.576 48.0486 150.804 41.1503 152.519C37.7748 153.363 34.319 153.791 31.0105 153.791Z" fill="#151515"/>
<path d="M44.9004 84.7291C44.5253 84.7291 44.1503 84.5282 43.9092 84.1933C43.6681 83.8585 43.6011 83.4432 43.7217 83.0816C43.8422 82.7199 44.1637 82.4386 44.5521 82.3181C44.954 82.1975 45.3692 82.2779 45.6639 82.519C45.8916 82.7065 45.9318 83.0414 45.7443 83.2691C45.5567 83.4968 45.2219 83.537 44.9942 83.3495C44.9674 83.3361 44.9138 83.3227 44.8468 83.3361C44.7798 83.3495 44.7397 83.3897 44.7263 83.4164C44.7129 83.4432 44.7263 83.4968 44.7664 83.5504C44.8066 83.604 44.8602 83.6308 44.887 83.6308C45.1817 83.6308 45.4228 83.8719 45.4228 84.1665C45.4496 84.488 45.2085 84.7291 44.9004 84.7291C44.9138 84.7291 44.9004 84.7291 44.9004 84.7291Z" fill="#151515"/>
<path d="M42.7979 93.2614C42.4228 93.2614 42.0478 93.0604 41.8066 92.7256C41.5655 92.3907 41.4986 91.9755 41.6191 91.6138C41.7397 91.2521 42.0611 90.9709 42.4496 90.8503C42.8514 90.7298 43.2667 90.8101 43.5614 91.0512C43.7891 91.2388 43.8292 91.5736 43.6417 91.8013C43.4542 92.029 43.1193 92.0692 42.8916 91.8817C42.8648 91.8683 42.8112 91.8549 42.7443 91.8683C42.6773 91.8817 42.6371 91.9219 42.6237 91.9487C42.6103 91.9755 42.6237 92.029 42.6639 92.0826C42.7041 92.1362 42.7577 92.163 42.7845 92.163C43.0791 92.163 43.3203 92.4041 43.3203 92.6988C43.347 93.0202 43.1059 93.2614 42.7979 93.2614C42.8112 93.2614 42.8112 93.2614 42.7979 93.2614Z" fill="#151515"/>
</svg>
