<svg width="16" height="16" viewBox="0 0 16 16" fill="none" xmlns="http://www.w3.org/2000/svg">
<path d="M8.8125 10.75L7.75 11.7812C7.625 11.9375 7.4375 12 7.25 12H6V13.25C6 13.6875 5.65625 14 5.25 14H4V15.25C4 15.6875 3.65625 16 3.25 16H0.75C0.3125 16 0 15.6875 0 15.25V12.75C0 12.5625 0.0625 12.375 0.21875 12.2188L5.25 7.1875C5.0625 6.65625 5 6.09375 5 5.5C5 2.46875 7.4375 0 10.5 0C13.5312 0 16 2.46875 16 5.5C16 8.5625 13.5312 11 10.5 11C9.90625 11 9.34375 10.9375 8.8125 10.75ZM11.75 5.5C12.4375 5.5 13 4.96875 13 4.25C13 3.5625 12.4375 3 11.75 3C11.0312 3 10.5 3.5625 10.5 4.25C10.5 4.96875 11.0312 5.5 11.75 5.5Z" fill="white"/>
</svg>
