<svg width="16" height="16" viewBox="0 0 16 16" fill="none" xmlns="http://www.w3.org/2000/svg">
<path d="M0 0.75C0 0.34375 0.3125 0 0.75 0H4.25C4.65625 0 5 0.34375 5 0.75C5 1.1875 4.65625 1.5 4.25 1.5H1.5V4.25C1.5 4.6875 1.15625 5 0.75 5C0.3125 5 0 4.6875 0 4.25V0.75ZM6.5 3H9.46875C9.78125 3 10.0625 3.21875 10.1562 3.5L10.375 4H11.5C12.3125 4 13 4.6875 13 5.5V10.5C13 11.3438 12.3125 12 11.5 12H4.5C3.65625 12 3 11.3438 3 10.5V5.5C3 4.6875 3.65625 4 4.5 4H5.625L5.8125 3.5C5.90625 3.21875 6.1875 3 6.5 3ZM8 10C9.09375 10 10 9.125 10 8C10 6.90625 9.09375 6 8 6C6.875 6 6 6.90625 6 8C6 9.125 6.875 10 8 10ZM15.25 0C15.6562 0 16 0.34375 16 0.75V4.25C16 4.6875 15.6562 5 15.25 5C14.8125 5 14.5 4.6875 14.5 4.25V1.5H11.75C11.3125 1.5 11 1.1875 11 0.75C11 0.34375 11.3125 0 11.75 0H15.25ZM0 11.75C0 11.3438 0.3125 11 0.75 11C1.15625 11 1.5 11.3438 1.5 11.75V14.5H4.25C4.65625 14.5 5 14.8438 5 15.25C5 15.6875 4.65625 16 4.25 16H0.75C0.3125 16 0 15.6875 0 15.25V11.75ZM11.75 16C11.3125 16 11 15.6875 11 15.25C11 14.8438 11.3125 14.5 11.75 14.5H14.5V11.75C14.5 11.3438 14.8125 11 15.25 11C15.6562 11 16 11.3438 16 11.75V15.25C16 15.6875 15.6562 16 15.25 16H11.75Z" fill="white"/>
</svg>
