<svg width="18" height="18" viewBox="0 0 18 18" fill="none" xmlns="http://www.w3.org/2000/svg">
<path d="M12.3125 1.625C13.0938 0.84375 14.375 0.84375 15.1562 1.625L16.375 2.84375C17.1562 3.625 17.1562 4.90625 16.375 5.6875L14.875 7.1875L10.8125 3.125L12.3125 1.625ZM14.1562 7.90625L6.875 15.1875C6.5625 15.5 6.15625 15.75 5.71875 15.875L1.9375 16.9688C1.6875 17.0625 1.40625 17 1.21875 16.7812C1 16.5938 0.9375 16.3125 1 16.0625L2.125 12.2812C2.25 11.8438 2.5 11.4375 2.8125 11.125L10.0938 3.84375L14.1562 7.90625Z" fill="white"/>
</svg>
