<svg width="186" height="54" viewBox="0 0 186 54" fill="none" xmlns="http://www.w3.org/2000/svg">
<rect x="1.35742" y="0.5" width="184.143" height="53" rx="4.5" fill="black"/>
<rect x="1.35742" y="0.5" width="184.143" height="53" rx="4.5" stroke="#A6A6A6"/>
<path d="M94.301 29.3641C91.0754 29.3641 88.4464 31.7792 88.4464 35.1056C88.4464 38.4118 91.0754 40.8472 94.301 40.8472C97.528 40.8472 100.157 38.4118 100.157 35.1056C100.156 31.7792 97.5266 29.3641 94.301 29.3641ZM94.301 38.5873C92.5333 38.5873 91.0096 37.1522 91.0096 35.107C91.0096 33.0401 92.5346 31.6267 94.301 31.6267C96.0688 31.6267 97.5925 33.0401 97.5925 35.107C97.5925 37.1509 96.0688 38.5873 94.301 38.5873ZM81.5276 29.3641C78.302 29.3641 75.6729 31.7792 75.6729 35.1056C75.6729 38.4118 78.302 40.8472 81.5276 40.8472C84.7545 40.8472 87.3836 38.4118 87.3836 35.1056C87.3836 31.7792 84.7545 29.3641 81.5276 29.3641ZM81.5276 38.5873C79.7598 38.5873 78.2361 37.1522 78.2361 35.107C78.2361 33.0401 79.7612 31.6267 81.5276 31.6267C83.2953 31.6267 84.819 33.0401 84.819 35.107C84.8204 37.1509 83.2953 38.5873 81.5276 38.5873ZM66.3349 31.1272V33.5626H72.2567C72.0798 34.9328 71.6162 35.9332 70.9086 36.6284C70.0473 37.4762 68.6992 38.4118 66.3349 38.4118C62.6896 38.4118 59.8398 35.5187 59.8398 31.9304C59.8398 28.3421 62.6896 25.4491 66.3349 25.4491C68.3015 25.4491 69.7374 26.2105 70.7975 27.1892L72.5433 25.4707C71.0622 24.0788 69.0969 23.0137 66.3349 23.0137C61.3415 23.0137 57.1436 27.0151 57.1436 31.9304C57.1436 36.8458 61.3415 40.8472 66.3349 40.8472C69.0297 40.8472 71.0636 39.9764 72.653 38.3456C74.2878 36.7364 74.7966 34.4738 74.7966 32.6473C74.7966 32.083 74.7527 31.5605 74.6636 31.1258H66.3349V31.1272ZM128.472 33.0185C127.986 31.736 126.505 29.3641 123.478 29.3641C120.473 29.3641 117.976 31.6915 117.976 35.1056C117.976 38.324 120.451 40.8472 123.765 40.8472C126.438 40.8472 127.985 39.238 128.627 38.3024L126.638 36.997C125.976 37.9541 125.069 38.5846 123.765 38.5846C122.462 38.5846 121.533 37.9973 120.937 36.8444L128.736 33.6692L128.472 33.0185ZM120.517 34.9328C120.451 32.7134 122.263 31.5835 123.567 31.5835C124.584 31.5835 125.445 32.0843 125.733 32.8012L120.517 34.9328ZM114.177 40.5002H116.739V23.6239H114.177V40.5002ZM109.978 30.6479H109.89C109.315 29.9729 108.21 29.3641 106.819 29.3641C103.902 29.3641 101.229 31.8872 101.229 35.1286C101.229 38.347 103.902 40.8485 106.819 40.8485C108.211 40.8485 109.315 40.2397 109.89 39.5444H109.978V40.3706C109.978 42.5671 108.785 43.7416 106.863 43.7416C105.294 43.7416 104.322 42.6332 103.924 41.6977L101.693 42.6116C102.333 44.1331 104.034 46.0042 106.863 46.0042C109.868 46.0042 112.409 44.264 112.409 40.0223V29.7137H109.979V30.6479H109.978ZM107.04 38.5873C105.272 38.5873 103.793 37.1293 103.793 35.1286C103.793 33.1049 105.272 31.6267 107.04 31.6267C108.785 31.6267 110.155 33.1049 110.155 35.1286C110.155 37.1293 108.785 38.5873 107.04 38.5873ZM140.477 23.6239H134.345V40.5002H136.903V34.1066H140.476C143.312 34.1066 146.101 32.0857 146.101 28.8659C146.101 25.6462 143.313 23.6239 140.477 23.6239ZM140.543 31.7576H136.903V25.9729H140.543C142.456 25.9729 143.542 27.5321 143.542 28.8659C143.542 30.1727 142.456 31.7576 140.543 31.7576ZM156.358 29.3344C154.505 29.3344 152.587 30.1376 151.793 31.9183L154.064 32.8511C154.549 31.9183 155.454 31.6132 156.402 31.6132C157.725 31.6132 159.071 32.3948 159.093 33.784V33.9581C158.629 33.6976 157.636 33.3074 156.424 33.3074C153.976 33.3074 151.483 34.6318 151.483 37.1063C151.483 39.3649 153.491 40.8188 155.74 40.8188C157.459 40.8188 158.408 40.0588 159.004 39.1678H159.091V40.4705H161.563V34C161.564 31.0057 159.29 29.3344 156.358 29.3344ZM156.048 38.5832C155.212 38.5832 154.042 38.1701 154.042 37.1495C154.042 35.8468 155.498 35.3473 156.756 35.3473C157.879 35.3473 158.41 35.5862 159.093 35.9116C158.894 37.4762 157.527 38.5832 156.048 38.5832ZM170.562 29.7029L167.629 37.0199H167.541L164.496 29.7029H161.74L166.305 39.9292L163.702 45.6181H166.371L173.408 29.7029H170.562ZM147.514 40.5002H150.072V23.6239H147.514V40.5002Z" fill="white"/>
<path d="M65.8874 13.8278C65.8874 14.9591 65.5473 15.8596 64.8657 16.5319C64.0922 17.3311 63.0829 17.7307 61.8431 17.7307C60.6554 17.7307 59.6447 17.3257 58.815 16.5157C57.9839 15.7043 57.5684 14.6999 57.5684 13.5011C57.5684 12.301 57.9839 11.2966 58.815 10.4866C59.6447 9.67521 60.6554 9.27022 61.8431 9.27022C62.4328 9.27022 62.9965 9.38362 63.5313 9.60907C64.0676 9.83587 64.4968 10.1369 64.8177 10.5136L64.095 11.2264C63.5505 10.5851 62.8004 10.2652 61.8417 10.2652C60.975 10.2652 60.2262 10.5649 59.594 11.1643C58.9617 11.7637 58.6463 12.5426 58.6463 13.4998C58.6463 14.4569 58.9617 15.2359 59.594 15.8353C60.2262 16.4347 60.975 16.7344 61.8417 16.7344C62.7606 16.7344 63.5272 16.4333 64.1402 15.8299C64.538 15.437 64.7684 14.8903 64.8301 14.1896H61.8417V13.2163H65.8285C65.8696 13.4282 65.8874 13.6321 65.8874 13.8278Z" fill="white"/>
<path d="M72.2099 10.4448H68.4631V13.0125H71.8423V13.9858H68.4631V16.5535H72.2099V17.5498H67.4057V9.44984H72.2099V10.4448Z" fill="white"/>
<path d="M76.6682 17.5498H75.6108V10.4448H73.3123V9.44984H78.9667V10.4448H76.6682V17.5498Z" fill="white"/>
<path d="M83.0576 17.5498V9.44984H84.115V17.5498H83.0576Z" fill="white"/>
<path d="M88.8041 17.5498H87.7468V10.4448H85.4483V9.44984H91.1027V10.4448H88.8041V17.5498Z" fill="white"/>
<path d="M101.806 16.5036C100.997 17.3217 99.992 17.7307 98.7892 17.7307C97.5865 17.7307 96.5812 17.3217 95.7734 16.5036C94.9643 15.6855 94.5611 14.6838 94.5611 13.4998C94.5611 12.3159 94.9643 11.3142 95.7734 10.4961C96.5812 9.67798 97.5865 9.26758 98.7892 9.26758C99.9851 9.26758 100.989 9.67933 101.801 10.5015C102.613 11.3236 103.019 12.3226 103.019 13.4998C103.019 14.6838 102.614 15.6855 101.806 16.5036ZM96.5538 15.8245C97.1627 16.432 97.9074 16.7344 98.7892 16.7344C99.671 16.7344 100.417 16.4307 101.025 15.8245C101.634 15.217 101.939 14.4421 101.939 13.4998C101.939 12.5575 101.634 11.7826 101.025 11.1751C100.417 10.5676 99.671 10.2652 98.7892 10.2652C97.9074 10.2652 97.1627 10.569 96.5538 11.1751C95.9462 11.7826 95.6404 12.5575 95.6404 13.4998C95.6404 14.4421 95.9462 15.217 96.5538 15.8245Z" fill="white"/>
<path d="M104.503 17.5498V9.44984H105.789L109.788 15.7503H109.833L109.788 14.1897V9.44984H110.845V17.5498H109.741L105.557 10.9429H105.512L105.557 12.5035V17.5498H104.503Z" fill="white"/>
<path d="M65.8874 13.8278C65.8874 14.9591 65.5473 15.8596 64.8657 16.5319C64.0922 17.3311 63.0829 17.7307 61.8431 17.7307C60.6554 17.7307 59.6447 17.3257 58.815 16.5157C57.9839 15.7043 57.5684 14.6999 57.5684 13.5011C57.5684 12.301 57.9839 11.2966 58.815 10.4866C59.6447 9.67521 60.6554 9.27022 61.8431 9.27022C62.4328 9.27022 62.9965 9.38362 63.5313 9.60907C64.0676 9.83587 64.4968 10.1369 64.8177 10.5136L64.095 11.2264C63.5505 10.5851 62.8004 10.2652 61.8417 10.2652C60.975 10.2652 60.2262 10.5649 59.594 11.1643C58.9617 11.7637 58.6463 12.5426 58.6463 13.4998C58.6463 14.4569 58.9617 15.2359 59.594 15.8353C60.2262 16.4347 60.975 16.7344 61.8417 16.7344C62.7606 16.7344 63.5272 16.4333 64.1402 15.8299C64.538 15.437 64.7684 14.8903 64.8301 14.1896H61.8417V13.2163H65.8285C65.8696 13.4282 65.8874 13.6321 65.8874 13.8278Z" stroke="white" stroke-width="0.2" stroke-miterlimit="10"/>
<path d="M72.2099 10.4448H68.4631V13.0125H71.8423V13.9858H68.4631V16.5535H72.2099V17.5498H67.4057V9.44984H72.2099V10.4448Z" stroke="white" stroke-width="0.2" stroke-miterlimit="10"/>
<path d="M76.6682 17.5498H75.6108V10.4448H73.3123V9.44984H78.9667V10.4448H76.6682V17.5498Z" stroke="white" stroke-width="0.2" stroke-miterlimit="10"/>
<path d="M83.0576 17.5498V9.44984H84.115V17.5498H83.0576Z" stroke="white" stroke-width="0.2" stroke-miterlimit="10"/>
<path d="M88.8041 17.5498H87.7468V10.4448H85.4483V9.44984H91.1027V10.4448H88.8041V17.5498Z" stroke="white" stroke-width="0.2" stroke-miterlimit="10"/>
<path d="M101.806 16.5036C100.997 17.3217 99.992 17.7307 98.7892 17.7307C97.5865 17.7307 96.5812 17.3217 95.7734 16.5036C94.9643 15.6855 94.5611 14.6838 94.5611 13.4998C94.5611 12.3159 94.9643 11.3142 95.7734 10.4961C96.5812 9.67798 97.5865 9.26758 98.7892 9.26758C99.9851 9.26758 100.989 9.67933 101.801 10.5015C102.613 11.3236 103.019 12.3226 103.019 13.4998C103.019 14.6838 102.614 15.6855 101.806 16.5036ZM96.5538 15.8245C97.1627 16.432 97.9074 16.7344 98.7892 16.7344C99.671 16.7344 100.417 16.4307 101.025 15.8245C101.634 15.217 101.939 14.4421 101.939 13.4998C101.939 12.5575 101.634 11.7826 101.025 11.1751C100.417 10.5676 99.671 10.2652 98.7892 10.2652C97.9074 10.2652 97.1627 10.569 96.5538 11.1751C95.9462 11.7826 95.6404 12.5575 95.6404 13.4998C95.6404 14.4421 95.9462 15.217 96.5538 15.8245Z" stroke="white" stroke-width="0.2" stroke-miterlimit="10"/>
<path d="M104.503 17.5498V9.44984H105.789L109.788 15.7503H109.833L109.788 14.1897V9.44984H110.845V17.5498H109.741L105.557 10.9429H105.512L105.557 12.5035V17.5498H104.503Z" stroke="white" stroke-width="0.2" stroke-miterlimit="10"/>
<g filter="url(#filter0_ii_3437_12561)">
<path d="M15.1701 10.1767C14.771 10.5925 14.5352 11.2378 14.5352 12.0734V41.93C14.5352 42.767 14.771 43.411 15.1701 43.8268L15.2716 43.924L32.2622 27.1988V27.0017V26.8046L15.2716 10.0781L15.1701 10.1767Z" fill="url(#paint0_linear_3437_12561)"/>
<path d="M37.9253 32.776L32.2627 27.1992V27.0021V26.805L37.9267 21.2295L38.0542 21.301L44.7646 25.054C46.6805 26.1259 46.6805 27.8796 44.7646 28.9528L38.0542 32.7058L37.9253 32.776Z" fill="url(#paint1_linear_3437_12561)"/>
<g filter="url(#filter1_i_3437_12561)">
<path d="M38.0536 32.7044L32.2607 27.002L15.1699 43.827C15.8008 44.4858 16.8444 44.5668 18.0198 43.9107L38.0536 32.7044Z" fill="url(#paint2_linear_3437_12561)"/>
</g>
<path d="M38.0536 21.2993L18.0198 10.0943C16.8444 9.43688 15.8008 9.51923 15.1699 10.178L32.262 27.0031L38.0536 21.2993Z" fill="url(#paint3_linear_3437_12561)"/>
</g>
<defs>
<filter id="filter0_ii_3437_12561" x="14.5352" y="9.64062" width="31.666" height="34.7236" filterUnits="userSpaceOnUse" color-interpolation-filters="sRGB">
<feFlood flood-opacity="0" result="BackgroundImageFix"/>
<feBlend mode="normal" in="SourceGraphic" in2="BackgroundImageFix" result="shape"/>
<feColorMatrix in="SourceAlpha" type="matrix" values="0 0 0 0 0 0 0 0 0 0 0 0 0 0 0 0 0 0 127 0" result="hardAlpha"/>
<feOffset dy="-0.15"/>
<feComposite in2="hardAlpha" operator="arithmetic" k2="-1" k3="1"/>
<feColorMatrix type="matrix" values="0 0 0 0 0 0 0 0 0 0 0 0 0 0 0 0 0 0 0.12 0"/>
<feBlend mode="normal" in2="shape" result="effect1_innerShadow_3437_12561"/>
<feColorMatrix in="SourceAlpha" type="matrix" values="0 0 0 0 0 0 0 0 0 0 0 0 0 0 0 0 0 0 127 0" result="hardAlpha"/>
<feOffset dy="0.15"/>
<feComposite in2="hardAlpha" operator="arithmetic" k2="-1" k3="1"/>
<feColorMatrix type="matrix" values="0 0 0 0 1 0 0 0 0 1 0 0 0 0 1 0 0 0 0.25 0"/>
<feBlend mode="normal" in2="effect1_innerShadow_3437_12561" result="effect2_innerShadow_3437_12561"/>
</filter>
<filter id="filter1_i_3437_12561" x="15.1699" y="27.002" width="22.8838" height="17.3623" filterUnits="userSpaceOnUse" color-interpolation-filters="sRGB">
<feFlood flood-opacity="0" result="BackgroundImageFix"/>
<feBlend mode="normal" in="SourceGraphic" in2="BackgroundImageFix" result="shape"/>
<feColorMatrix in="SourceAlpha" type="matrix" values="0 0 0 0 0 0 0 0 0 0 0 0 0 0 0 0 0 0 127 0" result="hardAlpha"/>
<feOffset dy="-0.15"/>
<feComposite in2="hardAlpha" operator="arithmetic" k2="-1" k3="1"/>
<feColorMatrix type="matrix" values="0 0 0 0 0 0 0 0 0 0 0 0 0 0 0 0 0 0 0.08 0"/>
<feBlend mode="normal" in2="shape" result="effect1_innerShadow_3437_12561"/>
</filter>
<linearGradient id="paint0_linear_3437_12561" x1="30.7561" y1="11.7575" x2="8.10325" y2="34.77" gradientUnits="userSpaceOnUse">
<stop stop-color="#00A0FF"/>
<stop offset="0.0066" stop-color="#00A1FF"/>
<stop offset="0.2601" stop-color="#00BEFF"/>
<stop offset="0.5122" stop-color="#00D2FF"/>
<stop offset="0.7604" stop-color="#00DFFF"/>
<stop offset="1" stop-color="#00E3FF"/>
</linearGradient>
<linearGradient id="paint1_linear_3437_12561" x1="47.2586" y1="27.0021" x2="14.0756" y2="27.0021" gradientUnits="userSpaceOnUse">
<stop stop-color="#FFE000"/>
<stop offset="0.4087" stop-color="#FFBD00"/>
<stop offset="0.7754" stop-color="#FFA500"/>
<stop offset="1" stop-color="#FF9C00"/>
</linearGradient>
<linearGradient id="paint2_linear_3437_12561" x1="34.9077" y1="30.0987" x2="4.1875" y2="61.3065" gradientUnits="userSpaceOnUse">
<stop stop-color="#FF3A44"/>
<stop offset="1" stop-color="#C31162"/>
</linearGradient>
<linearGradient id="paint3_linear_3437_12561" x1="10.8656" y1="0.239057" x2="24.583" y2="14.1742" gradientUnits="userSpaceOnUse">
<stop stop-color="#32A071"/>
<stop offset="0.0685" stop-color="#2DA771"/>
<stop offset="0.4762" stop-color="#15CF74"/>
<stop offset="0.8009" stop-color="#06E775"/>
<stop offset="1" stop-color="#00F076"/>
</linearGradient>
</defs>
</svg>
