<svg width="184" height="54" viewBox="0 0 184 54" fill="none" xmlns="http://www.w3.org/2000/svg">
<rect width="184" height="54" rx="5" fill="white"/>
<path d="M92.8668 29.3641C89.6611 29.3641 87.0483 31.7792 87.0483 35.1056C87.0483 38.4118 89.6611 40.8472 92.8668 40.8472C96.0739 40.8472 98.6867 38.4118 98.6867 35.1056C98.6853 31.7792 96.0725 29.3641 92.8668 29.3641ZM92.8668 38.5873C91.11 38.5873 89.5957 37.1522 89.5957 35.107C89.5957 33.0401 91.1113 31.6267 92.8668 31.6267C94.6237 31.6267 96.138 33.0401 96.138 35.107C96.138 37.1509 94.6237 38.5873 92.8668 38.5873ZM80.1722 29.3641C76.9665 29.3641 74.3537 31.7792 74.3537 35.1056C74.3537 38.4118 76.9665 40.8472 80.1722 40.8472C83.3792 40.8472 85.9921 38.4118 85.9921 35.1056C85.9921 31.7792 83.3792 29.3641 80.1722 29.3641ZM80.1722 38.5873C78.4153 38.5873 76.9011 37.1522 76.9011 35.107C76.9011 33.0401 78.4167 31.6267 80.1722 31.6267C81.9291 31.6267 83.4433 33.0401 83.4433 35.107C83.4447 37.1509 81.9291 38.5873 80.1722 38.5873ZM65.0733 31.1272V33.5626H70.9586C70.7827 34.9328 70.3221 35.9332 69.6188 36.6284C68.7628 37.4762 67.423 38.4118 65.0733 38.4118C61.4505 38.4118 58.6183 35.5187 58.6183 31.9304C58.6183 28.3421 61.4505 25.4491 65.0733 25.4491C67.0278 25.4491 68.4548 26.2105 69.5084 27.1892L71.2434 25.4707C69.7714 24.0788 67.8183 23.0137 65.0733 23.0137C60.1107 23.0137 55.9387 27.0151 55.9387 31.9304C55.9387 36.8458 60.1107 40.8472 65.0733 40.8472C67.7515 40.8472 69.7728 39.9764 71.3525 38.3456C72.9771 36.7364 73.4828 34.4738 73.4828 32.6473C73.4828 32.083 73.4392 31.5605 73.3506 31.1258H65.0733V31.1272ZM126.826 33.0185C126.344 31.736 124.872 29.3641 121.864 29.3641C118.878 29.3641 116.396 31.6915 116.396 35.1056C116.396 38.324 118.856 40.8472 122.149 40.8472C124.805 40.8472 126.343 39.238 126.98 38.3024L125.004 36.997C124.346 37.9541 123.445 38.5846 122.149 38.5846C120.854 38.5846 119.931 37.9973 119.338 36.8444L127.089 33.6692L126.826 33.0185ZM118.921 34.9328C118.856 32.7134 120.656 31.5835 121.952 31.5835C122.962 31.5835 123.818 32.0843 124.105 32.8012L118.921 34.9328ZM112.62 40.5002H115.166V23.6239H112.62V40.5002ZM108.447 30.6479H108.36C107.789 29.9729 106.69 29.3641 105.308 29.3641C102.409 29.3641 99.7525 31.8872 99.7525 35.1286C99.7525 38.347 102.409 40.8485 105.308 40.8485C106.691 40.8485 107.789 40.2397 108.36 39.5444H108.447V40.3706C108.447 42.5671 107.261 43.7416 105.352 43.7416C103.792 43.7416 102.826 42.6332 102.431 41.6977L100.213 42.6116C100.85 44.1331 102.54 46.0042 105.352 46.0042C108.338 46.0042 110.863 44.264 110.863 40.0223V29.7137H108.448V30.6479H108.447ZM105.527 38.5873C103.771 38.5873 102.3 37.1293 102.3 35.1286C102.3 33.1049 103.771 31.6267 105.527 31.6267C107.261 31.6267 108.623 33.1049 108.623 35.1286C108.623 37.1293 107.261 38.5873 105.527 38.5873ZM138.758 23.6239H132.664V40.5002H135.206V34.1066H138.756C141.575 34.1066 144.347 32.0857 144.347 28.8659C144.347 25.6462 141.576 23.6239 138.758 23.6239ZM138.823 31.7576H135.206V25.9729H138.823C140.725 25.9729 141.804 27.5321 141.804 28.8659C141.804 30.1727 140.725 31.7576 138.823 31.7576ZM154.541 29.3344C152.7 29.3344 150.793 30.1376 150.004 31.9183L152.261 32.8511C152.743 31.9183 153.643 31.6132 154.585 31.6132C155.9 31.6132 157.237 32.3948 157.259 33.784V33.9581C156.798 33.6976 155.811 33.3074 154.606 33.3074C152.173 33.3074 149.696 34.6318 149.696 37.1063C149.696 39.3649 151.691 40.8188 153.926 40.8188C155.635 40.8188 156.579 40.0588 157.17 39.1678H157.257V40.4705H159.713V34C159.715 31.0057 157.455 29.3344 154.541 29.3344ZM154.233 38.5832C153.401 38.5832 152.239 38.1701 152.239 37.1495C152.239 35.8468 153.686 35.3473 154.936 35.3473C156.052 35.3473 156.58 35.5862 157.259 35.9116C157.061 37.4762 155.702 38.5832 154.233 38.5832ZM168.657 29.7029L165.742 37.0199H165.654L162.629 29.7029H159.889L164.426 39.9292L161.84 45.6181H164.492L171.485 29.7029H168.657ZM145.751 40.5002H148.293V23.6239H145.751V40.5002Z" fill="#1E1E1E"/>
<path d="M64.6291 13.8278C64.6291 14.9591 64.291 15.8596 63.6137 16.5319C62.8449 17.3311 61.8418 17.7307 60.6097 17.7307C59.4294 17.7307 58.4249 17.3257 57.6003 16.5157C56.7743 15.7043 56.3613 14.6999 56.3613 13.5011C56.3613 12.301 56.7743 11.2966 57.6003 10.4866C58.4249 9.67521 59.4294 9.27022 60.6097 9.27022C61.1958 9.27022 61.7559 9.38362 62.2875 9.60907C62.8204 9.83587 63.247 10.1369 63.5659 10.5136L62.8477 11.2264C62.3066 10.5851 61.561 10.2652 60.6083 10.2652C59.7469 10.2652 59.0027 10.5649 58.3744 11.1643C57.7461 11.7637 57.4326 12.5426 57.4326 13.4998C57.4326 14.4569 57.7461 15.2359 58.3744 15.8353C59.0027 16.4347 59.7469 16.7344 60.6083 16.7344C61.5215 16.7344 62.2834 16.4333 62.8926 15.8299C63.2879 15.437 63.5169 14.8903 63.5782 14.1896H60.6083V13.2163H64.5705C64.6113 13.4282 64.6291 13.6321 64.6291 13.8278Z" fill="#1E1E1E"/>
<path d="M70.9124 10.4448H67.1888V13.0125H70.5472V13.9858H67.1888V16.5535H70.9124V17.5498H66.138V9.44984H70.9124V10.4448Z" fill="#1E1E1E"/>
<path d="M75.3433 17.5498H74.2924V10.4448H72.0081V9.44984H77.6276V10.4448H75.3433V17.5498Z" fill="#1E1E1E"/>
<path d="M81.6933 17.5498V9.44984H82.7441V17.5498H81.6933Z" fill="#1E1E1E"/>
<path d="M87.4043 17.5498H86.3535V10.4448H84.0691V9.44984H89.6886V10.4448H87.4043V17.5498Z" fill="#1E1E1E"/>
<path d="M100.326 16.5036C99.5221 17.3217 98.5231 17.7307 97.3277 17.7307C96.1324 17.7307 95.1334 17.3217 94.3306 16.5036C93.5264 15.6855 93.1257 14.6838 93.1257 13.4998C93.1257 12.3159 93.5264 11.3142 94.3306 10.4961C95.1334 9.67798 96.1324 9.26758 97.3277 9.26758C98.5162 9.26758 99.5139 9.67933 100.321 10.5015C101.128 11.3236 101.531 12.3226 101.531 13.4998C101.531 14.6838 101.129 15.6855 100.326 16.5036ZM95.1061 15.8245C95.7113 16.432 96.4513 16.7344 97.3277 16.7344C98.2041 16.7344 98.9456 16.4307 99.5494 15.8245C100.155 15.217 100.458 14.4421 100.458 13.4998C100.458 12.5575 100.155 11.7826 99.5494 11.1751C98.9456 10.5676 98.2041 10.2652 97.3277 10.2652C96.4513 10.2652 95.7113 10.569 95.1061 11.1751C94.5023 11.7826 94.1984 12.5575 94.1984 13.4998C94.1984 14.4421 94.5023 15.217 95.1061 15.8245Z" fill="#1E1E1E"/>
<path d="M103.006 17.5498V9.44984H104.284L108.259 15.7503H108.304L108.259 14.1897V9.44984H109.31V17.5498H108.212L104.054 10.9429H104.009L104.054 12.5035V17.5498H103.006Z" fill="#1E1E1E"/>
<path d="M64.6291 13.8278C64.6291 14.9591 64.291 15.8596 63.6137 16.5319C62.8449 17.3311 61.8418 17.7307 60.6097 17.7307C59.4294 17.7307 58.4249 17.3257 57.6003 16.5157C56.7743 15.7043 56.3613 14.6999 56.3613 13.5011C56.3613 12.301 56.7743 11.2966 57.6003 10.4866C58.4249 9.67521 59.4294 9.27022 60.6097 9.27022C61.1958 9.27022 61.7559 9.38362 62.2875 9.60907C62.8204 9.83587 63.247 10.1369 63.5659 10.5136L62.8477 11.2264C62.3066 10.5851 61.561 10.2652 60.6083 10.2652C59.7469 10.2652 59.0027 10.5649 58.3744 11.1643C57.7461 11.7637 57.4326 12.5426 57.4326 13.4998C57.4326 14.4569 57.7461 15.2359 58.3744 15.8353C59.0027 16.4347 59.7469 16.7344 60.6083 16.7344C61.5215 16.7344 62.2834 16.4333 62.8926 15.8299C63.2879 15.437 63.5169 14.8903 63.5782 14.1896H60.6083V13.2163H64.5705C64.6113 13.4282 64.6291 13.6321 64.6291 13.8278Z" stroke="#1E1E1E" stroke-width="0.2" stroke-miterlimit="10"/>
<path d="M70.9124 10.4448H67.1888V13.0125H70.5472V13.9858H67.1888V16.5535H70.9124V17.5498H66.138V9.44984H70.9124V10.4448Z" stroke="#1E1E1E" stroke-width="0.2" stroke-miterlimit="10"/>
<path d="M75.3433 17.5498H74.2924V10.4448H72.0081V9.44984H77.6276V10.4448H75.3433V17.5498Z" stroke="#1E1E1E" stroke-width="0.2" stroke-miterlimit="10"/>
<path d="M81.6933 17.5498V9.44984H82.7441V17.5498H81.6933Z" stroke="#1E1E1E" stroke-width="0.2" stroke-miterlimit="10"/>
<path d="M87.4043 17.5498H86.3535V10.4448H84.0691V9.44984H89.6886V10.4448H87.4043V17.5498Z" stroke="#1E1E1E" stroke-width="0.2" stroke-miterlimit="10"/>
<path d="M100.326 16.5036C99.5221 17.3217 98.5231 17.7307 97.3277 17.7307C96.1324 17.7307 95.1334 17.3217 94.3306 16.5036C93.5264 15.6855 93.1257 14.6838 93.1257 13.4998C93.1257 12.3159 93.5264 11.3142 94.3306 10.4961C95.1334 9.67798 96.1324 9.26758 97.3277 9.26758C98.5162 9.26758 99.5139 9.67933 100.321 10.5015C101.128 11.3236 101.531 12.3226 101.531 13.4998C101.531 14.6838 101.129 15.6855 100.326 16.5036ZM95.1061 15.8245C95.7113 16.432 96.4513 16.7344 97.3277 16.7344C98.2041 16.7344 98.9456 16.4307 99.5494 15.8245C100.155 15.217 100.458 14.4421 100.458 13.4998C100.458 12.5575 100.155 11.7826 99.5494 11.1751C98.9456 10.5676 98.2041 10.2652 97.3277 10.2652C96.4513 10.2652 95.7113 10.569 95.1061 11.1751C94.5023 11.7826 94.1984 12.5575 94.1984 13.4998C94.1984 14.4421 94.5023 15.217 95.1061 15.8245Z" stroke="#1E1E1E" stroke-width="0.2" stroke-miterlimit="10"/>
<path d="M103.006 17.5498V9.44984H104.284L108.259 15.7503H108.304L108.259 14.1897V9.44984H109.31V17.5498H108.212L104.054 10.9429H104.009L104.054 12.5035V17.5498H103.006Z" stroke="#1E1E1E" stroke-width="0.2" stroke-miterlimit="10"/>
<g filter="url(#filter0_ii_4515_26567)">
<path d="M14.2239 10.1767C13.8273 10.5925 13.5928 11.2378 13.5928 12.0734V41.93C13.5928 42.767 13.8273 43.411 14.2239 43.8268L14.3247 43.924L31.2105 27.1988V27.0017V26.8046L14.3247 10.0781L14.2239 10.1767Z" fill="url(#paint0_linear_4515_26567)"/>
<path d="M36.8382 32.776L31.2105 27.1992V27.0021V26.805L36.8395 21.2295L36.9663 21.301L43.6352 25.054C45.5393 26.1259 45.5393 27.8796 43.6352 28.9528L36.9663 32.7058L36.8382 32.776Z" fill="url(#paint1_linear_4515_26567)"/>
<g filter="url(#filter1_i_4515_26567)">
<path d="M36.9663 32.7044L31.2091 27.002L14.2239 43.827C14.8508 44.4858 15.8881 44.5668 17.0561 43.9107L36.9663 32.7044Z" fill="url(#paint2_linear_4515_26567)"/>
</g>
<path d="M36.9663 21.2993L17.0561 10.0943C15.8881 9.43688 14.8508 9.51923 14.2239 10.178L31.2105 27.0031L36.9663 21.2993Z" fill="url(#paint3_linear_4515_26567)"/>
</g>
<defs>
<filter id="filter0_ii_4515_26567" x="13.5928" y="9.64062" width="31.4705" height="34.7236" filterUnits="userSpaceOnUse" color-interpolation-filters="sRGB">
<feFlood flood-opacity="0" result="BackgroundImageFix"/>
<feBlend mode="normal" in="SourceGraphic" in2="BackgroundImageFix" result="shape"/>
<feColorMatrix in="SourceAlpha" type="matrix" values="0 0 0 0 0 0 0 0 0 0 0 0 0 0 0 0 0 0 127 0" result="hardAlpha"/>
<feOffset dy="-0.15"/>
<feComposite in2="hardAlpha" operator="arithmetic" k2="-1" k3="1"/>
<feColorMatrix type="matrix" values="0 0 0 0 0 0 0 0 0 0 0 0 0 0 0 0 0 0 0.12 0"/>
<feBlend mode="normal" in2="shape" result="effect1_innerShadow_4515_26567"/>
<feColorMatrix in="SourceAlpha" type="matrix" values="0 0 0 0 0 0 0 0 0 0 0 0 0 0 0 0 0 0 127 0" result="hardAlpha"/>
<feOffset dy="0.15"/>
<feComposite in2="hardAlpha" operator="arithmetic" k2="-1" k3="1"/>
<feColorMatrix type="matrix" values="0 0 0 0 1 0 0 0 0 1 0 0 0 0 1 0 0 0 0.25 0"/>
<feBlend mode="normal" in2="effect1_innerShadow_4515_26567" result="effect2_innerShadow_4515_26567"/>
</filter>
<filter id="filter1_i_4515_26567" x="14.2239" y="27.002" width="22.7424" height="17.3623" filterUnits="userSpaceOnUse" color-interpolation-filters="sRGB">
<feFlood flood-opacity="0" result="BackgroundImageFix"/>
<feBlend mode="normal" in="SourceGraphic" in2="BackgroundImageFix" result="shape"/>
<feColorMatrix in="SourceAlpha" type="matrix" values="0 0 0 0 0 0 0 0 0 0 0 0 0 0 0 0 0 0 127 0" result="hardAlpha"/>
<feOffset dy="-0.15"/>
<feComposite in2="hardAlpha" operator="arithmetic" k2="-1" k3="1"/>
<feColorMatrix type="matrix" values="0 0 0 0 0 0 0 0 0 0 0 0 0 0 0 0 0 0 0.08 0"/>
<feBlend mode="normal" in2="shape" result="effect1_innerShadow_4515_26567"/>
</filter>
<linearGradient id="paint0_linear_4515_26567" x1="29.7137" y1="11.7575" x2="7.05902" y2="34.6297" gradientUnits="userSpaceOnUse">
<stop stop-color="#00A0FF"/>
<stop offset="0.0066" stop-color="#00A1FF"/>
<stop offset="0.2601" stop-color="#00BEFF"/>
<stop offset="0.5122" stop-color="#00D2FF"/>
<stop offset="0.7604" stop-color="#00DFFF"/>
<stop offset="1" stop-color="#00E3FF"/>
</linearGradient>
<linearGradient id="paint1_linear_4515_26567" x1="46.1138" y1="27.0021" x2="13.1357" y2="27.0021" gradientUnits="userSpaceOnUse">
<stop stop-color="#FFE000"/>
<stop offset="0.4087" stop-color="#FFBD00"/>
<stop offset="0.7754" stop-color="#FFA500"/>
<stop offset="1" stop-color="#FF9C00"/>
</linearGradient>
<linearGradient id="paint2_linear_4515_26567" x1="33.8398" y1="30.0987" x2="3.1172" y2="61.1163" gradientUnits="userSpaceOnUse">
<stop stop-color="#FF3A44"/>
<stop offset="1" stop-color="#C31162"/>
</linearGradient>
<linearGradient id="paint3_linear_4515_26567" x1="9.94608" y1="0.239057" x2="23.6646" y2="14.0893" gradientUnits="userSpaceOnUse">
<stop stop-color="#32A071"/>
<stop offset="0.0685" stop-color="#2DA771"/>
<stop offset="0.4762" stop-color="#15CF74"/>
<stop offset="0.8009" stop-color="#06E775"/>
<stop offset="1" stop-color="#00F076"/>
</linearGradient>
</defs>
</svg>
