<svg width="25" height="25" viewBox="0 0 25 25" fill="none" xmlns="http://www.w3.org/2000/svg">
<path opacity="0.4" d="M24.3125 22.4844C24.5938 22.7344 24.5938 23 24.3125 23.2812L23.2812 24.3125C23 24.5938 22.7344 24.5938 22.4844 24.3125L16.8125 18.6406C16.6875 18.5156 16.625 18.3906 16.625 18.2656V17.6094C14.7812 19.2031 12.6562 20 10.25 20C7.5625 20 5.26562 19.0469 3.35938 17.1406C1.45312 15.2344 0.5 12.9375 0.5 10.25C0.5 7.5625 1.45312 5.26563 3.35938 3.35938C5.26562 1.45312 7.5625 0.5 10.25 0.5C12.9375 0.5 15.2344 1.45312 17.1406 3.35938C19.0469 5.26563 20 7.5625 20 10.25C20 12.6562 19.2031 14.7812 17.6094 16.625H18.2656C18.4219 16.625 18.5469 16.6875 18.6406 16.8125L24.3125 22.4844ZM4.95312 15.5469C6.42188 17.0156 8.1875 17.75 10.25 17.75C12.3125 17.75 14.0781 17.0156 15.5469 15.5469C17.0156 14.0781 17.75 12.3125 17.75 10.25C17.75 8.1875 17.0156 6.42187 15.5469 4.95312C14.0781 3.48438 12.3125 2.75 10.25 2.75C8.1875 2.75 6.42188 3.48438 4.95312 4.95312C3.48438 6.42187 2.75 8.1875 2.75 10.25C2.75 12.3125 3.48438 14.0781 4.95312 15.5469Z" fill="#282B3D"/>
</svg>
