<svg width="167" height="56" viewBox="0 0 167 56" fill="none" xmlns="http://www.w3.org/2000/svg">
<rect x="-0.0078125" y="0.466797" width="55.7308" height="55.0673" rx="17.6923" fill="#1B1B1B"/>
<path d="M12.0427 17.274H9.94171L9.05709 16.5C9.41094 11.9 14.5859 9.79167 17.1292 9.3125H25.8648C31.9686 9.93173 34.4529 15.2468 34.9321 17.8269V19.375H31.283C31.46 14.6865 28.0395 13.1458 26.3071 12.9615H17.5715C15.0061 12.7846 12.8167 15.7628 12.0427 17.274Z" fill="white"/>
<path d="M20.7782 23.9086L23.985 20.9231L18.1244 20.8125L17.5715 21.476V23.3558L18.1244 23.9086H20.7782Z" fill="white"/>
<path d="M34.9321 25.5673H31.283C31.283 29.8135 28.1132 31.4647 26.5282 31.7596H17.2398C14.0552 31.1404 12.4481 28.7003 12.0427 27.5577H9.4994L8.83594 28.2211C10.0744 33.6173 14.5122 35.1138 16.5763 35.1875H26.86C33.583 34.7452 35.0427 28.5897 34.9321 25.5673Z" fill="white"/>
<path d="M12.0427 17.274H9.94171L9.05709 16.5C9.41094 11.9 14.5859 9.79167 17.1292 9.3125H25.8648C31.9686 9.93173 34.4529 15.2468 34.9321 17.8269V19.375H31.283C31.46 14.6865 28.0395 13.1458 26.3071 12.9615H17.5715C15.0061 12.7846 12.8167 15.7628 12.0427 17.274Z" stroke="#1B1B1B" stroke-width="0.221154"/>
<path d="M20.7782 23.9086L23.985 20.9231L18.1244 20.8125L17.5715 21.476V23.3558L18.1244 23.9086H20.7782Z" stroke="#1B1B1B" stroke-width="0.221154"/>
<path d="M34.9321 25.5673H31.283C31.283 29.8135 28.1132 31.4647 26.5282 31.7596H17.2398C14.0552 31.1404 12.4481 28.7003 12.0427 27.5577H9.4994L8.83594 28.2211C10.0744 33.6173 14.5122 35.1138 16.5763 35.1875H26.86C33.583 34.7452 35.0427 28.5897 34.9321 25.5673Z" stroke="#1B1B1B" stroke-width="0.221154"/>
<path d="M45.5479 28.5529H42.6729C41.5229 25.5452 38.8027 24.4247 37.5864 24.2404H28.8508C25.6662 24.7712 24.0591 27.7788 23.6537 29.2163V30.7644H20.2258V28.6635C21.022 23.0019 25.7178 21.0705 27.9662 20.8125H38.2498C43.0268 21.6087 45.4742 25.7147 46.1008 27.6683L45.5479 28.5529Z" fill="#EE5922"/>
<path d="M23.6537 36.625H20.1152V38.9471C21.4422 44.7856 26.1232 46.6138 28.2979 46.7981H38.1393C43.27 46.2673 45.4373 42.2276 45.8797 40.274V39.7211L45.2162 39.0577H42.7835C40.8373 42.5077 38.8027 43.2965 38.0287 43.2596H28.7402C25.2018 42.6404 23.8748 39.758 23.6537 38.3942V36.625Z" fill="#EE5922"/>
<path d="M45.5479 28.5529H42.6729C41.5229 25.5452 38.8027 24.4247 37.5864 24.2404H28.8508C25.6662 24.7712 24.0591 27.7788 23.6537 29.2163V30.7644H20.2258V28.6635C21.022 23.0019 25.7178 21.0705 27.9662 20.8125H38.2498C43.0268 21.6087 45.4742 25.7147 46.1008 27.6683L45.5479 28.5529Z" stroke="#1B1B1B" stroke-width="0.221154"/>
<path d="M23.6537 36.625H20.1152V38.9471C21.4422 44.7856 26.1232 46.6138 28.2979 46.7981H38.1393C43.27 46.2673 45.4373 42.2276 45.8797 40.274V39.7211L45.2162 39.0577H42.7835C40.8373 42.5077 38.8027 43.2965 38.0287 43.2596H28.7402C25.2018 42.6404 23.8748 39.758 23.6537 38.3942V36.625Z" stroke="#1B1B1B" stroke-width="0.221154"/>
<path fill-rule="evenodd" clip-rule="evenodd" d="M63.6414 10.7177C62.7035 10.9198 61.5404 11.5368 61.5404 11.8321C61.5404 12.0019 61.6897 12.4296 61.8719 12.7824C62.1981 13.4131 62.2163 13.4182 62.9706 13.103C63.88 12.7231 64.8159 12.6939 65.6727 13.0186C66.3366 13.27 67.2904 14.0664 67.2904 14.3692C67.2904 14.4696 66.4445 14.5518 65.4106 14.5518H63.5308V15.547V16.5422H65.4106C67.5096 16.5422 67.7117 16.724 66.7181 17.7179C66.3592 18.0766 65.7842 18.3444 65.1769 18.4355C64.3073 18.5658 63.8322 18.4824 62.6048 17.9839C62.3218 17.8691 62.121 18.0494 61.774 18.7294L61.3164 19.6262L61.8155 19.9517C63.537 21.0748 66.8364 20.772 68.3595 19.3513C69.8147 17.9939 70.2654 15.1549 69.3197 13.3012C68.296 11.2947 65.9392 10.2223 63.6414 10.7177ZM118.846 10.7801C115.879 11.5311 114.333 15.108 115.729 17.9923C117.189 21.0082 121.803 21.5876 124.157 19.0505C125.229 17.8948 125.507 17.0705 125.418 15.3073C125.349 13.949 125.232 13.5467 124.674 12.7534C123.531 11.1268 120.941 10.2499 118.846 10.7801ZM72.5112 11.1421C72.4373 11.3345 72.3734 12.0061 72.3692 12.6349C72.3599 14.0213 71.8528 16.9743 71.5162 17.6035C71.3818 17.8548 71.0726 18.1235 70.8291 18.2009C70.4653 18.3163 70.3866 18.5352 70.3866 19.432V20.523H71.1684C72.1815 20.523 72.9608 19.998 73.4914 18.9579C73.9133 18.1308 74.5885 14.8572 74.5885 13.6382C74.5885 13.0243 74.6243 13.0038 75.6943 13.0038H76.8V16.7634V20.523H77.9058H79.0116V15.6576V10.7922H75.8285C73.13 10.7922 72.6251 10.8455 72.5112 11.1421ZM81.4443 15.6576V20.523H84.4298H87.4154V19.4172V18.3114H85.5356H83.6558V17.5374V16.7634H85.2039H86.752V15.6576V14.5518H85.2039H83.6558V13.7778V13.0038H85.425H87.1943V11.898V10.7922H84.3193H81.4443V15.6576ZM89.4058 15.6576V20.523H90.5038H91.6019L91.6649 18.3081L91.7279 16.093L93.2782 18.2528L94.8285 20.4124L96.2085 20.4783C96.9675 20.5144 97.5885 20.4734 97.5885 20.387C97.5885 20.3005 96.7505 19.1142 95.7264 17.7506L93.8643 15.2715L95.6158 13.1199C96.5792 11.9367 97.3673 10.9287 97.3673 10.8802C97.3673 10.8318 96.7789 10.7922 96.0594 10.7922H94.7518L93.2397 12.7835L91.7279 14.7747L91.6642 12.7835L91.6008 10.7922H90.5032H89.4058V15.6576ZM97.8097 11.898V13.0038H99.2472H100.685V16.7749V20.5462L101.846 20.4792L103.007 20.4124L103.067 16.7185L103.128 13.0245L104.505 12.9589L105.882 12.8932L105.949 11.8427L106.017 10.7922H101.913H97.8097V11.898ZM107.149 15.6023L107.209 20.4124L108.37 20.4792L109.531 20.5462V18.8758V17.2057H110.548C112.692 17.2057 114.064 15.9389 114.064 13.9598C114.064 12.62 113.554 11.7733 112.39 11.1797C111.814 10.8858 111.086 10.7929 109.361 10.7927L107.089 10.7922L107.149 15.6023ZM127.223 15.6576V20.5462L128.384 20.4792L129.545 20.4124L129.609 18.4773L129.673 16.5422H131.323H132.973V18.5326V20.523H134.079H135.185V15.6576V10.7922H134.079H132.973V12.672V14.5518H131.323H129.674L129.609 12.7273L129.545 10.9028L128.384 10.836L127.223 10.769V15.6576ZM137.617 15.6576V20.523L138.668 20.5137L139.718 20.5046L141.764 17.5995L143.81 14.6945V17.6086V20.523H145.026H146.242V15.6576V10.7922L145.192 10.7964L144.141 10.8006L142.151 13.6132L140.161 16.4259L140.099 13.609L140.037 10.7922H138.827H137.617V15.6576ZM148.675 15.6576V20.523H149.781H150.887V18.28V16.0371L152.49 18.2769L154.093 20.5166L156.646 20.5199L159.199 20.523L159.541 19.5831L159.883 18.6432L161.802 18.5793L163.722 18.5153L164.152 19.5192L164.582 20.523H165.795H167.008L165.787 17.5927C165.115 15.9811 164.208 13.7917 163.77 12.7273L162.974 10.7922H161.94H160.907L158.96 15.4917C157.889 18.0766 156.986 20.2246 156.953 20.2656C156.92 20.3065 156.032 19.1934 154.979 17.792L153.065 15.2438L154.858 13.0732L156.651 10.9028L155.509 10.8349C154.881 10.7975 154.238 10.8168 154.08 10.8774C153.922 10.938 153.139 11.8544 152.34 12.914L150.887 14.8404V12.8162V10.7922H149.781H148.675V15.6576ZM121.702 13.1181C123.534 14.0657 123.451 17.4348 121.576 18.2183C120.615 18.6197 120.055 18.6149 119.175 18.1973C117.901 17.5931 117.336 15.7943 117.929 14.2347C118.398 13.0026 120.357 12.4228 121.702 13.1181ZM111.597 13.4841C111.761 13.7459 111.753 14.0206 111.569 14.424C111.353 14.8993 111.161 14.9941 110.42 14.9941H109.531V13.9863V12.9783L110.448 13.0464C111.008 13.0878 111.456 13.2585 111.597 13.4841ZM162.749 16.2529C162.697 16.3056 162.258 16.3177 161.775 16.2797L160.897 16.2105L161.356 15.0074L161.814 13.8045L162.33 14.9809C162.613 15.6277 162.802 16.2003 162.749 16.2529ZM69.6125 26.5713C65.881 27.5437 63.4028 30.3957 62.8525 34.3502C62.2125 38.9524 64.1907 42.8343 68.1257 44.6984C69.5601 45.378 69.7141 45.4028 72.4926 45.4028C75.3119 45.4028 75.4041 45.3873 76.8755 44.6628C77.7021 44.2556 78.4357 43.7731 78.5058 43.5902C78.6356 43.2525 77.2545 40.14 77.032 40.2687C75.0229 41.4302 73.0491 41.7604 71.2546 41.2354C68.7726 40.5091 67.4165 38.6198 67.4145 35.8852C67.4112 31.4502 71.0558 29.1856 75.3157 30.976C76.5362 31.4891 76.4464 31.5495 77.5741 29.4565L78.2375 28.2251L77.5741 27.6937C77.2092 27.4013 76.4628 27.0021 75.9154 26.8064C74.5923 26.3336 71.0343 26.2007 69.6125 26.5713ZM156.747 26.5713C151.966 27.8175 149.249 32.2406 150.002 37.5525C150.467 40.8284 152.273 43.2832 155.26 44.6984C156.695 45.378 156.849 45.4028 159.627 45.4028C162.446 45.4028 162.539 45.3873 164.01 44.6628C164.837 44.2556 165.57 43.7731 165.64 43.5902C165.77 43.2525 164.389 40.14 164.167 40.2687C159.446 42.9977 154.571 40.8382 154.554 36.0099C154.546 33.5421 155.474 31.8567 157.39 30.8643C158.646 30.2135 160.761 30.236 162.34 30.9168C163.689 31.4988 163.606 31.5506 164.746 29.4103L165.372 28.235L164.709 27.6985C164.344 27.4037 163.597 27.0021 163.05 26.8064C161.727 26.3336 158.169 26.2007 156.747 26.5713ZM81.5453 26.7708C81.487 26.9229 81.4653 31.1277 81.4971 36.1145L81.5548 45.1816L87.2496 45.2407L92.9443 45.2997V43.195V41.0903H89.4058H85.8673V39.5422V37.9941H88.8529H91.8385V35.8932V33.7922H88.8529H85.8673V32.2441V30.696H89.2952H92.7231V28.5951V26.4941H87.1874C82.9605 26.4941 81.6265 26.5596 81.5453 26.7708ZM96.925 35.8932V45.2922H99.1366H101.348L101.35 42.1408L101.352 38.9893L103.289 38.9674C106.382 38.9323 108.361 37.8333 109.524 35.505C110.992 32.5666 110.033 28.9837 107.396 27.5554C105.898 26.744 104.23 26.4941 100.312 26.4941H96.925V35.8932ZM113.733 35.8724V45.2922H117.341C121.367 45.2922 122.587 45.0556 124.06 43.9885C125.449 42.982 125.957 41.9744 126.071 39.9936C126.186 38.0109 125.747 36.8753 124.473 35.8589L123.713 35.252L124.461 34.424C126.506 32.1599 125.847 28.5655 123.132 27.1759C122.083 26.639 121.813 26.6058 117.879 26.5313L113.733 26.4528V35.8724ZM130.098 35.8932V45.2922L132.033 45.282L133.968 45.2718L137.949 39.6614L141.93 34.051L141.989 39.6716L142.048 45.2922H144.256H146.463V35.8932V26.4941H144.593H142.722L138.677 32.1561L134.632 37.8181L134.573 32.1561L134.514 26.4941H132.306H130.098V35.8932ZM120.256 30.792C121.112 31.1499 121.441 31.9491 121.114 32.8786C120.858 33.6075 120.069 34.0061 118.875 34.01L117.935 34.0134V32.3708C117.935 30.9926 117.997 30.7122 118.322 30.6273C119.05 30.4371 119.497 30.4751 120.256 30.792ZM105.007 31.239C105.418 31.6501 105.548 32.0119 105.543 32.7318C105.531 34.3205 104.733 34.898 102.55 34.898H101.348V32.797V30.696H102.906C104.266 30.696 104.534 30.7653 105.007 31.239ZM121.406 38.2745C121.952 38.8208 121.892 40.1061 121.292 40.7061C120.891 41.1075 120.55 41.1973 119.423 41.1989L118.045 41.2009L117.98 39.4615L117.915 37.7219L119.472 37.8099C120.553 37.8709 121.144 38.0131 121.406 38.2745Z" fill="#1B1B1B"/>
</svg>
