<svg width="60" height="60" viewBox="0 0 60 60" fill="none" xmlns="http://www.w3.org/2000/svg">
<g clip-path="url(#clip0_3448_13357)">
<path d="M30 5C43.8075 5 55 16.1925 55 30C55 43.8075 43.8075 55 30 55C16.1925 55 5 43.8075 5 30C5 16.1925 16.1925 5 30 5ZM30 10C24.6957 10 19.6086 12.1071 15.8579 15.8579C12.1071 19.6086 10 24.6957 10 30C10 35.3043 12.1071 40.3914 15.8579 44.1421C19.6086 47.8929 24.6957 50 30 50C35.3043 50 40.3914 47.8929 44.1421 44.1421C47.8929 40.3914 50 35.3043 50 30C50 24.6957 47.8929 19.6086 44.1421 15.8579C40.3914 12.1071 35.3043 10 30 10ZM30 27.5C35 27.5 39.1675 28.3325 42.5 30C42.5 33.3152 41.183 36.4946 38.8388 38.8388C36.4946 41.183 33.3152 42.5 30 42.5C26.6848 42.5 23.5054 41.183 21.1612 38.8388C18.817 36.4946 17.5 33.3152 17.5 30C20.8325 28.3325 25 27.5 30 27.5ZM21.25 17.5C22.6908 17.4997 24.0875 17.9972 25.2036 18.9084C26.3198 19.8195 27.0868 21.0883 27.375 22.5H15.125C15.4132 21.0883 16.1802 19.8195 17.2964 18.9084C18.4125 17.9972 19.8092 17.4997 21.25 17.5ZM38.75 17.5C40.1908 17.4997 41.5875 17.9972 42.7036 18.9084C43.8198 19.8195 44.5868 21.0883 44.875 22.5H32.625C32.9132 21.0883 33.6802 19.8195 34.7964 18.9084C35.9125 17.9972 37.3092 17.4997 38.75 17.5Z" fill="black"/>
</g>
<defs>
<clipPath id="clip0_3448_13357">
<rect width="60" height="60" fill="white"/>
</clipPath>
</defs>
</svg>
