<svg width="60" height="60" viewBox="0 0 60 60" fill="none" xmlns="http://www.w3.org/2000/svg">
<g clip-path="url(#clip0_3448_13356)">
<path d="M41.25 7.5C48.845 7.5 55 13.75 55 22.5C55 40 36.25 50 30 53.75C23.75 50 5 40 5 22.5C5 13.75 11.25 7.5 18.75 7.5C23.4 7.5 27.5 10 30 12.5C32.5 10 36.6 7.5 41.25 7.5ZM32.335 46.51C34.5375 45.12 36.525 43.7375 38.385 42.2575C45.8375 36.3325 50 29.8575 50 22.5C50 16.6 46.1575 12.5 41.25 12.5C38.56 12.5 35.65 13.925 33.535 16.035L30 19.57L26.465 16.035C24.35 13.925 21.44 12.5 18.75 12.5C13.9 12.5 10 16.64 10 22.5C10 29.86 14.165 36.3325 21.6125 42.2575C23.475 43.7375 25.4625 45.12 27.665 46.5075C28.4125 46.98 29.1525 47.4325 30 47.9375C30.8475 47.4325 31.5875 46.98 32.335 46.51Z" fill="black"/>
</g>
<defs>
<clipPath id="clip0_3448_13356">
<rect width="60" height="60" fill="white"/>
</clipPath>
</defs>
</svg>
