<svg width="60" height="60" viewBox="0 0 60 60" fill="none" xmlns="http://www.w3.org/2000/svg">
<g clip-path="url(#clip0_3448_13355)">
<path d="M52.5 16.8925L47.5 21.8925V10H25V22.5H12.5V50H47.5V43.1075L52.5 38.1075V52.52C52.4993 53.178 52.2375 53.8088 51.772 54.2738C51.3065 54.7388 50.6755 55 50.0175 55H9.9825C9.65419 54.9977 9.32955 54.9308 9.02711 54.803C8.72468 54.6753 8.45036 54.4892 8.21984 54.2554C7.98932 54.0216 7.8071 53.7447 7.68359 53.4406C7.56008 53.1364 7.49769 52.8108 7.5 52.4825V20L22.5075 5H49.995C51.375 5 52.5 6.1375 52.5 7.48V16.8925ZM54.445 22.0175L57.98 25.555L38.535 45L34.995 44.995L35 41.465L54.445 22.02V22.0175Z" fill="black"/>
</g>
<defs>
<clipPath id="clip0_3448_13355">
<rect width="60" height="60" fill="white"/>
</clipPath>
</defs>
</svg>
