<svg width="22" height="23" viewBox="0 0 22 23" fill="none" xmlns="http://www.w3.org/2000/svg">
<path d="M21.7324 21.9238C21.9375 22.1289 21.9375 22.4707 21.7324 22.6758C21.5273 22.8809 21.1855 22.8809 20.9805 22.6758L11 12.6953L0.951172 22.6758C0.746094 22.8809 0.404297 22.8809 0.199219 22.6758C-0.00585938 22.4707 -0.00585938 22.1289 0.199219 21.9238L10.1797 11.875L0.199219 1.89453C-0.00585938 1.68945 -0.00585938 1.34766 0.199219 1.14258C0.404297 0.9375 0.746094 0.9375 0.951172 1.14258L11 11.123L20.9805 1.14258C21.1855 0.9375 21.5273 0.9375 21.7324 1.14258C21.9375 1.34766 21.9375 1.68945 21.7324 1.89453L11.752 11.875L21.7324 21.9238Z" fill="#1B1B1B"/>
</svg>
