<svg width="40" height="39" viewBox="0 0 40 39" fill="none" xmlns="http://www.w3.org/2000/svg">
<rect x="0.71875" width="38.4902" height="39" rx="19.2451" fill="white"/>
<path d="M22.3818 16.3789L26.292 16.9531C26.6201 17.0078 26.8936 17.2266 27.0029 17.5547C27.1123 17.8555 27.0303 18.2109 26.7842 18.4297L23.9404 21.2461L24.624 25.2383C24.6787 25.5664 24.542 25.8945 24.2686 26.0859C23.9951 26.3047 23.6396 26.3047 23.3389 26.168L19.8389 24.2812L16.3115 26.168C16.0381 26.3047 15.6553 26.3047 15.4092 26.0859C15.1357 25.8945 14.999 25.5664 15.0537 25.2383L15.71 21.2461L12.8662 18.4297C12.6201 18.2109 12.5381 17.8555 12.6475 17.5547C12.7568 17.2266 13.0303 17.0078 13.3584 16.9531L17.2959 16.3789L19.0459 12.7422C19.1826 12.4414 19.4834 12.25 19.8389 12.25C20.167 12.25 20.4678 12.4414 20.6045 12.7422L22.3818 16.3789Z" fill="#F7E200"/>
</svg>
