<svg width="24" height="22" viewBox="0 0 24 22" fill="none" xmlns="http://www.w3.org/2000/svg">
<path d="M10.8105 0.863281C11.0566 0.371094 11.4531 0.125 12 0.125C12.5469 0.125 12.9434 0.371094 13.1895 0.863281L15.8555 6.27734L21.8438 7.17969C22.3906 7.23437 22.7461 7.52148 22.9102 8.04102C23.0742 8.56055 22.9648 9.01172 22.582 9.39453L18.2344 13.6191L19.2598 19.6074C19.3418 20.127 19.1641 20.5371 18.7266 20.8379C18.2891 21.166 17.8379 21.207 17.373 20.9609L12 18.1719L6.62695 20.9609C6.16211 21.2344 5.71094 21.207 5.27344 20.8789C4.83594 20.5508 4.6582 20.127 4.74023 19.6074L5.76562 13.6191L1.41797 9.39453C1.03516 9.01172 0.925781 8.56055 1.08984 8.04102C1.25391 7.52148 1.60938 7.23437 2.15625 7.17969L8.14453 6.27734L10.8105 0.863281Z" fill="white"/>
</svg>
