<svg width="22" height="23" viewBox="0 0 22 23" fill="none" xmlns="http://www.w3.org/2000/svg">
<path d="M0 11.75C0 5.69141 4.89844 0.75 11 0.75C17.0586 0.75 22 5.69141 22 11.75C22 17.8516 17.0586 22.75 11 22.75C4.89844 22.75 0 17.8516 0 11.75ZM15.9414 9.85938C16.4141 9.38672 16.4141 8.65625 15.9414 8.18359C15.4688 7.71094 14.7383 7.71094 14.2656 8.18359L9.625 12.8242L7.69141 10.9336C7.21875 10.4609 6.48828 10.4609 6.01562 10.9336C5.54297 11.4062 5.54297 12.1367 6.01562 12.6094L8.76562 15.3594C9.23828 15.832 9.96875 15.832 10.4414 15.3594L15.9414 9.85938Z" fill="#EE5922"/>
</svg>
